<svg width="838" height="772" viewBox="0 0 838 772" fill="none" xmlns="http://www.w3.org/2000/svg">
<rect width="838" height="772" fill="#E5E5E5"/>
<g clip-path="url(#clip0_0_1)">
<rect width="838" height="772" fill="white"/>
<rect x="563.369" y="575.009" width="119.998" height="119.998" fill="#C4C4C4"/>
<path fill-rule="evenodd" clip-rule="evenodd" d="M591.499 336.613C597.94 342.747 601.448 351.175 603.75 359.768L625.454 440.767C590.154 447.971 554.905 426.508 545.456 391.243C545.014 389.594 544.636 387.943 544.321 386.293L544.142 386.341L526.369 320.011C543.961 315.297 562.705 317.765 578.477 326.871C583.227 329.614 587.591 332.891 591.499 336.613Z" fill="#621E4B"/>
<path fill-rule="evenodd" clip-rule="evenodd" d="M629.006 336.601C622.556 342.742 619.046 351.181 616.744 359.785L595.244 440.159C631.797 449.551 665.588 426.508 675.038 391.243C675.479 389.594 675.857 387.943 676.173 386.293L676.351 386.341L694.124 320.011C676.532 315.297 657.788 317.765 642.016 326.871C637.271 329.611 632.911 332.884 629.006 336.601Z" fill="#892A69"/>
<g filter="url(#filter0_b_0_1)">
<rect y="-1" width="838" height="773" fill="#F5F5F5" fill-opacity="0.66"/>
</g>
<path opacity="0.7" d="M51.0464 759H47.292V748.482H51.0464C52.759 748.482 53.8939 749.16 54.4512 750.518C54.7755 751.299 54.9376 752.322 54.9376 753.589C54.9376 756.234 54.279 757.901 52.9616 758.59C52.4347 758.863 51.7963 759 51.0464 759ZM53.7368 753.589C53.7368 751.572 53.2859 750.316 52.384 749.819C52.0192 749.616 51.5734 749.515 51.0464 749.515H48.4624V757.966H51.0464C52.84 757.966 53.7368 756.507 53.7368 753.589ZM62.0593 758.058L62.5001 758.012L62.5305 758.909C61.3753 759.071 60.3873 759.152 59.5665 759.152C58.4721 759.152 57.6969 758.838 57.2409 758.21C56.7849 757.571 56.5569 756.583 56.5569 755.246C56.5569 752.581 57.6159 751.248 59.7337 751.248C60.7572 751.248 61.5223 751.537 62.0289 752.114C62.5356 752.682 62.7889 753.579 62.7889 754.805L62.7281 755.671H57.7121C57.7121 756.512 57.8641 757.135 58.1681 757.541C58.4721 757.946 58.9991 758.149 59.7489 758.149C60.5089 758.149 61.2791 758.118 62.0593 758.058ZM61.6489 754.759C61.6489 753.827 61.4969 753.168 61.1929 752.783C60.8991 752.398 60.4127 752.206 59.7337 752.206C59.0649 752.206 58.5583 752.408 58.2137 752.814C57.8793 753.219 57.7071 753.867 57.6969 754.759H61.6489ZM66.952 752.266C65.8474 752.266 65.2952 752.651 65.2952 753.422C65.2952 753.776 65.4218 754.03 65.6752 754.182C65.9285 754.323 66.5061 754.475 67.408 754.638C68.3099 754.79 68.9483 755.007 69.3232 755.291C69.6981 755.575 69.8856 756.107 69.8856 756.887C69.8856 757.667 69.6323 758.24 69.1256 758.605C68.6291 758.97 67.8994 759.152 66.9368 759.152C66.3085 759.152 65.5688 759.081 64.7176 758.939L64.2616 758.863L64.3224 757.875C65.4776 758.047 66.349 758.134 66.9368 758.134C67.5245 758.134 67.9704 758.042 68.2744 757.86C68.5885 757.667 68.7456 757.353 68.7456 756.918C68.7456 756.472 68.6139 756.173 68.3504 756.021C68.0869 755.859 67.5093 755.707 66.6176 755.565C65.7258 755.423 65.0925 755.215 64.7176 754.942C64.3426 754.668 64.1552 754.161 64.1552 753.422C64.1552 752.682 64.4136 752.135 64.9304 751.78C65.4573 751.425 66.1109 751.248 66.8912 751.248C67.5093 751.248 68.2845 751.319 69.2168 751.461L69.6424 751.537L69.612 752.51C68.4872 752.347 67.6005 752.266 66.952 752.266ZM71.6312 759V751.4H72.7712V759H71.6312ZM71.6312 749.682V748.36H72.7712V749.682H71.6312ZM77.8898 762.572C76.6738 762.572 75.8226 762.405 75.3362 762.07C74.86 761.746 74.6218 761.148 74.6218 760.277C74.6218 759.861 74.713 759.522 74.8954 759.258C75.0778 759.005 75.3869 758.716 75.8226 758.392C75.5389 758.199 75.397 757.85 75.397 757.343C75.397 757.171 75.5237 756.852 75.777 756.386L75.9138 756.142C75.1133 755.778 74.713 755.013 74.713 753.847C74.713 752.114 75.6605 751.248 77.5554 751.248C78.0418 751.248 78.4928 751.299 78.9083 751.4L79.1363 751.446L81.3859 751.385V752.358L79.9419 752.327C80.2763 752.662 80.4435 753.168 80.4435 753.847C80.4435 754.8 80.2053 755.469 79.7291 755.854C79.2629 756.229 78.5232 756.416 77.5098 756.416C77.2362 756.416 76.988 756.396 76.765 756.355C76.5826 756.801 76.4914 757.09 76.4914 757.222C76.4914 757.536 76.5877 757.733 76.7802 757.814C76.9728 757.885 77.5554 757.921 78.5283 757.921C79.5011 757.921 80.2003 758.073 80.6259 758.377C81.0515 758.681 81.2643 759.274 81.2643 760.155C81.2643 761.766 80.1395 762.572 77.8898 762.572ZM75.7466 760.186C75.7466 760.723 75.8936 761.093 76.1874 761.295C76.4914 761.508 77.0437 761.614 77.8442 761.614C78.6549 761.614 79.2325 761.503 79.5771 761.28C79.9317 761.057 80.1091 760.682 80.1091 760.155C80.1091 759.638 79.9824 759.304 79.7291 759.152C79.4757 759 78.9792 758.924 78.2394 758.924L76.5978 758.848C76.2634 759.091 76.0354 759.304 75.9138 759.486C75.8024 759.669 75.7466 759.902 75.7466 760.186ZM75.853 753.847C75.853 754.445 75.9848 754.871 76.2482 755.124C76.5218 755.377 76.9677 755.504 77.5858 755.504C78.204 755.504 78.6448 755.377 78.9083 755.124C79.1717 754.871 79.3035 754.445 79.3035 753.847C79.3035 753.239 79.1717 752.809 78.9083 752.555C78.6448 752.302 78.204 752.175 77.5858 752.175C76.9677 752.175 76.5218 752.307 76.2482 752.57C75.9848 752.824 75.853 753.249 75.853 753.847ZM83.9041 759H82.7641V751.4H83.8889V751.932C84.7097 751.476 85.495 751.248 86.2449 751.248C87.2582 751.248 87.9372 751.522 88.2817 752.069C88.6364 752.616 88.8137 753.589 88.8137 754.987V759H87.6889V755.018C87.6889 753.964 87.5825 753.244 87.3697 752.859C87.167 752.464 86.7262 752.266 86.0473 752.266C85.723 752.266 85.3785 752.317 85.0137 752.418C84.659 752.51 84.3854 752.601 84.1929 752.692L83.9041 752.829V759ZM96.0962 758.058L96.537 758.012L96.5674 758.909C95.4122 759.071 94.4242 759.152 93.6034 759.152C92.509 759.152 91.7338 758.838 91.2778 758.21C90.8218 757.571 90.5938 756.583 90.5938 755.246C90.5938 752.581 91.6527 751.248 93.7706 751.248C94.7941 751.248 95.5591 751.537 96.0658 752.114C96.5725 752.682 96.8258 753.579 96.8258 754.805L96.765 755.671H91.749C91.749 756.512 91.901 757.135 92.205 757.541C92.509 757.946 93.0359 758.149 93.7858 758.149C94.5458 758.149 95.3159 758.118 96.0962 758.058ZM95.6858 754.759C95.6858 753.827 95.5338 753.168 95.2298 752.783C94.9359 752.398 94.4495 752.206 93.7706 752.206C93.1018 752.206 92.5951 752.408 92.2506 752.814C91.9162 753.219 91.7439 753.867 91.7338 754.759H95.6858ZM104.439 748.086V759H103.314V758.483C102.534 758.929 101.764 759.152 101.004 759.152C100.599 759.152 100.244 759.101 99.94 759C99.636 758.899 99.3523 758.716 99.0888 758.453C98.5416 757.906 98.268 756.897 98.268 755.428C98.268 753.949 98.5112 752.885 98.9976 752.236C99.4942 751.577 100.31 751.248 101.445 751.248C102.033 751.248 102.656 751.314 103.314 751.446V748.086H104.439ZM99.9704 757.632C100.133 757.825 100.305 757.956 100.487 758.027C100.67 758.098 100.903 758.134 101.186 758.134C101.48 758.134 101.805 758.088 102.159 757.997C102.524 757.895 102.808 757.799 103.01 757.708L103.314 757.571V752.418C102.666 752.297 102.063 752.236 101.506 752.236C100.736 752.236 100.198 752.484 99.8944 752.981C99.5904 753.467 99.4384 754.227 99.4384 755.261C99.4384 756.436 99.6158 757.227 99.9704 757.632ZM113.347 751.248C114.37 751.248 115.085 751.542 115.49 752.13C115.906 752.707 116.113 753.726 116.113 755.185C116.113 756.644 115.855 757.673 115.338 758.27C114.831 758.858 113.894 759.152 112.526 759.152C112.1 759.152 111.396 759.111 110.413 759.03L109.988 758.985V748.086H111.112V751.78C111.883 751.425 112.627 751.248 113.347 751.248ZM112.511 758.134C113.504 758.134 114.158 757.911 114.472 757.465C114.796 757.009 114.958 756.244 114.958 755.17C114.958 754.095 114.831 753.346 114.578 752.92C114.325 752.484 113.874 752.266 113.225 752.266C112.638 752.266 112.035 752.378 111.416 752.601L111.112 752.707V758.058C111.771 758.108 112.237 758.134 112.511 758.134ZM117.14 751.4H118.28L120.18 758.012H120.682L122.597 751.4H123.737L120.576 762.374H119.436L120.424 759H119.299L117.14 751.4ZM141.63 754.364V754.562C141.63 756.71 141.29 758.063 140.611 758.62C140.368 758.813 140.12 758.939 139.866 759C139.623 759.061 139.34 759.091 139.015 759.091C138.701 759.091 138.428 759.061 138.194 759C137.972 758.939 137.799 758.863 137.678 758.772C137.434 758.59 137.267 758.392 137.176 758.179C136.183 758.777 135.301 759.076 134.531 759.076C134.156 759.076 133.827 759.03 133.543 758.939C133.27 758.848 132.991 758.676 132.707 758.422C132.14 757.916 131.856 756.928 131.856 755.458C131.856 753.989 132.084 752.935 132.54 752.297C133.006 751.648 133.807 751.324 134.942 751.324C135.377 751.324 135.869 751.42 136.416 751.613L136.69 751.719V751.476H137.83V754.379C137.83 756.153 137.885 757.206 137.997 757.541C138.048 757.673 138.118 757.794 138.21 757.906C138.311 758.017 138.417 758.083 138.529 758.103C138.64 758.123 138.833 758.134 139.106 758.134C139.38 758.134 139.608 758.068 139.79 757.936C139.983 757.804 140.145 757.47 140.277 756.933C140.409 756.396 140.474 755.605 140.474 754.562V754.349C140.474 752.474 140.059 751.116 139.228 750.275C138.397 749.434 137.014 749.014 135.078 749.014C133.153 749.014 131.719 749.495 130.777 750.458C129.845 751.41 129.378 752.966 129.378 755.124C129.378 757.272 129.824 758.802 130.716 759.714C131.608 760.626 133.072 761.082 135.109 761.082L137.282 760.93L137.328 761.949C136.375 762.04 135.636 762.086 135.109 762.086C133.933 762.086 132.935 761.974 132.114 761.751C131.304 761.528 130.599 761.148 130.002 760.611C128.816 759.578 128.223 757.718 128.223 755.033C128.223 752.591 128.806 750.812 129.971 749.698C131.137 748.573 132.849 748.01 135.109 748.01C137.369 748.01 139.02 748.532 140.064 749.576C141.108 750.61 141.63 752.206 141.63 754.364ZM134.607 758.073C135.043 758.073 135.783 757.84 136.826 757.374C136.735 756.826 136.69 755.95 136.69 754.744V752.631C136.082 752.429 135.56 752.327 135.124 752.327C134.303 752.327 133.746 752.56 133.452 753.026C133.158 753.493 133.011 754.247 133.011 755.291C133.011 757.146 133.543 758.073 134.607 758.073ZM146.229 751.248C146.563 751.248 147.13 751.309 147.931 751.43L148.296 751.476L148.25 752.403C147.44 752.312 146.842 752.266 146.457 752.266C145.595 752.266 145.008 752.474 144.693 752.89C144.389 753.295 144.237 754.055 144.237 755.17C144.237 756.274 144.379 757.044 144.663 757.48C144.957 757.916 145.56 758.134 146.472 758.134L148.265 757.997L148.311 758.939C147.369 759.081 146.664 759.152 146.198 759.152C145.013 759.152 144.192 758.848 143.736 758.24C143.29 757.632 143.067 756.609 143.067 755.17C143.067 753.721 143.31 752.707 143.797 752.13C144.283 751.542 145.094 751.248 146.229 751.248ZM153.943 752.388H151.527V756.021C151.527 756.892 151.587 757.465 151.709 757.738C151.841 758.012 152.145 758.149 152.621 758.149L153.974 758.058L154.05 759C153.371 759.111 152.854 759.167 152.499 759.167C151.709 759.167 151.162 758.975 150.858 758.59C150.554 758.205 150.402 757.47 150.402 756.386V752.388H149.323V751.4H150.402V749.074H151.527V751.4H153.943V752.388ZM154.712 751.4H155.852L157.387 758.012H157.631L159.439 751.552H160.625L162.434 758.012H162.692L164.212 751.4H165.352L163.544 759H161.643L160.032 753.057L158.421 759H156.521L154.712 751.4ZM168.054 759H166.914V748.086H168.054V751.826C168.864 751.441 169.645 751.248 170.394 751.248C171.408 751.248 172.087 751.522 172.431 752.069C172.786 752.616 172.963 753.589 172.963 754.987V759H171.823V755.018C171.823 753.964 171.717 753.244 171.504 752.859C171.301 752.464 170.866 752.266 170.197 752.266C169.558 752.266 168.94 752.383 168.342 752.616L168.054 752.722V759ZM174.743 755.185C174.743 753.797 174.992 752.793 175.488 752.175C175.985 751.557 176.821 751.248 177.996 751.248C179.182 751.248 180.018 751.557 180.504 752.175C181.001 752.793 181.249 753.797 181.249 755.185C181.249 756.573 181.016 757.581 180.55 758.21C180.084 758.838 179.232 759.152 177.996 759.152C176.76 759.152 175.909 758.838 175.443 758.21C174.976 757.581 174.743 756.573 174.743 755.185ZM175.914 755.17C175.914 756.274 176.045 757.049 176.309 757.495C176.583 757.941 177.145 758.164 177.996 758.164C178.857 758.164 179.42 757.946 179.683 757.51C179.947 757.065 180.079 756.284 180.079 755.17C180.079 754.055 179.932 753.29 179.638 752.874C179.344 752.449 178.797 752.236 177.996 752.236C177.206 752.236 176.659 752.449 176.355 752.874C176.061 753.29 175.914 754.055 175.914 755.17ZM184.248 759H183.108V751.4H184.233V751.932C184.993 751.476 185.733 751.248 186.452 751.248C187.395 751.248 188.053 751.506 188.428 752.023C188.763 751.821 189.193 751.643 189.72 751.491C190.257 751.329 190.729 751.248 191.134 751.248C192.147 751.248 192.826 751.522 193.171 752.069C193.525 752.606 193.703 753.579 193.703 754.987V759H192.563V755.018C192.563 753.964 192.461 753.244 192.259 752.859C192.056 752.464 191.625 752.266 190.967 752.266C190.632 752.266 190.288 752.317 189.933 752.418C189.578 752.51 189.305 752.601 189.112 752.692L188.823 752.829C188.955 753.163 189.021 753.903 189.021 755.048V759H187.881V755.078C187.881 753.984 187.78 753.244 187.577 752.859C187.385 752.464 186.954 752.266 186.285 752.266C185.961 752.266 185.626 752.317 185.282 752.418C184.947 752.51 184.689 752.601 184.507 752.692L184.248 752.829V759ZM200.983 758.058L201.423 758.012L201.454 758.909C200.299 759.071 199.311 759.152 198.49 759.152C197.395 759.152 196.62 758.838 196.164 758.21C195.708 757.571 195.48 756.583 195.48 755.246C195.48 752.581 196.539 751.248 198.657 751.248C199.68 751.248 200.445 751.537 200.952 752.114C201.459 752.682 201.712 753.579 201.712 754.805L201.651 755.671H196.635C196.635 756.512 196.787 757.135 197.091 757.541C197.395 757.946 197.922 758.149 198.672 758.149C199.432 758.149 200.202 758.118 200.983 758.058ZM200.572 754.759C200.572 753.827 200.42 753.168 200.116 752.783C199.822 752.398 199.336 752.206 198.657 752.206C197.988 752.206 197.481 752.408 197.137 752.814C196.803 753.219 196.63 753.867 196.62 754.759H200.572ZM206.221 758.848L210.507 748.238L211.525 748.618L207.239 759.213L206.221 758.848ZM215.809 751.4H216.949L218.485 758.012H218.728L220.537 751.552H221.722L223.531 758.012H223.789L225.309 751.4H226.449L224.641 759H222.741L221.129 753.057L219.518 759H217.618L215.809 751.4ZM227.388 751.4H228.528L230.063 758.012H230.306L232.115 751.552H233.3L235.109 758.012H235.368L236.888 751.4H238.028L236.219 759H234.319L232.708 753.057L231.096 759H229.196L227.388 751.4ZM238.966 751.4H240.106L241.641 758.012H241.884L243.693 751.552H244.879L246.687 758.012H246.946L248.466 751.4H249.606L247.797 759H245.897L244.286 753.057L242.675 759H240.775L238.966 751.4ZM250.661 759V757.267H251.907V759H250.661ZM256.86 751.248C257.194 751.248 257.761 751.309 258.562 751.43L258.927 751.476L258.881 752.403C258.07 752.312 257.473 752.266 257.088 752.266C256.226 752.266 255.638 752.474 255.324 752.89C255.02 753.295 254.868 754.055 254.868 755.17C254.868 756.274 255.01 757.044 255.294 757.48C255.588 757.916 256.191 758.134 257.103 758.134L258.896 757.997L258.942 758.939C258 759.081 257.295 759.152 256.829 759.152C255.644 759.152 254.823 758.848 254.367 758.24C253.921 757.632 253.698 756.609 253.698 755.17C253.698 753.721 253.941 752.707 254.428 752.13C254.914 751.542 255.725 751.248 256.86 751.248ZM264.574 752.388H262.157V756.021C262.157 756.892 262.218 757.465 262.34 757.738C262.472 758.012 262.776 758.149 263.252 758.149L264.605 758.058L264.681 759C264.002 759.111 263.485 759.167 263.13 759.167C262.34 759.167 261.793 758.975 261.489 758.59C261.185 758.205 261.033 757.47 261.033 756.386V752.388H259.953V751.4H261.033V749.074H262.157V751.4H264.574V752.388ZM265.343 751.4H266.483L268.018 758.012H268.262L270.07 751.552H271.256L273.065 758.012H273.323L274.843 751.4H275.983L274.174 759H272.274L270.663 753.057L269.052 759H267.152L265.343 751.4ZM278.685 759H277.545V748.086H278.685V751.826C279.495 751.441 280.275 751.248 281.025 751.248C282.039 751.248 282.718 751.522 283.062 752.069C283.417 752.616 283.594 753.589 283.594 754.987V759H282.454V755.018C282.454 753.964 282.348 753.244 282.135 752.859C281.932 752.464 281.497 752.266 280.828 752.266C280.189 752.266 279.571 752.383 278.973 752.616L278.685 752.722V759ZM285.374 755.185C285.374 753.797 285.623 752.793 286.119 752.175C286.616 751.557 287.452 751.248 288.627 751.248C289.813 751.248 290.649 751.557 291.135 752.175C291.632 752.793 291.88 753.797 291.88 755.185C291.88 756.573 291.647 757.581 291.181 758.21C290.715 758.838 289.863 759.152 288.627 759.152C287.391 759.152 286.54 758.838 286.073 758.21C285.607 757.581 285.374 756.573 285.374 755.185ZM286.545 755.17C286.545 756.274 286.676 757.049 286.94 757.495C287.213 757.941 287.776 758.164 288.627 758.164C289.488 758.164 290.051 757.946 290.314 757.51C290.578 757.065 290.709 756.284 290.709 755.17C290.709 754.055 290.563 753.29 290.269 752.874C289.975 752.449 289.428 752.236 288.627 752.236C287.837 752.236 287.289 752.449 286.985 752.874C286.692 753.29 286.545 754.055 286.545 755.17ZM294.879 759H293.739V751.4H294.864V751.932C295.624 751.476 296.364 751.248 297.083 751.248C298.026 751.248 298.684 751.506 299.059 752.023C299.394 751.821 299.824 751.643 300.351 751.491C300.888 751.329 301.359 751.248 301.765 751.248C302.778 751.248 303.457 751.522 303.802 752.069C304.156 752.606 304.334 753.579 304.334 754.987V759H303.194V755.018C303.194 753.964 303.092 753.244 302.89 752.859C302.687 752.464 302.256 752.266 301.598 752.266C301.263 752.266 300.919 752.317 300.564 752.418C300.209 752.51 299.936 752.601 299.743 752.692L299.454 752.829C299.586 753.163 299.652 753.903 299.652 755.048V759H298.512V755.078C298.512 753.984 298.411 753.244 298.208 752.859C298.015 752.464 297.585 752.266 296.916 752.266C296.592 752.266 296.257 752.317 295.913 752.418C295.578 752.51 295.32 752.601 295.138 752.692L294.879 752.829V759ZM311.613 758.058L312.054 758.012L312.085 758.909C310.929 759.071 309.941 759.152 309.121 759.152C308.026 759.152 307.251 758.838 306.795 758.21C306.339 757.571 306.111 756.583 306.111 755.246C306.111 752.581 307.17 751.248 309.288 751.248C310.311 751.248 311.076 751.537 311.583 752.114C312.09 752.682 312.343 753.579 312.343 754.805L312.282 755.671H307.266C307.266 756.512 307.418 757.135 307.722 757.541C308.026 757.946 308.553 758.149 309.303 758.149C310.063 758.149 310.833 758.118 311.613 758.058ZM311.203 754.759C311.203 753.827 311.051 753.168 310.747 752.783C310.453 752.398 309.967 752.206 309.288 752.206C308.619 752.206 308.112 752.408 307.768 752.814C307.433 753.219 307.261 753.867 307.251 754.759H311.203ZM314.044 759V757.267H315.29V759H314.044ZM320.243 751.248C320.577 751.248 321.144 751.309 321.945 751.43L322.31 751.476L322.264 752.403C321.454 752.312 320.856 752.266 320.471 752.266C319.609 752.266 319.022 752.474 318.707 752.89C318.403 753.295 318.251 754.055 318.251 755.17C318.251 756.274 318.393 757.044 318.677 757.48C318.971 757.916 319.574 758.134 320.486 758.134L322.279 757.997L322.325 758.939C321.383 759.081 320.678 759.152 320.212 759.152C319.027 759.152 318.206 758.848 317.75 758.24C317.304 757.632 317.081 756.609 317.081 755.17C317.081 753.721 317.324 752.707 317.811 752.13C318.297 751.542 319.108 751.248 320.243 751.248ZM323.597 755.185C323.597 753.797 323.845 752.793 324.342 752.175C324.838 751.557 325.674 751.248 326.85 751.248C328.035 751.248 328.871 751.557 329.358 752.175C329.854 752.793 330.103 753.797 330.103 755.185C330.103 756.573 329.87 757.581 329.403 758.21C328.937 758.838 328.086 759.152 326.85 759.152C325.614 759.152 324.762 758.838 324.296 758.21C323.83 757.581 323.597 756.573 323.597 755.185ZM324.767 755.17C324.767 756.274 324.899 757.049 325.163 757.495C325.436 757.941 325.999 758.164 326.85 758.164C327.711 758.164 328.274 757.946 328.537 757.51C328.801 757.065 328.932 756.284 328.932 755.17C328.932 754.055 328.785 753.29 328.491 752.874C328.198 752.449 327.65 752.236 326.85 752.236C326.059 752.236 325.512 752.449 325.208 752.874C324.914 753.29 324.767 754.055 324.767 755.17ZM333.102 759H331.962V751.4H333.087V751.932C333.847 751.476 334.587 751.248 335.306 751.248C336.248 751.248 336.907 751.506 337.282 752.023C337.616 751.821 338.047 751.643 338.574 751.491C339.111 751.329 339.582 751.248 339.988 751.248C341.001 751.248 341.68 751.522 342.024 752.069C342.379 752.606 342.556 753.579 342.556 754.987V759H341.416V755.018C341.416 753.964 341.315 753.244 341.112 752.859C340.91 752.464 340.479 752.266 339.82 752.266C339.486 752.266 339.141 752.317 338.787 752.418C338.432 752.51 338.159 752.601 337.966 752.692L337.677 752.829C337.809 753.163 337.875 753.903 337.875 755.048V759H336.735V755.078C336.735 753.984 336.633 753.244 336.431 752.859C336.238 752.464 335.808 752.266 335.139 752.266C334.815 752.266 334.48 752.317 334.136 752.418C333.801 752.51 333.543 752.601 333.36 752.692L333.102 752.829V759Z" fill="black"/>
<path d="M56.3017 179.872V193.851H47.8408V152.159H64.027C73.8368 152.159 78.7417 156.737 78.7417 165.893C78.7417 171.329 76.698 175.335 72.6106 177.91L78.5578 193.851H69.2997L64.4561 179.872H56.3017ZM64.1496 172.637C66.1524 172.637 67.6443 172.024 68.6253 170.798C69.6063 169.571 70.0968 167.957 70.0968 165.954C70.0968 163.951 69.5654 162.357 68.5027 161.172C67.4808 159.986 65.9889 159.394 64.027 159.394H56.3017V172.637H64.1496ZM98.6751 158.781C94.2198 158.781 91.9921 160.252 91.9921 163.195C91.9921 164.503 92.544 165.504 93.6476 166.199C94.7512 166.894 97.3262 167.895 101.373 169.203C105.46 170.511 108.321 172.003 109.956 173.679C111.591 175.314 112.409 177.848 112.409 181.282C112.409 185.655 111.08 188.966 108.424 191.214C105.767 193.462 102.292 194.586 98.0007 194.586C94.8125 194.586 90.909 194.096 86.2902 193.115L84.083 192.686L84.9413 186.125C90.4185 186.861 94.6081 187.229 97.5102 187.229C101.843 187.229 104.009 185.431 104.009 181.834C104.009 180.526 103.498 179.504 102.476 178.768C101.495 178.032 99.513 177.235 96.5292 176.377C91.7878 175.028 88.4361 173.434 86.4741 171.595C84.553 169.714 83.5925 167.119 83.5925 163.808C83.5925 159.639 84.8596 156.532 87.3938 154.489C89.928 152.445 93.4023 151.423 97.8167 151.423C100.841 151.423 104.684 151.832 109.343 152.649L111.55 153.079L110.876 159.762C105.113 159.108 101.046 158.781 98.6751 158.781ZM119.211 193.851V152.159H146.188V159.516H127.672V169.265H142.509V176.5H127.672V186.493H146.188V193.851H119.211Z" fill="black"/>
<path fill-rule="evenodd" clip-rule="evenodd" d="M91.4295 69.7288C94.2703 74.1076 95.071 79.4107 95.071 84.6304V136.928C70.7052 135.58 51.4004 117.11 51.4004 94.5227C51.4004 93.4666 51.4426 92.4196 51.5255 91.383H51.4004V48.8992C63.74 48.8992 75.5742 53.3753 84.2995 61.3424C87.0745 63.8762 89.4627 66.6972 91.4295 69.7288Z" fill="#621E4B"/>
<path fill-rule="evenodd" clip-rule="evenodd" d="M101.568 69.7285C98.7272 74.1074 97.9265 79.4105 97.9265 84.6302V136.927C122.292 135.58 141.597 117.11 141.597 94.5224C141.597 93.4663 141.555 92.4194 141.472 91.3827H141.597V48.899C129.258 48.899 117.423 53.375 108.698 61.3422C105.923 63.876 103.535 66.6969 101.568 69.7285Z" fill="#892A69"/>
<path d="M67.5025 114.195V101.533H71.8413L74.8952 111.961H75.0814V101.533H77.6512V114.195H73.4241L70.2585 103.767H70.0723V114.195H67.5025ZM87.6203 114.195H80.4139V101.533H82.9836V111.924H87.6203V114.195Z" fill="white"/>
<path d="M56.2021 491.495H54.4854V494.16H52.411V491.495H50.5513V494.16H48.4769V491.495H46.7602V489.492H48.4769V487.239H46.7602V485.236H48.4769V482.357H50.5513V485.236H52.411V482.357H54.4854V485.236H56.2021V487.239H54.4854V489.492H56.2021V491.495ZM52.411 489.492V487.239H50.5513V489.492H52.411ZM65.3501 484.557C64.1341 484.378 63.079 484.289 62.1849 484.289C60.4921 484.289 59.6457 485.207 59.6457 487.043L60.0212 486.935C60.808 486.709 61.4339 486.596 61.8988 486.596C63.2459 486.596 64.2593 486.905 64.9388 487.525C65.6183 488.145 65.9581 489.111 65.9581 490.422C65.9581 491.722 65.5766 492.705 64.8136 493.373C64.0506 494.041 62.9419 494.374 61.4875 494.374C60.045 494.374 58.9542 493.85 58.2151 492.801C57.4759 491.74 57.1064 490.184 57.1064 488.133C57.1064 486.083 57.5296 484.575 58.376 483.609C59.2224 482.632 60.4384 482.143 62.024 482.143C62.9539 482.143 63.9493 482.274 65.0103 482.536L65.5647 482.661L65.3501 484.557ZM61.6842 488.741C61.1239 488.741 60.5398 488.843 59.9318 489.045L59.6278 489.135C59.6278 491.197 60.2954 492.228 61.6306 492.228C62.2028 492.228 62.6439 492.073 62.9539 491.764C63.2638 491.442 63.4188 490.995 63.4188 490.422C63.4188 489.302 62.8406 488.741 61.6842 488.741ZM75.3028 494.16H67.6492V492.068L70.1706 489.51C71.0647 488.592 71.6846 487.889 72.0304 487.4C72.388 486.911 72.5668 486.393 72.5668 485.844C72.5668 485.284 72.4178 484.891 72.1198 484.664C71.8337 484.438 71.4224 484.324 70.8859 484.324C70.0872 484.324 69.2169 484.396 68.2751 484.539L67.8459 484.593L67.7207 482.679C68.8891 482.322 70.0991 482.143 71.3508 482.143C73.8544 482.143 75.1061 483.269 75.1061 485.523C75.1061 486.405 74.9154 487.168 74.5339 487.812C74.1524 488.455 73.4609 489.236 72.4595 490.154L70.4031 492.014H75.3028V494.16ZM83.968 482.357V494.16H81.5003V485.147L78.9431 486.792L77.8165 484.95L81.7149 482.357H83.968ZM87.8229 494.16V482H95.6911V484.146H90.2907V486.989H94.6182V489.099H90.2907V492.014H95.6911V494.16H87.8229ZM102.124 494.16V492.211H97.1165V490.333L100.031 482.357H102.749L99.5843 490.065H102.124V486.756H104.591V490.065H105.718V492.211H104.591V494.16H102.124ZM107.731 482H112.505C113.769 482 114.717 482.256 115.349 482.769C115.981 483.269 116.296 484.086 116.296 485.219C116.296 485.898 116.195 486.441 115.992 486.846C115.79 487.239 115.444 487.591 114.955 487.901C115.492 488.127 115.885 488.455 116.136 488.884C116.398 489.314 116.529 489.91 116.529 490.673C116.529 491.853 116.183 492.729 115.492 493.301C114.8 493.874 113.829 494.16 112.577 494.16H107.731V482ZM112.452 489.081H110.199V492.05H112.452C112.988 492.05 113.382 491.942 113.632 491.728C113.894 491.513 114.025 491.12 114.025 490.548C114.025 489.57 113.501 489.081 112.452 489.081ZM112.38 484.11H110.199V487.007H112.398C113.328 487.007 113.793 486.524 113.793 485.558C113.793 484.593 113.322 484.11 112.38 484.11Z" fill="black"/>
<path d="M155.658 491.495H153.941V494.16H151.867V491.495H150.007V494.16H147.933V491.495H146.216V489.492H147.933V487.239H146.216V485.236H147.933V482.357H150.007V485.236H151.867V482.357H153.941V485.236H155.658V487.239H153.941V489.492H155.658V491.495ZM151.867 489.492V487.239H150.007V489.492H151.867ZM157.796 483.001C158.571 482.429 159.608 482.143 160.908 482.143C162.207 482.143 163.256 482.429 164.055 483.001C164.854 483.573 165.253 484.366 165.253 485.38C165.253 486.071 165.17 486.59 165.003 486.935C164.836 487.281 164.49 487.663 163.966 488.08C164.49 488.521 164.866 488.938 165.092 489.332C165.319 489.725 165.432 490.267 165.432 490.959C165.432 492.127 165.015 492.991 164.18 493.552C163.346 494.1 162.255 494.374 160.908 494.374C157.927 494.374 156.437 493.301 156.437 491.156C156.437 490.393 156.551 489.802 156.777 489.385C157.015 488.956 157.397 488.521 157.921 488.08C157.421 487.674 157.081 487.281 156.902 486.9C156.723 486.506 156.634 485.994 156.634 485.362C156.634 484.348 157.021 483.562 157.796 483.001ZM159.084 490.583C159.084 491.632 159.698 492.157 160.926 492.157C162.166 492.157 162.785 491.632 162.785 490.583C162.785 489.963 162.434 489.516 161.73 489.242H160.157C159.441 489.516 159.084 489.963 159.084 490.583ZM160.944 484.36C160.407 484.36 159.996 484.479 159.71 484.718C159.424 484.956 159.281 485.32 159.281 485.809C159.281 486.298 159.573 486.745 160.157 487.15H161.73C162.315 486.745 162.607 486.28 162.607 485.755C162.607 484.825 162.052 484.36 160.944 484.36ZM170.378 492.228C171.963 492.228 172.756 491.263 172.756 489.332L172.381 489.457C171.558 489.731 170.932 489.868 170.503 489.868C169.203 489.868 168.202 489.552 167.499 488.92C166.795 488.288 166.444 487.353 166.444 486.113C166.444 484.861 166.831 483.889 167.606 483.198C168.381 482.495 169.478 482.143 170.896 482.143C172.327 482.143 173.418 482.673 174.169 483.734C174.92 484.783 175.295 486.351 175.295 488.437C175.295 490.512 174.878 492.02 174.044 492.962C173.209 493.903 171.987 494.374 170.378 494.374C169.448 494.374 168.452 494.243 167.391 493.981L166.837 493.856L167.052 491.96C168.268 492.139 169.376 492.228 170.378 492.228ZM170.717 487.722C171.266 487.722 171.856 487.615 172.488 487.4L172.774 487.311C172.774 485.296 172.106 484.289 170.771 484.289C170.199 484.289 169.758 484.45 169.448 484.772C169.138 485.082 168.983 485.523 168.983 486.095C168.983 487.18 169.561 487.722 170.717 487.722ZM184.765 494.16H177.112V492.068L179.633 489.51C180.527 488.592 181.147 487.889 181.493 487.4C181.85 486.911 182.029 486.393 182.029 485.844C182.029 485.284 181.88 484.891 181.582 484.664C181.296 484.438 180.885 484.324 180.348 484.324C179.55 484.324 178.679 484.396 177.738 484.539L177.308 484.593L177.183 482.679C178.351 482.322 179.562 482.143 180.813 482.143C183.317 482.143 184.569 483.269 184.569 485.523C184.569 486.405 184.378 487.168 183.996 487.812C183.615 488.455 182.923 489.236 181.922 490.154L179.866 492.014H184.765V494.16ZM186.26 494.16L188.996 482H193.681L196.417 494.16H193.949L193.466 491.96H189.21L188.727 494.16H186.26ZM190.909 484.038L189.675 489.814H193.001L191.767 484.038H190.909ZM205.583 484.557C204.367 484.378 203.312 484.289 202.417 484.289C200.725 484.289 199.878 485.207 199.878 487.043L200.254 486.935C201.04 486.709 201.666 486.596 202.131 486.596C203.478 486.596 204.492 486.905 205.171 487.525C205.851 488.145 206.191 489.111 206.191 490.422C206.191 491.722 205.809 492.705 205.046 493.373C204.283 494.041 203.174 494.374 201.72 494.374C200.277 494.374 199.187 493.85 198.448 492.801C197.708 491.74 197.339 490.184 197.339 488.133C197.339 486.083 197.762 484.575 198.608 483.609C199.455 482.632 200.671 482.143 202.256 482.143C203.186 482.143 204.182 482.274 205.243 482.536L205.797 482.661L205.583 484.557ZM201.917 488.741C201.356 488.741 200.772 488.843 200.164 489.045L199.86 489.135C199.86 491.197 200.528 492.228 201.863 492.228C202.435 492.228 202.876 492.073 203.186 491.764C203.496 491.442 203.651 490.995 203.651 490.422C203.651 489.302 203.073 488.741 201.917 488.741ZM211.154 492.228C212.74 492.228 213.532 491.263 213.532 489.332L213.157 489.457C212.334 489.731 211.708 489.868 211.279 489.868C209.98 489.868 208.978 489.552 208.275 488.92C207.572 488.288 207.22 487.353 207.22 486.113C207.22 484.861 207.607 483.889 208.382 483.198C209.157 482.495 210.254 482.143 211.673 482.143C213.103 482.143 214.194 482.673 214.945 483.734C215.696 484.783 216.072 486.351 216.072 488.437C216.072 490.512 215.655 492.02 214.82 492.962C213.985 493.903 212.764 494.374 211.154 494.374C210.224 494.374 209.229 494.243 208.168 493.981L207.613 493.856L207.828 491.96C209.044 492.139 210.153 492.228 211.154 492.228ZM211.494 487.722C212.042 487.722 212.632 487.615 213.264 487.4L213.55 487.311C213.55 485.296 212.883 484.289 211.548 484.289C210.975 484.289 210.534 484.45 210.224 484.772C209.914 485.082 209.759 485.523 209.759 486.095C209.759 487.18 210.338 487.722 211.494 487.722Z" fill="black"/>
<path d="M252.694 491.495H250.977V494.16H248.903V491.495H247.043V494.16H244.969V491.495H243.252V489.492H244.969V487.239H243.252V485.236H244.969V482.357H247.043V485.236H248.903V482.357H250.977V485.236H252.694V487.239H250.977V489.492H252.694V491.495ZM248.903 489.492V487.239H247.043V489.492H248.903ZM260.447 482.357V494.16H257.979V485.147L255.422 486.792L254.295 484.95L258.194 482.357H260.447ZM270.453 482.357V494.16H267.986V485.147L265.428 486.792L264.302 484.95L268.2 482.357H270.453ZM280.46 482.357V494.16H277.992V485.147L275.435 486.792L274.308 484.95L278.207 482.357H280.46ZM284.851 483.001C285.626 482.429 286.663 482.143 287.963 482.143C289.262 482.143 290.311 482.429 291.11 483.001C291.909 483.573 292.308 484.366 292.308 485.38C292.308 486.071 292.225 486.59 292.058 486.935C291.891 487.281 291.545 487.663 291.02 488.08C291.545 488.521 291.921 488.938 292.147 489.332C292.374 489.725 292.487 490.267 292.487 490.959C292.487 492.127 292.07 492.991 291.235 493.552C290.401 494.1 289.31 494.374 287.963 494.374C284.982 494.374 283.492 493.301 283.492 491.156C283.492 490.393 283.605 489.802 283.832 489.385C284.07 488.956 284.452 488.521 284.976 488.08C284.476 487.674 284.136 487.281 283.957 486.9C283.778 486.506 283.689 485.994 283.689 485.362C283.689 484.348 284.076 483.562 284.851 483.001ZM286.139 490.583C286.139 491.632 286.753 492.157 287.98 492.157C289.22 492.157 289.84 491.632 289.84 490.583C289.84 489.963 289.489 489.516 288.785 489.242H287.212C286.496 489.516 286.139 489.963 286.139 490.583ZM287.998 484.36C287.462 484.36 287.051 484.479 286.764 484.718C286.478 484.956 286.335 485.32 286.335 485.809C286.335 486.298 286.627 486.745 287.212 487.15H288.785C289.369 486.745 289.661 486.28 289.661 485.755C289.661 484.825 289.107 484.36 287.998 484.36ZM301.814 494.16H294.16V492.068L296.681 489.51C297.576 488.592 298.195 487.889 298.541 487.4C298.899 486.911 299.078 486.393 299.078 485.844C299.078 485.284 298.929 484.891 298.631 484.664C298.344 484.438 297.933 484.324 297.397 484.324C296.598 484.324 295.728 484.396 294.786 484.539L294.357 484.593L294.232 482.679C295.4 482.322 296.61 482.143 297.862 482.143C300.365 482.143 301.617 483.269 301.617 485.523C301.617 486.405 301.426 487.168 301.045 487.812C300.663 488.455 299.972 489.236 298.97 490.154L296.914 492.014H301.814V494.16ZM304.238 484.557V482.357H311.784V485.147L307.582 494.374L305.293 493.731L309.317 485.129V484.557H304.238Z" fill="black"/>
<path d="M46.9926 271.451V266.586H66.9337V271.451H59.7549V293.706H54.2512V271.451H46.9926ZM69.9395 293.706V273.765H75.2837V293.706H69.9395ZM69.9395 271.212V265.788H75.2837V271.212H69.9395ZM91.2691 278.311H86.3635V286.487C86.3635 287.285 86.3768 287.856 86.4034 288.202C86.4566 288.521 86.6028 288.8 86.8421 289.039C87.108 289.279 87.5068 289.398 88.0386 289.398L91.0696 289.319L91.3089 293.586C89.5275 293.985 88.1715 294.184 87.2409 294.184C84.848 294.184 83.2128 293.652 82.3354 292.589C81.458 291.499 81.0193 289.505 81.0193 286.607V278.311H78.6663V273.765H81.0193V268.221H86.3635V273.765H91.2691V278.311ZM94.7491 293.706V273.765H100.093V293.706H94.7491ZM94.7491 271.212V265.788H100.093V271.212H94.7491ZM105.271 293.706V265.788H110.615V293.706H105.271ZM116.02 293.706V265.788H121.364V293.706H116.02ZM126.53 293.706V273.765H131.874V293.706H126.53ZM126.53 271.212V265.788H131.874V271.212H126.53ZM148.578 273.765H153.922V293.706H148.618V292.589C146.703 293.652 145.041 294.184 143.632 294.184C140.867 294.184 139.006 293.426 138.049 291.911C137.092 290.369 136.613 287.803 136.613 284.214V273.765H141.957V284.293C141.957 286.261 142.117 287.604 142.436 288.322C142.755 289.039 143.526 289.398 144.749 289.398C145.919 289.398 147.022 289.212 148.059 288.84L148.578 288.68V273.765ZM164.201 293.706H158.857V273.765H164.161V274.881C165.996 273.818 167.564 273.286 168.867 273.286C171.021 273.286 172.683 273.911 173.852 275.16C176.299 273.911 178.532 273.286 180.553 273.286C183.185 273.286 185.006 274.057 186.016 275.599C187.053 277.115 187.572 279.547 187.572 282.898V293.706H182.228V283.057C182.228 281.355 182.042 280.106 181.669 279.308C181.297 278.484 180.553 278.072 179.436 278.072C178.585 278.072 177.548 278.258 176.325 278.63L175.727 278.83C175.833 280.824 175.886 282.339 175.886 283.376V293.706H170.542V283.456C170.542 281.488 170.369 280.106 170.024 279.308C169.678 278.484 168.92 278.072 167.75 278.072C166.713 278.072 165.69 278.258 164.679 278.63L164.201 278.79V293.706ZM199.361 266.586H205.144L208.494 289H209.092L213.958 266.586H220.339L225.205 289H225.803L229.153 266.586H234.936L229.751 293.706H221.416L217.148 273.087L212.881 293.706H204.546L199.361 266.586ZM241.801 286.008C241.827 287.231 242.146 288.122 242.758 288.68C243.396 289.212 244.3 289.478 245.47 289.478C247.943 289.478 250.15 289.398 252.09 289.239L253.207 289.119L253.287 293.068C250.229 293.812 247.464 294.184 244.991 294.184C241.987 294.184 239.807 293.387 238.451 291.791C237.095 290.196 236.417 287.604 236.417 284.014C236.417 276.862 239.355 273.286 245.231 273.286C251.027 273.286 253.925 276.29 253.925 282.299L253.526 286.008H241.801ZM248.661 281.94C248.661 280.345 248.408 279.242 247.903 278.63C247.398 277.992 246.507 277.673 245.231 277.673C243.981 277.673 243.09 278.005 242.559 278.67C242.053 279.308 241.788 280.398 241.761 281.94H248.661ZM267.396 273.286C270.188 273.286 272.222 274.057 273.498 275.599C274.801 277.115 275.452 279.84 275.452 283.775C275.452 287.71 274.708 290.435 273.219 291.951C271.73 293.44 269.164 294.184 265.521 294.184C264.378 294.184 262.291 294.051 259.26 293.785L257.744 293.626V265.788H263.089V274.363C264.79 273.645 266.226 273.286 267.396 273.286ZM265.521 289.398C267.303 289.398 268.499 288.973 269.111 288.122C269.722 287.245 270.028 285.689 270.028 283.456C270.028 279.866 268.911 278.072 266.678 278.072C265.615 278.072 264.604 278.205 263.647 278.471L263.089 278.59V289.239C264.312 289.345 265.123 289.398 265.521 289.398ZM287.962 285.53V280.664H299.767V285.53H287.962ZM313.723 266.586H324.372C327.19 266.586 329.304 267.157 330.713 268.301C332.122 269.417 332.827 271.239 332.827 273.765C332.827 275.28 332.601 276.49 332.149 277.394C331.697 278.271 330.926 279.056 329.836 279.747C331.032 280.252 331.91 280.983 332.468 281.94C333.053 282.898 333.345 284.227 333.345 285.929C333.345 288.561 332.574 290.515 331.032 291.791C329.49 293.068 327.323 293.706 324.531 293.706H313.723V266.586ZM324.252 282.379H319.227V289H324.252C325.449 289 326.326 288.76 326.884 288.282C327.469 287.803 327.762 286.926 327.762 285.649C327.762 283.469 326.592 282.379 324.252 282.379ZM324.093 271.292H319.227V277.753H324.132C326.206 277.753 327.243 276.676 327.243 274.522C327.243 272.369 326.193 271.292 324.093 271.292ZM338.625 276.038C340.034 274.203 342.387 273.286 345.684 273.286C348.981 273.286 351.334 274.203 352.743 276.038C354.152 277.846 354.857 280.398 354.857 283.695C354.857 290.688 351.799 294.184 345.684 294.184C339.569 294.184 336.511 290.688 336.511 283.695C336.511 280.398 337.216 277.846 338.625 276.038ZM342.733 288.202C343.291 289.159 344.275 289.638 345.684 289.638C347.093 289.638 348.063 289.159 348.595 288.202C349.154 287.245 349.433 285.742 349.433 283.695C349.433 281.648 349.154 280.159 348.595 279.228C348.063 278.298 347.093 277.832 345.684 277.832C344.275 277.832 343.291 278.298 342.733 279.228C342.201 280.159 341.935 281.648 341.935 283.695C341.935 285.742 342.201 287.245 342.733 288.202ZM359.014 293.706V265.788H364.358V293.706H359.014ZM386.474 265.788V293.706H381.169V292.868C379.308 293.746 377.7 294.184 376.344 294.184C373.446 294.184 371.425 293.347 370.282 291.672C369.138 289.997 368.567 287.351 368.567 283.735C368.567 280.092 369.245 277.447 370.601 275.798C371.983 274.123 374.057 273.286 376.822 273.286C377.673 273.286 378.856 273.419 380.372 273.685L381.129 273.844V265.788H386.474ZM380.571 288.92L381.129 288.8V278.311C379.667 278.045 378.364 277.912 377.221 277.912C375.067 277.912 373.991 279.827 373.991 283.655C373.991 285.729 374.23 287.205 374.708 288.082C375.187 288.96 375.971 289.398 377.062 289.398C378.178 289.398 379.348 289.239 380.571 288.92Z" fill="black"/>
<path d="M48.2436 307.898C48.9461 306.983 50.1192 306.526 51.7628 306.526C53.4064 306.526 54.5795 306.983 55.282 307.898C55.9845 308.799 56.3357 310.072 56.3357 311.715C56.3357 315.201 54.8114 316.944 51.7628 316.944C48.7142 316.944 47.1899 315.201 47.1899 311.715C47.1899 310.072 47.5411 308.799 48.2436 307.898ZM50.2915 313.962C50.5699 314.439 51.0603 314.678 51.7628 314.678C52.4653 314.678 52.9491 314.439 53.2142 313.962C53.4926 313.485 53.6317 312.736 53.6317 311.715C53.6317 310.695 53.4926 309.952 53.2142 309.488C52.9491 309.024 52.4653 308.792 51.7628 308.792C51.0603 308.792 50.5699 309.024 50.2915 309.488C50.0264 309.952 49.8939 310.695 49.8939 311.715C49.8939 312.736 50.0264 313.485 50.2915 313.962ZM58.2887 320.881V306.765H60.933V307.301C61.7946 306.784 62.5501 306.526 63.1996 306.526C64.5383 306.526 65.5258 306.93 66.1621 307.739C66.7983 308.534 67.1164 309.893 67.1164 311.815C67.1164 313.737 66.7651 315.075 66.0626 315.831C65.3601 316.573 64.207 316.944 62.6031 316.944C62.1657 316.944 61.6952 316.904 61.1915 316.825L60.9529 316.785V320.881H58.2887ZM62.6827 308.912C62.1922 308.912 61.6952 309.011 61.1915 309.21L60.9529 309.309V314.519C61.5494 314.598 62.0332 314.638 62.4043 314.638C63.1731 314.638 63.6967 314.413 63.975 313.962C64.2666 313.511 64.4124 312.742 64.4124 311.656C64.4124 309.826 63.8358 308.912 62.6827 308.912ZM71.2906 312.868C71.3038 313.478 71.4629 313.922 71.7678 314.2C72.0859 314.466 72.5365 314.598 73.1198 314.598C74.3525 314.598 75.4526 314.558 76.4202 314.479L76.9769 314.419L77.0167 316.388C75.4924 316.759 74.1139 316.944 72.8812 316.944C71.3834 316.944 70.2965 316.547 69.6205 315.751C68.9445 314.956 68.6065 313.664 68.6065 311.874C68.6065 308.309 70.0711 306.526 73.0005 306.526C75.89 306.526 77.3348 308.024 77.3348 311.019L77.136 312.868H71.2906ZM74.7103 310.84C74.7103 310.045 74.5844 309.495 74.3326 309.19C74.0807 308.872 73.6367 308.713 73.0005 308.713C72.3775 308.713 71.9334 308.879 71.6683 309.21C71.4165 309.528 71.284 310.072 71.2707 310.84H74.7103ZM81.903 316.706H79.2388V306.765H81.8832V307.321C82.7845 306.791 83.6129 306.526 84.3684 306.526C85.6939 306.526 86.6085 306.917 87.1122 307.699C87.6159 308.481 87.8677 309.687 87.8677 311.318V316.706H85.2035V311.397C85.2035 310.549 85.1041 309.926 84.9053 309.528C84.7064 309.117 84.3088 308.912 83.7123 308.912C83.1689 308.912 82.6453 309.005 82.1416 309.19L81.903 309.27V316.706ZM101.735 309.25C100.091 309.038 98.938 308.932 98.2753 308.932C97.6258 308.932 97.2017 308.991 97.0028 309.111C96.8173 309.23 96.7245 309.422 96.7245 309.687C96.7245 309.939 96.8504 310.118 97.1022 310.224C97.3673 310.317 98.0301 310.463 99.0905 310.661C100.164 310.847 100.926 311.158 101.377 311.596C101.828 312.033 102.053 312.742 102.053 313.723C102.053 315.871 100.721 316.944 98.0566 316.944C97.1818 316.944 96.1214 316.825 94.8754 316.586L94.2392 316.467L94.3187 314.24C95.9623 314.452 97.1022 314.558 97.7385 314.558C98.388 314.558 98.8254 314.499 99.0507 314.379C99.2893 314.247 99.4086 314.055 99.4086 313.803C99.4086 313.551 99.2827 313.365 99.0308 313.246C98.7922 313.127 98.156 312.981 97.1221 312.809C96.1015 312.636 95.3394 312.345 94.8357 311.934C94.332 311.523 94.0801 310.794 94.0801 309.747C94.0801 308.686 94.438 307.891 95.1538 307.361C95.8695 306.818 96.7908 306.546 97.9174 306.546C98.6995 306.546 99.7665 306.672 101.118 306.924L101.775 307.043L101.735 309.25ZM104.512 307.898C105.214 306.983 106.388 306.526 108.031 306.526C109.675 306.526 110.848 306.983 111.55 307.898C112.253 308.799 112.604 310.072 112.604 311.715C112.604 315.201 111.08 316.944 108.031 316.944C104.983 316.944 103.458 315.201 103.458 311.715C103.458 310.072 103.809 308.799 104.512 307.898ZM106.56 313.962C106.838 314.439 107.329 314.678 108.031 314.678C108.734 314.678 109.217 314.439 109.483 313.962C109.761 313.485 109.9 312.736 109.9 311.715C109.9 310.695 109.761 309.952 109.483 309.488C109.217 309.024 108.734 308.792 108.031 308.792C107.329 308.792 106.838 309.024 106.56 309.488C106.295 309.952 106.162 310.695 106.162 311.715C106.162 312.736 106.295 313.485 106.56 313.962ZM120.422 306.765H123.086V316.706H120.442V316.149C119.488 316.679 118.659 316.944 117.957 316.944C116.578 316.944 115.651 316.566 115.173 315.811C114.696 315.042 114.458 313.763 114.458 311.974V306.765H117.122V312.013C117.122 312.994 117.201 313.664 117.36 314.022C117.519 314.379 117.904 314.558 118.514 314.558C119.097 314.558 119.647 314.466 120.164 314.28L120.422 314.2V306.765ZM125.547 316.706V306.765H128.191V307.818C129.304 307.156 130.365 306.725 131.372 306.526V309.21C130.298 309.435 129.377 309.667 128.608 309.906L128.211 310.045V316.706H125.547ZM136.662 306.526C137.351 306.526 138.233 306.632 139.307 306.844L139.843 306.963L139.764 309.071C138.717 308.965 137.941 308.912 137.438 308.912C136.523 308.912 135.913 309.111 135.608 309.508C135.317 309.893 135.171 310.628 135.171 311.715C135.171 312.802 135.317 313.551 135.608 313.962C135.913 314.36 136.53 314.558 137.457 314.558L139.764 314.399L139.843 316.527C138.425 316.805 137.345 316.944 136.603 316.944C135.131 316.944 134.071 316.533 133.421 315.712C132.785 314.876 132.467 313.544 132.467 311.715C132.467 309.886 132.798 308.567 133.461 307.759C134.124 306.937 135.191 306.526 136.662 306.526ZM143.927 312.868C143.94 313.478 144.099 313.922 144.404 314.2C144.722 314.466 145.173 314.598 145.756 314.598C146.989 314.598 148.089 314.558 149.056 314.479L149.613 314.419L149.653 316.388C148.129 316.759 146.75 316.944 145.517 316.944C144.02 316.944 142.933 316.547 142.257 315.751C141.581 314.956 141.243 313.664 141.243 311.874C141.243 308.309 142.707 306.526 145.637 306.526C148.526 306.526 149.971 308.024 149.971 311.019L149.772 312.868H143.927ZM147.347 310.84C147.347 310.045 147.221 309.495 146.969 309.19C146.717 308.872 146.273 308.713 145.637 308.713C145.014 308.713 144.57 308.879 144.305 309.21C144.053 309.528 143.92 310.072 143.907 310.84H147.347ZM159.385 309.031V316.706H156.721V309.031H155.647V306.765H156.721V306.327C156.721 304.896 156.933 303.908 157.357 303.365C157.781 302.821 158.537 302.549 159.624 302.549C160.101 302.549 160.717 302.616 161.473 302.748L161.89 302.808L161.85 304.975C161.267 304.949 160.777 304.935 160.379 304.935C159.982 304.935 159.716 305.041 159.584 305.253C159.451 305.466 159.385 305.83 159.385 306.347V306.765H161.791V309.031H159.385ZM163.809 307.898C164.512 306.983 165.685 306.526 167.328 306.526C168.972 306.526 170.145 306.983 170.848 307.898C171.55 308.799 171.901 310.072 171.901 311.715C171.901 315.201 170.377 316.944 167.328 316.944C164.28 316.944 162.755 315.201 162.755 311.715C162.755 310.072 163.107 308.799 163.809 307.898ZM165.857 313.962C166.135 314.439 166.626 314.678 167.328 314.678C168.031 314.678 168.515 314.439 168.78 313.962C169.058 313.485 169.197 312.736 169.197 311.715C169.197 310.695 169.058 309.952 168.78 309.488C168.515 309.024 168.031 308.792 167.328 308.792C166.626 308.792 166.135 309.024 165.857 309.488C165.592 309.952 165.459 310.695 165.459 311.715C165.459 312.736 165.592 313.485 165.857 313.962ZM176.518 316.706H173.854V306.765H176.499V307.321C177.4 306.791 178.228 306.526 178.984 306.526C180.309 306.526 181.224 306.917 181.728 307.699C182.231 308.481 182.483 309.687 182.483 311.318V316.706H179.819V311.397C179.819 310.549 179.72 309.926 179.521 309.528C179.322 309.117 178.924 308.912 178.328 308.912C177.784 308.912 177.261 309.005 176.757 309.19L176.518 309.27V316.706ZM190.351 309.031H187.906V313.107C187.906 313.505 187.912 313.79 187.926 313.962C187.952 314.121 188.025 314.26 188.144 314.379C188.277 314.499 188.476 314.558 188.741 314.558L190.252 314.519L190.371 316.646C189.483 316.845 188.807 316.944 188.343 316.944C187.15 316.944 186.335 316.679 185.898 316.149C185.46 315.605 185.241 314.611 185.241 313.167V309.031H184.068V306.765H185.241V304.001H187.906V306.765H190.351V309.031Z" fill="black"/>
<path fill-rule="evenodd" clip-rule="evenodd" d="M652.524 293.281C657.156 300.42 658.461 309.066 658.461 317.576V402.839C618.736 400.642 587.263 370.529 587.263 333.704C587.263 331.982 587.332 330.275 587.467 328.585H587.263V259.322C607.381 259.322 626.674 266.619 640.9 279.609C645.424 283.74 649.317 288.339 652.524 293.281Z" fill="#621E4B"/>
<path fill-rule="evenodd" clip-rule="evenodd" d="M669.054 293.281C664.422 300.42 663.117 309.066 663.117 317.576V402.838C702.841 400.642 734.315 370.529 734.315 333.704C734.315 331.982 734.246 330.275 734.111 328.585H734.315V259.322C714.197 259.322 694.903 266.619 680.678 279.608C676.154 283.739 672.26 288.338 669.054 293.281Z" fill="#892A69"/>
<path d="M611.188 362.83V342.186H618.261L623.24 359.187H623.544V342.186H627.733V362.83H620.842L615.681 345.829H615.377V362.83H611.188ZM643.987 362.83H632.237V342.186H636.427V359.127H643.987V362.83Z" fill="white"/>
<path d="M614.816 462.664V478.825H605.034V430.625H623.747C635.088 430.625 640.759 435.918 640.759 446.503C640.759 452.788 638.396 457.419 633.671 460.396L640.546 478.825H629.843L624.243 462.664H614.816ZM623.889 454.3C626.205 454.3 627.929 453.591 629.063 452.173C630.198 450.756 630.765 448.889 630.765 446.574C630.765 444.258 630.15 442.415 628.922 441.045C627.74 439.674 626.015 438.989 623.747 438.989H614.816V454.3H623.889ZM663.804 438.28C658.653 438.28 656.078 439.982 656.078 443.384C656.078 444.896 656.716 446.054 657.992 446.857C659.268 447.66 662.245 448.818 666.923 450.33C671.648 451.843 674.956 453.567 676.846 455.505C678.737 457.395 679.682 460.325 679.682 464.294C679.682 469.35 678.146 473.178 675.074 475.777C672.003 478.376 667.986 479.676 663.024 479.676C659.338 479.676 654.826 479.109 649.486 477.974L646.934 477.478L647.926 469.894C654.259 470.744 659.102 471.17 662.457 471.17C667.466 471.17 669.971 469.091 669.971 464.932C669.971 463.42 669.38 462.239 668.199 461.388C667.065 460.537 664.773 459.616 661.323 458.624C655.842 457.064 651.967 455.221 649.698 453.095C647.477 450.921 646.367 447.92 646.367 444.093C646.367 439.273 647.832 435.681 650.762 433.319C653.692 430.956 657.708 429.774 662.812 429.774C666.309 429.774 670.75 430.247 676.138 431.192L678.689 431.688L677.91 439.414C671.247 438.658 666.545 438.28 663.804 438.28ZM687.546 478.825V430.625H718.734V439.131H697.327V450.401H714.481V458.765H697.327V470.319H718.734V478.825H687.546Z" fill="black"/>
<path opacity="0.5" d="M51.2518 535.266C50.025 535.266 49.4116 535.671 49.4116 536.482C49.4116 536.842 49.5636 537.118 49.8675 537.309C50.1713 537.5 50.8804 537.776 51.9946 538.136C53.1201 538.496 53.9079 538.907 54.3581 539.369C54.8083 539.819 55.0334 540.517 55.0334 541.462C55.0334 542.666 54.6676 543.578 53.9361 544.197C53.2045 544.816 52.2479 545.125 51.0661 545.125C50.1882 545.125 49.1134 544.99 47.8416 544.72L47.2338 544.602L47.4702 542.796C48.9783 542.998 50.1319 543.1 50.931 543.1C52.124 543.1 52.7206 542.604 52.7206 541.614C52.7206 541.254 52.5799 540.972 52.2985 540.77C52.0284 540.567 51.4825 540.348 50.6609 540.111C49.3554 539.74 48.4325 539.301 47.8922 538.795C47.3633 538.277 47.0988 537.562 47.0988 536.651C47.0988 535.503 47.4477 534.647 48.1455 534.085C48.8433 533.522 49.7999 533.24 51.0154 533.24C51.8483 533.24 52.9063 533.353 54.1893 533.578L54.7971 533.696L54.6114 535.536C53.0244 535.356 51.9046 535.266 51.2518 535.266ZM57.1597 537.444C57.7562 536.667 58.7522 536.279 60.1478 536.279C61.5434 536.279 62.5395 536.667 63.136 537.444C63.7325 538.209 64.0307 539.29 64.0307 540.685C64.0307 543.645 62.7364 545.125 60.1478 545.125C57.5592 545.125 56.2649 543.645 56.2649 540.685C56.2649 539.29 56.5632 538.209 57.1597 537.444ZM58.8985 542.593C59.1349 542.998 59.5513 543.201 60.1478 543.201C60.7443 543.201 61.1551 542.998 61.3802 542.593C61.6166 542.188 61.7348 541.552 61.7348 540.685C61.7348 539.819 61.6166 539.189 61.3802 538.795C61.1551 538.401 60.7443 538.204 60.1478 538.204C59.5513 538.204 59.1349 538.401 58.8985 538.795C58.6734 539.189 58.5609 539.819 58.5609 540.685C58.5609 541.552 58.6734 542.188 58.8985 542.593ZM68.846 536.279C69.4313 536.279 70.1797 536.369 71.0913 536.549L71.5472 536.651L71.4796 538.44C70.5905 538.35 69.9321 538.305 69.5044 538.305C68.7278 538.305 68.2101 538.474 67.9512 538.812C67.7036 539.138 67.5798 539.763 67.5798 540.685C67.5798 541.608 67.7036 542.244 67.9512 542.593C68.2101 542.931 68.7335 543.1 69.5213 543.1L71.4796 542.965L71.5472 544.771C70.3429 545.007 69.4256 545.125 68.7954 545.125C67.5461 545.125 66.6457 544.777 66.0942 544.079C65.554 543.37 65.2838 542.239 65.2838 540.685C65.2838 539.132 65.5652 538.012 66.128 537.326C66.6907 536.628 67.5967 536.279 68.846 536.279ZM73.2234 544.923V536.482H75.4856V544.923H73.2234ZM73.2234 535.401V533.105H75.4856V535.401H73.2234ZM84.0417 539.115V542.627C84.0642 542.897 84.1093 543.088 84.1768 543.201C84.2443 543.302 84.385 543.375 84.5989 543.42L84.5313 545.125C83.9573 545.125 83.4959 545.086 83.147 545.007C82.8093 544.929 82.4661 544.771 82.1172 544.535C81.3068 544.929 80.4796 545.125 79.6355 545.125C77.891 545.125 77.0187 544.203 77.0187 542.357C77.0187 541.456 77.2607 540.821 77.7447 540.449C78.2286 540.066 78.9714 539.841 79.9731 539.774L81.7795 539.639V539.115C81.7795 538.767 81.7007 538.53 81.5432 538.406C81.3856 538.271 81.1324 538.204 80.7835 538.204L77.6096 538.339L77.5421 536.769C78.7463 536.442 79.8887 536.279 80.9692 536.279C82.0609 536.279 82.8431 536.504 83.3158 536.954C83.7998 537.405 84.0417 538.125 84.0417 539.115ZM80.2432 541.344C79.613 541.4 79.2978 541.738 79.2978 542.357C79.2978 542.976 79.5736 543.285 80.1251 543.285C80.5527 543.285 81.0198 543.218 81.5263 543.083L81.7795 543.015V541.209L80.2432 541.344ZM86.2996 544.923V533.105H88.5618V544.923H86.2996ZM96.7203 544.923H94.4581V536.482H96.7034V536.954C97.48 536.504 98.144 536.279 98.6955 536.279C99.6072 536.279 100.311 536.544 100.806 537.073C101.841 536.544 102.787 536.279 103.642 536.279C104.756 536.279 105.527 536.606 105.955 537.258C106.394 537.9 106.613 538.93 106.613 540.348V544.923H104.351V540.415C104.351 539.695 104.272 539.166 104.115 538.828C103.957 538.48 103.642 538.305 103.169 538.305C102.809 538.305 102.37 538.384 101.853 538.541L101.599 538.626C101.644 539.47 101.667 540.111 101.667 540.55V544.923H99.4046V540.584C99.4046 539.751 99.3314 539.166 99.1851 538.828C99.0388 538.48 98.718 538.305 98.2228 538.305C97.7839 538.305 97.3506 538.384 96.9229 538.541L96.7203 538.609V544.923ZM110.477 541.665C110.488 542.182 110.623 542.559 110.882 542.796C111.152 543.021 111.535 543.133 112.03 543.133C113.077 543.133 114.011 543.1 114.833 543.032L115.305 542.981L115.339 544.653C114.045 544.968 112.874 545.125 111.828 545.125C110.556 545.125 109.633 544.788 109.059 544.113C108.485 543.437 108.198 542.34 108.198 540.821C108.198 537.793 109.442 536.279 111.929 536.279C114.383 536.279 115.609 537.551 115.609 540.095L115.44 541.665H110.477ZM113.381 539.943C113.381 539.267 113.274 538.8 113.06 538.541C112.846 538.271 112.469 538.136 111.929 538.136C111.4 538.136 111.023 538.277 110.798 538.558C110.584 538.828 110.471 539.29 110.46 539.943H113.381ZM124.401 533.105V544.923H122.156V544.568C121.368 544.94 120.687 545.125 120.113 545.125C118.886 545.125 118.031 544.771 117.547 544.062C117.063 543.353 116.821 542.233 116.821 540.702C116.821 539.16 117.108 538.041 117.682 537.343C118.267 536.634 119.145 536.279 120.315 536.279C120.676 536.279 121.176 536.335 121.818 536.448L122.139 536.516V533.105H124.401ZM121.902 542.897L122.139 542.846V538.406C121.52 538.294 120.968 538.238 120.484 538.238C119.573 538.238 119.117 539.048 119.117 540.669C119.117 541.546 119.218 542.171 119.421 542.543C119.623 542.914 119.955 543.1 120.417 543.1C120.889 543.1 121.385 543.032 121.902 542.897ZM126.491 544.923V536.482H128.754V544.923H126.491ZM126.491 535.401V533.105H128.754V535.401H126.491ZM137.31 539.115V542.627C137.332 542.897 137.377 543.088 137.445 543.201C137.512 543.302 137.653 543.375 137.867 543.42L137.799 545.125C137.225 545.125 136.764 545.086 136.415 545.007C136.077 544.929 135.734 544.771 135.385 544.535C134.575 544.929 133.748 545.125 132.904 545.125C131.159 545.125 130.287 544.203 130.287 542.357C130.287 541.456 130.529 540.821 131.013 540.449C131.497 540.066 132.24 539.841 133.241 539.774L135.048 539.639V539.115C135.048 538.767 134.969 538.53 134.811 538.406C134.654 538.271 134.4 538.204 134.052 538.204L130.878 538.339L130.81 536.769C132.014 536.442 133.157 536.279 134.237 536.279C135.329 536.279 136.111 536.504 136.584 536.954C137.068 537.405 137.31 538.125 137.31 539.115ZM133.511 541.344C132.881 541.4 132.566 541.738 132.566 542.357C132.566 542.976 132.842 543.285 133.393 543.285C133.821 543.285 134.288 543.218 134.794 543.083L135.048 543.015V541.209L133.511 541.344ZM143.277 544.923V533.105H145.539V544.923H143.277ZM148.182 537.444C148.779 536.667 149.775 536.279 151.17 536.279C152.566 536.279 153.562 536.667 154.158 537.444C154.755 538.209 155.053 539.29 155.053 540.685C155.053 543.645 153.759 545.125 151.17 545.125C148.582 545.125 147.287 543.645 147.287 540.685C147.287 539.29 147.586 538.209 148.182 537.444ZM149.921 542.593C150.157 542.998 150.574 543.201 151.17 543.201C151.767 543.201 152.177 542.998 152.403 542.593C152.639 542.188 152.757 541.552 152.757 540.685C152.757 539.819 152.639 539.189 152.403 538.795C152.177 538.401 151.767 538.204 151.17 538.204C150.574 538.204 150.157 538.401 149.921 538.795C149.696 539.189 149.583 539.819 149.583 540.685C149.583 541.552 149.696 542.188 149.921 542.593ZM164.359 545.97C164.359 546.938 163.988 547.652 163.245 548.114C162.502 548.575 161.495 548.806 160.223 548.806C158.962 548.806 157.989 548.637 157.302 548.299C156.627 547.962 156.289 547.348 156.289 546.459C156.289 545.75 156.694 545.08 157.505 544.45C157.088 544.169 156.88 543.741 156.88 543.167C156.88 542.942 157.049 542.571 157.387 542.053L157.539 541.817C156.773 541.265 156.391 540.455 156.391 539.386C156.391 538.305 156.711 537.523 157.353 537.039C158.006 536.555 158.867 536.313 159.936 536.313C160.42 536.313 160.898 536.369 161.371 536.482L161.641 536.532L164.359 536.448V538.254L163.093 538.153C163.34 538.536 163.464 538.918 163.464 539.301C163.464 540.427 163.177 541.203 162.603 541.631C162.029 542.059 161.129 542.272 159.902 542.272C159.643 542.272 159.413 542.25 159.21 542.205C159.097 542.497 159.041 542.739 159.041 542.931C159.041 543.111 159.137 543.235 159.328 543.302C159.519 543.37 159.97 543.409 160.679 543.42C162.097 543.432 163.065 543.623 163.582 543.994C164.1 544.355 164.359 545.013 164.359 545.97ZM158.518 546.223C158.518 546.707 159.109 546.949 160.29 546.949C161.483 546.949 162.08 546.667 162.08 546.105C162.08 545.801 161.979 545.604 161.776 545.514C161.573 545.435 161.146 545.39 160.493 545.379L158.974 545.261C158.67 545.564 158.518 545.885 158.518 546.223ZM158.653 539.318C158.653 540.14 159.081 540.55 159.936 540.55C160.803 540.55 161.236 540.14 161.236 539.318C161.236 538.485 160.803 538.069 159.936 538.069C159.081 538.069 158.653 538.485 158.653 539.318ZM166.185 537.444C166.782 536.667 167.778 536.279 169.174 536.279C170.569 536.279 171.565 536.667 172.162 537.444C172.758 538.209 173.056 539.29 173.056 540.685C173.056 543.645 171.762 545.125 169.174 545.125C166.585 545.125 165.291 543.645 165.291 540.685C165.291 539.29 165.589 538.209 166.185 537.444ZM167.924 542.593C168.161 542.998 168.577 543.201 169.174 543.201C169.77 543.201 170.181 542.998 170.406 542.593C170.642 542.188 170.76 541.552 170.76 540.685C170.76 539.819 170.642 539.189 170.406 538.795C170.181 538.401 169.77 538.204 169.174 538.204C168.577 538.204 168.161 538.401 167.924 538.795C167.699 539.189 167.587 539.819 167.587 540.685C167.587 541.552 167.699 542.188 167.924 542.593ZM180.775 538.592C179.38 538.412 178.401 538.322 177.838 538.322C177.286 538.322 176.926 538.373 176.757 538.474C176.6 538.575 176.521 538.738 176.521 538.963C176.521 539.177 176.628 539.329 176.842 539.419C177.067 539.498 177.63 539.622 178.53 539.791C179.442 539.948 180.089 540.213 180.472 540.584C180.854 540.956 181.046 541.558 181.046 542.391C181.046 544.214 179.914 545.125 177.652 545.125C176.909 545.125 176.009 545.024 174.951 544.822L174.411 544.72L174.478 542.83C175.874 543.01 176.842 543.1 177.382 543.1C177.934 543.1 178.305 543.049 178.496 542.948C178.699 542.835 178.8 542.672 178.8 542.458C178.8 542.244 178.693 542.087 178.479 541.985C178.277 541.884 177.737 541.76 176.859 541.614C175.992 541.468 175.345 541.22 174.917 540.871C174.49 540.522 174.276 539.903 174.276 539.014C174.276 538.114 174.58 537.438 175.187 536.988C175.795 536.527 176.577 536.296 177.534 536.296C178.198 536.296 179.104 536.403 180.252 536.617L180.809 536.718L180.775 538.592Z" fill="black"/>
<path opacity="0.5" d="M54.9997 361.704C53.8066 361.963 52.7318 362.092 51.7751 362.092C50.8185 362.092 50.0532 361.974 49.4792 361.738C48.9052 361.501 48.455 361.124 48.1286 360.607C47.8022 360.089 47.5771 359.481 47.4533 358.783C47.3295 358.086 47.2676 357.208 47.2676 356.15C47.2676 353.933 47.5771 352.391 48.1961 351.524C48.8264 350.646 49.98 350.207 51.657 350.207C52.6249 350.207 53.7447 350.359 55.0165 350.663L54.949 352.52C53.8348 352.351 52.9063 352.267 52.1634 352.267C51.4319 352.267 50.9085 352.368 50.5934 352.571C50.2783 352.762 50.0419 353.133 49.8843 353.685C49.738 354.236 49.6649 355.176 49.6649 356.504C49.6649 357.832 49.8168 358.755 50.1207 359.273C50.4358 359.779 51.0548 360.033 51.9777 360.033C52.9119 360.033 53.9023 359.954 54.949 359.796L54.9997 361.704ZM57.0113 354.411C57.6078 353.634 58.6038 353.246 59.9994 353.246C61.395 353.246 62.3911 353.634 62.9876 354.411C63.5841 355.176 63.8824 356.257 63.8824 357.652C63.8824 360.612 62.5881 362.092 59.9994 362.092C57.4108 362.092 56.1165 360.612 56.1165 357.652C56.1165 356.257 56.4148 355.176 57.0113 354.411ZM58.7502 359.56C58.9865 359.965 59.4029 360.168 59.9994 360.168C60.5959 360.168 61.0067 359.965 61.2318 359.56C61.4682 359.155 61.5864 358.519 61.5864 357.652C61.5864 356.786 61.4682 356.155 61.2318 355.761C61.0067 355.368 60.5959 355.171 59.9994 355.171C59.4029 355.171 58.9865 355.368 58.7502 355.761C58.5251 356.155 58.4125 356.786 58.4125 357.652C58.4125 358.519 58.5251 359.155 58.7502 359.56ZM65.6419 361.89V350.072H67.9042V361.89H65.6419ZM70.5468 354.411C71.1433 353.634 72.1393 353.246 73.5349 353.246C74.9305 353.246 75.9266 353.634 76.5231 354.411C77.1196 355.176 77.4178 356.257 77.4178 357.652C77.4178 360.612 76.1235 362.092 73.5349 362.092C70.9463 362.092 69.652 360.612 69.652 357.652C69.652 356.257 69.9502 355.176 70.5468 354.411ZM72.2856 359.56C72.522 359.965 72.9384 360.168 73.5349 360.168C74.1314 360.168 74.5422 359.965 74.7673 359.56C75.0037 359.155 75.1218 358.519 75.1218 357.652C75.1218 356.786 75.0037 356.155 74.7673 355.761C74.5422 355.368 74.1314 355.171 73.5349 355.171C72.9384 355.171 72.522 355.368 72.2856 355.761C72.0605 356.155 71.948 356.786 71.948 357.652C71.948 358.519 72.0605 359.155 72.2856 359.56ZM79.0761 361.89V353.449H81.3215V354.343C82.2669 353.781 83.1672 353.415 84.0226 353.246V355.525C83.111 355.716 82.3288 355.913 81.676 356.116L81.3383 356.234V361.89H79.0761ZM91.4182 355.559C90.0226 355.379 89.0435 355.289 88.4807 355.289C87.9292 355.289 87.5691 355.339 87.4003 355.441C87.2427 355.542 87.1639 355.705 87.1639 355.93C87.1639 356.144 87.2708 356.296 87.4847 356.386C87.7098 356.465 88.2725 356.589 89.1729 356.758C90.0845 356.915 90.7317 357.18 91.1143 357.551C91.497 357.922 91.6883 358.525 91.6883 359.357C91.6883 361.181 90.5572 362.092 88.295 362.092C87.5522 362.092 86.6518 361.991 85.5938 361.788L85.0536 361.687L85.1211 359.796C86.5167 359.976 87.4847 360.066 88.0249 360.066C88.5764 360.066 88.9478 360.016 89.1391 359.914C89.3417 359.802 89.443 359.639 89.443 359.425C89.443 359.211 89.3361 359.053 89.1222 358.952C88.9197 358.851 88.3794 358.727 87.5015 358.581C86.6349 358.434 85.9878 358.187 85.5601 357.838C85.1324 357.489 84.9186 356.87 84.9186 355.981C84.9186 355.081 85.2224 354.405 85.8302 353.955C86.438 353.494 87.2202 353.263 88.1768 353.263C88.8409 353.263 89.7469 353.37 90.8949 353.584L91.452 353.685L91.4182 355.559Z" fill="black"/>
<path opacity="0.5" d="M47.7234 241.706V230.226H55.0503V232.252H50.0532V235.628H54.1387V237.654H50.0532V241.706H47.7234ZM56.6651 234.227C57.2616 233.45 58.2576 233.062 59.6532 233.062C61.0488 233.062 62.0449 233.45 62.6414 234.227C63.2379 234.992 63.5361 236.073 63.5361 237.468C63.5361 240.428 62.2418 241.908 59.6532 241.908C57.0646 241.908 55.7703 240.428 55.7703 237.468C55.7703 236.073 56.0686 234.992 56.6651 234.227ZM58.4039 239.376C58.6403 239.781 59.0567 239.984 59.6532 239.984C60.2497 239.984 60.6605 239.781 60.8856 239.376C61.122 238.971 61.2402 238.335 61.2402 237.468C61.2402 236.602 61.122 235.971 60.8856 235.577C60.6605 235.183 60.2497 234.986 59.6532 234.986C59.0567 234.986 58.6403 235.183 58.4039 235.577C58.1788 235.971 58.0663 236.602 58.0663 237.468C58.0663 238.335 58.1788 238.971 58.4039 239.376ZM67.4566 241.706H65.1944V233.265H67.4398V233.737C68.2051 233.287 68.9085 233.062 69.55 233.062C70.6755 233.062 71.4521 233.394 71.8798 234.058C72.3075 234.722 72.5213 235.746 72.5213 237.131V241.706H70.2591V237.198C70.2591 236.478 70.1747 235.949 70.0059 235.611C69.837 235.262 69.4994 235.088 68.9929 235.088C68.5315 235.088 68.0869 235.167 67.6592 235.324L67.4566 235.392V241.706ZM79.2022 235.189H77.1257V238.65C77.1257 238.988 77.1313 239.23 77.1426 239.376C77.1651 239.511 77.227 239.629 77.3283 239.73C77.4408 239.832 77.6096 239.882 77.8347 239.882L79.1178 239.849L79.2191 241.655C78.465 241.824 77.891 241.908 77.4971 241.908C76.4842 241.908 75.792 241.683 75.4206 241.233C75.0492 240.771 74.8635 239.927 74.8635 238.701V235.189H73.8674V233.265H74.8635V230.918H77.1257V233.265H79.2022V235.189Z" fill="black"/>
<path opacity="0.5" d="M54.2568 25.7149H47.7234V14.235H50.0532V23.6553H54.2568V25.7149ZM55.9397 18.2361C56.5362 17.4595 57.5322 17.0712 58.9278 17.0712C60.3234 17.0712 61.3195 17.4595 61.916 18.2361C62.5125 19.0014 62.8107 20.0819 62.8107 21.4775C62.8107 24.4375 61.5164 25.9175 58.9278 25.9175C56.3392 25.9175 55.0449 24.4375 55.0449 21.4775C55.0449 20.0819 55.3431 19.0014 55.9397 18.2361ZM57.6785 23.3852C57.9149 23.7903 58.3313 23.9929 58.9278 23.9929C59.5243 23.9929 59.9351 23.7903 60.1602 23.3852C60.3966 22.98 60.5147 22.3441 60.5147 21.4775C60.5147 20.6108 60.3966 19.9806 60.1602 19.5866C59.9351 19.1927 59.5243 18.9958 58.9278 18.9958C58.3313 18.9958 57.9149 19.1927 57.6785 19.5866C57.4534 19.9806 57.3409 20.6108 57.3409 21.4775C57.3409 22.3441 57.4534 22.98 57.6785 23.3852ZM72.1167 26.7616C72.1167 27.7295 71.7453 28.4442 71.0024 28.9056C70.2596 29.3671 69.2523 29.5978 67.9805 29.5978C66.72 29.5978 65.7464 29.429 65.0599 29.0914C64.3846 28.7537 64.047 28.1403 64.047 27.2512C64.047 26.5421 64.4521 25.8725 65.2625 25.2422C64.8461 24.9608 64.6378 24.5331 64.6378 23.9592C64.6378 23.7341 64.8067 23.3626 65.1443 22.8449L65.2962 22.6086C64.5309 22.0571 64.1483 21.2467 64.1483 20.1775C64.1483 19.0971 64.469 18.3149 65.1105 17.8309C65.7633 17.3469 66.6243 17.105 67.6935 17.105C68.1775 17.105 68.6558 17.1612 69.1285 17.2738L69.3986 17.3244L72.1167 17.24V19.0464L70.8505 18.9451C71.0981 19.3278 71.2219 19.7105 71.2219 20.0931C71.2219 21.2186 70.9349 21.9952 70.3609 22.4229C69.7869 22.8505 68.8865 23.0644 67.6598 23.0644C67.4009 23.0644 67.1702 23.0419 66.9676 22.9969C66.855 23.2895 66.7988 23.5315 66.7988 23.7228C66.7988 23.9029 66.8944 24.0267 67.0858 24.0942C67.2771 24.1617 67.7273 24.2011 68.4363 24.2124C69.8545 24.2236 70.8224 24.415 71.3401 24.7864C71.8578 25.1465 72.1167 25.8049 72.1167 26.7616ZM66.2754 27.0148C66.2754 27.4988 66.8663 27.7408 68.0481 27.7408C69.2411 27.7408 69.8376 27.4594 69.8376 26.8967C69.8376 26.5928 69.7363 26.3958 69.5337 26.3058C69.3311 26.227 68.9034 26.182 68.2506 26.1707L66.7312 26.0525C66.4274 26.3564 66.2754 26.6772 66.2754 27.0148ZM66.4105 20.11C66.4105 20.9316 66.8382 21.3424 67.6935 21.3424C68.5601 21.3424 68.9935 20.9316 68.9935 20.11C68.9935 19.2771 68.5601 18.8607 67.6935 18.8607C66.8382 18.8607 66.4105 19.2771 66.4105 20.11ZM73.943 18.2361C74.5395 17.4595 75.5355 17.0712 76.9311 17.0712C78.3267 17.0712 79.3228 17.4595 79.9193 18.2361C80.5158 19.0014 80.8141 20.0819 80.8141 21.4775C80.8141 24.4375 79.5198 25.9175 76.9311 25.9175C74.3425 25.9175 73.0482 24.4375 73.0482 21.4775C73.0482 20.0819 73.3465 19.0014 73.943 18.2361ZM75.6819 23.3852C75.9182 23.7903 76.3346 23.9929 76.9311 23.9929C77.5277 23.9929 77.9385 23.7903 78.1636 23.3852C78.3999 22.98 78.5181 22.3441 78.5181 21.4775C78.5181 20.6108 78.3999 19.9806 78.1636 19.5866C77.9385 19.1927 77.5277 18.9958 76.9311 18.9958C76.3346 18.9958 75.9182 19.1927 75.6819 19.5866C75.4568 19.9806 75.3442 20.6108 75.3442 21.4775C75.3442 22.3441 75.4568 22.98 75.6819 23.3852ZM88.5331 19.3841C87.1375 19.204 86.1583 19.1139 85.5956 19.1139C85.0441 19.1139 84.6839 19.1646 84.5151 19.2659C84.3575 19.3672 84.2788 19.5304 84.2788 19.7555C84.2788 19.9693 84.3857 20.1213 84.5995 20.2113C84.8246 20.2901 85.3874 20.4139 86.2877 20.5827C87.1994 20.7403 87.8465 21.0048 88.2292 21.3762C88.6119 21.7476 88.8032 22.3497 88.8032 23.1826C88.8032 25.0059 87.6721 25.9175 85.4099 25.9175C84.667 25.9175 83.7667 25.8162 82.7087 25.6136L82.1685 25.5123L82.236 23.6215C83.6316 23.8016 84.5995 23.8916 85.1397 23.8916C85.6912 23.8916 86.0626 23.841 86.254 23.7397C86.4566 23.6271 86.5579 23.4639 86.5579 23.2501C86.5579 23.0363 86.4509 22.8787 86.2371 22.7774C86.0345 22.6761 85.4943 22.5523 84.6164 22.406C83.7498 22.2597 83.1026 22.0121 82.6749 21.6632C82.2473 21.3143 82.0334 20.6952 82.0334 19.8061C82.0334 18.9057 82.3373 18.2304 82.9451 17.7802C83.5528 17.3188 84.335 17.0881 85.2917 17.0881C85.9557 17.0881 86.8617 17.195 88.0097 17.4088L88.5668 17.5101L88.5331 19.3841Z" fill="black"/>
<rect x="46.4741" y="383.073" width="83.6222" height="83.6222" rx="4" fill="#621E4B"/>
<rect x="144.288" y="383.073" width="83.6222" height="83.6222" rx="4" fill="#892A69"/>
<rect x="242.103" y="383.073" width="83.6222" height="83.6222" rx="4" fill="#111827"/>
<path d="M358.47 66.9466V72.899H354.867V55.1463H361.76C365.937 55.1463 368.025 57.0956 368.025 60.9942C368.025 63.309 367.155 65.0147 365.415 66.1112L367.947 72.899H364.005L361.942 66.9466H358.47ZM361.812 63.866C362.665 63.866 363.3 63.6049 363.718 63.0828C364.135 62.5606 364.344 61.8731 364.344 61.0203C364.344 60.1675 364.118 59.4887 363.666 58.984C363.23 58.4792 362.595 58.2269 361.76 58.2269H358.47V63.866H361.812ZM373.411 67.8603C373.429 68.661 373.638 69.244 374.038 69.6095C374.456 69.9576 375.047 70.1316 375.813 70.1316C377.432 70.1316 378.876 70.0794 380.147 69.975L380.878 69.8967L380.93 72.4813C378.929 72.9686 377.119 73.2123 375.5 73.2123C373.533 73.2123 372.106 72.6901 371.218 71.6459C370.331 70.6016 369.887 68.9046 369.887 66.555C369.887 61.8731 371.81 59.5322 375.657 59.5322C379.451 59.5322 381.348 61.4989 381.348 65.4324L381.087 67.8603H373.411ZM377.902 65.1974C377.902 64.1532 377.736 63.4309 377.406 63.0306C377.075 62.6128 376.492 62.404 375.657 62.404C374.839 62.404 374.255 62.6215 373.907 63.0567C373.577 63.4744 373.403 64.188 373.385 65.1974H377.902ZM393.22 63.1089C391.062 62.8304 389.548 62.6912 388.678 62.6912C387.825 62.6912 387.268 62.7695 387.007 62.9261C386.763 63.0828 386.641 63.3351 386.641 63.6832C386.641 64.0139 386.807 64.2489 387.137 64.3881C387.486 64.51 388.356 64.7014 389.748 64.9625C391.158 65.2061 392.159 65.6151 392.75 66.1895C393.342 66.7639 393.638 67.695 393.638 68.9829C393.638 71.8025 391.889 73.2123 388.391 73.2123C387.242 73.2123 385.85 73.0556 384.214 72.7423L383.378 72.5857L383.483 69.6617C385.641 69.9402 387.137 70.0794 387.973 70.0794C388.826 70.0794 389.4 70.0011 389.696 69.8445C390.009 69.6704 390.166 69.4181 390.166 69.0874C390.166 68.7567 390.001 68.513 389.67 68.3564C389.357 68.1997 388.521 68.0083 387.164 67.782C385.823 67.5558 384.823 67.1729 384.161 66.6333C383.5 66.0938 383.169 65.1365 383.169 63.7616C383.169 62.3692 383.639 61.3249 384.579 60.6287C385.519 59.9151 386.728 59.5583 388.208 59.5583C389.235 59.5583 390.636 59.7237 392.411 60.0544L393.273 60.211L393.22 63.1089ZM399.034 67.8603C399.051 68.661 399.26 69.244 399.66 69.6095C400.078 69.9576 400.67 70.1316 401.436 70.1316C403.054 70.1316 404.499 70.0794 405.77 69.975L406.5 69.8967L406.553 72.4813C404.551 72.9686 402.741 73.2123 401.122 73.2123C399.156 73.2123 397.729 72.6901 396.841 71.6459C395.953 70.6016 395.509 68.9046 395.509 66.555C395.509 61.8731 397.433 59.5322 401.279 59.5322C405.073 59.5322 406.97 61.4989 406.97 65.4324L406.709 67.8603H399.034ZM403.524 65.1974C403.524 64.1532 403.359 63.4309 403.028 63.0306C402.698 62.6128 402.115 62.404 401.279 62.404C400.461 62.404 399.878 62.6215 399.53 63.0567C399.199 63.4744 399.025 64.188 399.008 65.1974H403.524ZM419.47 63.9182V69.3484C419.504 69.7662 419.574 70.062 419.678 70.2361C419.783 70.3927 420 70.5058 420.331 70.5755L420.227 73.2123C419.339 73.2123 418.625 73.1514 418.086 73.0295C417.564 72.9077 417.033 72.664 416.493 72.2985C415.24 72.9077 413.961 73.2123 412.656 73.2123C409.958 73.2123 408.609 71.7851 408.609 68.9307C408.609 67.5384 408.983 66.555 409.732 65.9806C410.48 65.3889 411.629 65.0408 413.178 64.9364L415.971 64.7275V63.9182C415.971 63.3786 415.849 63.0132 415.606 62.8217C415.362 62.6128 414.97 62.5084 414.431 62.5084L409.523 62.7173L409.418 60.2893C411.281 59.7846 413.047 59.5322 414.718 59.5322C416.406 59.5322 417.616 59.8803 418.347 60.5765C419.095 61.2727 419.47 62.3866 419.47 63.9182ZM413.595 67.3643C412.621 67.4513 412.133 67.9735 412.133 68.9307C412.133 69.888 412.56 70.3666 413.413 70.3666C414.074 70.3666 414.796 70.2622 415.58 70.0533L415.971 69.9489V67.1555L413.595 67.3643ZM422.804 72.899V59.8455H426.277V61.2292C427.739 60.3589 429.131 59.7933 430.454 59.5322V63.0567C429.044 63.3525 427.834 63.6571 426.825 63.9704L426.303 64.1532V72.899H422.804ZM437.4 59.5322C438.305 59.5322 439.463 59.6715 440.872 59.9499L441.577 60.1066L441.473 62.8739C440.098 62.7347 439.08 62.6651 438.418 62.6651C437.217 62.6651 436.417 62.9261 436.016 63.4483C435.634 63.953 435.442 64.919 435.442 66.3461C435.442 67.7733 435.634 68.7567 436.016 69.2962C436.417 69.8184 437.226 70.0794 438.444 70.0794L441.473 69.8706L441.577 72.664C439.715 73.0295 438.296 73.2123 437.322 73.2123C435.39 73.2123 433.998 72.6727 433.145 71.5936C432.309 70.4971 431.892 68.748 431.892 66.3461C431.892 63.9443 432.327 62.2125 433.197 61.1509C434.067 60.0718 435.468 59.5322 437.4 59.5322ZM447.668 72.899H444.169V54.6241H447.668V60.4721C448.869 59.8455 449.948 59.5322 450.905 59.5322C452.645 59.5322 453.846 60.0457 454.508 61.0725C455.169 62.0994 455.5 63.6832 455.5 65.824V72.899H452.001V65.9023C452.001 64.8058 451.871 63.9965 451.61 63.4744C451.349 62.9348 450.827 62.6651 450.043 62.6651C449.365 62.6651 448.686 62.7695 448.007 62.9783L447.668 63.0828V72.899ZM360.324 86.9658C358.427 86.9658 357.478 87.5924 357.478 88.8455C357.478 89.4025 357.713 89.8289 358.183 90.1247C358.653 90.4206 359.749 90.847 361.473 91.404C363.213 91.9609 364.431 92.5962 365.127 93.3098C365.824 94.006 366.172 95.0851 366.172 96.5471C366.172 98.4094 365.606 99.8191 364.475 100.776C363.344 101.734 361.864 102.212 360.037 102.212C358.679 102.212 357.017 102.003 355.05 101.586L354.11 101.403L354.476 98.6095C356.808 98.9228 358.592 99.0794 359.828 99.0794C361.673 99.0794 362.595 98.3136 362.595 96.782C362.595 96.2251 362.378 95.79 361.942 95.4767C361.525 95.1634 360.681 94.824 359.41 94.4585C357.391 93.8842 355.964 93.2054 355.129 92.4222C354.311 91.6215 353.902 90.5164 353.902 89.1066C353.902 87.3313 354.441 86.0086 355.52 85.1383C356.599 84.2681 358.079 83.833 359.958 83.833C361.246 83.833 362.882 84.007 364.866 84.3551L365.806 84.5379L365.519 87.3835C363.065 87.105 361.333 86.9658 360.324 86.9658ZM369.46 90.3336C370.382 89.1327 371.923 88.5322 374.081 88.5322C376.239 88.5322 377.779 89.1327 378.702 90.3336C379.624 91.5171 380.085 93.188 380.085 95.3461C380.085 99.9236 378.084 102.212 374.081 102.212C370.078 102.212 368.076 99.9236 368.076 95.3461C368.076 93.188 368.537 91.5171 369.46 90.3336ZM372.149 98.2962C372.514 98.9228 373.158 99.2361 374.081 99.2361C375.003 99.2361 375.638 98.9228 375.987 98.2962C376.352 97.6697 376.535 96.6863 376.535 95.3461C376.535 94.006 376.352 93.0313 375.987 92.4222C375.638 91.813 375.003 91.5084 374.081 91.5084C373.158 91.5084 372.514 91.813 372.149 92.4222C371.801 93.0313 371.627 94.006 371.627 95.3461C371.627 96.6863 371.801 97.6697 372.149 98.2962ZM386.775 91.8217V101.899H383.276V91.8217H381.867V88.8455H383.276V88.2712C383.276 86.3915 383.555 85.0948 384.112 84.3812C384.669 83.6676 385.661 83.3108 387.088 83.3108C387.715 83.3108 388.524 83.3979 389.516 83.5719L390.064 83.6502L390.012 86.4959C389.246 86.4611 388.602 86.4437 388.08 86.4437C387.558 86.4437 387.21 86.5829 387.036 86.8614C386.862 87.1399 386.775 87.6185 386.775 88.2973V88.8455H389.934V91.8217H386.775ZM399.213 91.8217H396.001V97.1736C396.001 97.6958 396.01 98.07 396.028 98.2962C396.062 98.5051 396.158 98.6878 396.315 98.8445C396.489 99.0011 396.75 99.0794 397.098 99.0794L399.082 99.0272L399.239 101.821C398.073 102.082 397.185 102.212 396.576 102.212C395.009 102.212 393.939 101.864 393.365 101.168C392.79 100.454 392.503 99.1491 392.503 97.2519V91.8217H390.963V88.8455H392.503V85.2166H396.001V88.8455H399.213V91.8217ZM400.499 88.8455H403.945L405.537 98.9228H406.164L408.148 89.1066H411.751L413.735 98.9228H414.361L415.954 88.8455H419.4L416.92 101.899H411.437L409.949 93.9103L408.461 101.899H402.979L400.499 88.8455ZM431.656 92.9182V98.3484C431.691 98.7662 431.761 99.062 431.865 99.2361C431.969 99.3927 432.187 99.5058 432.518 99.5755L432.413 102.212C431.526 102.212 430.812 102.151 430.273 102.03C429.75 101.908 429.22 101.664 428.68 101.299C427.427 101.908 426.148 102.212 424.842 102.212C422.145 102.212 420.796 100.785 420.796 97.9307C420.796 96.5384 421.17 95.555 421.918 94.9806C422.667 94.3889 423.815 94.0408 425.364 93.9364L428.158 93.7275V92.9182C428.158 92.3786 428.036 92.0132 427.792 91.8217C427.549 91.6128 427.157 91.5084 426.618 91.5084L421.709 91.7173L421.605 89.2893C423.467 88.7846 425.234 88.5322 426.905 88.5322C428.593 88.5322 429.803 88.8803 430.534 89.5765C431.282 90.2727 431.656 91.3866 431.656 92.9182ZM425.782 96.3643C424.807 96.4513 424.32 96.9735 424.32 97.9307C424.32 98.888 424.747 99.3666 425.599 99.3666C426.261 99.3666 426.983 99.2622 427.766 99.0533L428.158 98.9489V96.1555L425.782 96.3643ZM434.991 101.899V88.8455H438.463V90.2292C439.925 89.3589 441.318 88.7933 442.64 88.5322V92.0567C441.231 92.3525 440.021 92.6571 439.012 92.9704L438.489 93.1532V101.899H434.991ZM447.577 96.8603C447.594 97.661 447.803 98.244 448.203 98.6095C448.621 98.9576 449.213 99.1316 449.978 99.1316C451.597 99.1316 453.042 99.0794 454.312 98.975L455.043 98.8967L455.095 101.481C453.094 101.969 451.284 102.212 449.665 102.212C447.698 102.212 446.271 101.69 445.384 100.646C444.496 99.6016 444.052 97.9046 444.052 95.555C444.052 90.8731 445.975 88.5322 449.822 88.5322C453.616 88.5322 455.513 90.4989 455.513 94.4324L455.252 96.8603H447.577ZM452.067 94.1974C452.067 93.1532 451.902 92.4309 451.571 92.0306C451.24 91.6128 450.657 91.404 449.822 91.404C449.004 91.404 448.421 91.6215 448.073 92.0567C447.742 92.4744 447.568 93.188 447.55 94.1974H452.067ZM354.867 130.899V113.146H366.355V116.279H358.47V120.43H364.788V123.511H358.47V127.766H366.355V130.899H354.867ZM372.508 130.899H369.01V117.846H372.482V118.577C373.666 117.88 374.753 117.532 375.745 117.532C377.486 117.532 378.687 118.046 379.348 119.073C380.01 120.099 380.34 121.683 380.34 123.824V130.899H376.842V123.928C376.842 122.815 376.711 121.997 376.45 121.474C376.189 120.935 375.667 120.665 374.884 120.665C374.17 120.665 373.483 120.787 372.822 121.031L372.508 121.135V130.899ZM395.267 132.518C395.267 134.014 394.692 135.12 393.543 135.833C392.395 136.547 390.837 136.904 388.87 136.904C386.921 136.904 385.416 136.643 384.354 136.12C383.31 135.598 382.787 134.65 382.787 133.275C382.787 132.178 383.414 131.143 384.667 130.168C384.023 129.733 383.701 129.071 383.701 128.184C383.701 127.836 383.962 127.261 384.484 126.461L384.719 126.095C383.536 125.242 382.944 123.989 382.944 122.336C382.944 120.665 383.44 119.455 384.432 118.707C385.442 117.959 386.773 117.584 388.427 117.584C389.175 117.584 389.915 117.671 390.646 117.846L391.063 117.924L395.267 117.793V120.587L393.309 120.43C393.691 121.022 393.883 121.614 393.883 122.205C393.883 123.946 393.439 125.147 392.551 125.808C391.664 126.47 390.271 126.8 388.374 126.8C387.974 126.8 387.617 126.765 387.304 126.696C387.13 127.148 387.043 127.522 387.043 127.818C387.043 128.097 387.191 128.288 387.487 128.393C387.783 128.497 388.479 128.558 389.575 128.575C391.768 128.593 393.265 128.889 394.066 129.463C394.866 130.02 395.267 131.038 395.267 132.518ZM386.234 132.909C386.234 133.658 387.147 134.032 388.975 134.032C390.82 134.032 391.742 133.597 391.742 132.726C391.742 132.257 391.585 131.952 391.272 131.813C390.959 131.691 390.298 131.621 389.288 131.604L386.938 131.421C386.469 131.891 386.234 132.387 386.234 132.909ZM386.442 122.231C386.442 123.502 387.104 124.137 388.427 124.137C389.767 124.137 390.437 123.502 390.437 122.231C390.437 120.944 389.767 120.3 388.427 120.3C387.104 120.3 386.442 120.944 386.442 122.231ZM397.386 130.899V117.846H400.884V130.899H397.386ZM397.386 116.175V112.624H400.884V116.175H397.386ZM407.615 130.899H404.117V117.846H407.589V118.577C408.772 117.88 409.86 117.532 410.852 117.532C412.593 117.532 413.794 118.046 414.455 119.073C415.116 120.099 415.447 121.683 415.447 123.824V130.899H411.949V123.928C411.949 122.815 411.818 121.997 411.557 121.474C411.296 120.935 410.774 120.665 409.991 120.665C409.277 120.665 408.59 120.787 407.928 121.031L407.615 121.135V130.899ZM421.419 125.86C421.436 126.661 421.645 127.244 422.045 127.61C422.463 127.958 423.055 128.132 423.82 128.132C425.439 128.132 426.884 128.079 428.154 127.975L428.885 127.897L428.937 130.481C426.936 130.969 425.126 131.212 423.507 131.212C421.54 131.212 420.113 130.69 419.226 129.646C418.338 128.602 417.894 126.905 417.894 124.555C417.894 119.873 419.817 117.532 423.664 117.532C427.458 117.532 429.355 119.499 429.355 123.432L429.094 125.86H421.419ZM425.909 123.197C425.909 122.153 425.744 121.431 425.413 121.031C425.082 120.613 424.499 120.404 423.664 120.404C422.846 120.404 422.263 120.622 421.915 121.057C421.584 121.474 421.41 122.188 421.392 123.197H425.909ZM434.727 125.86C434.744 126.661 434.953 127.244 435.354 127.61C435.771 127.958 436.363 128.132 437.129 128.132C438.747 128.132 440.192 128.079 441.463 127.975L442.194 127.897L442.246 130.481C440.244 130.969 438.434 131.212 436.816 131.212C434.849 131.212 433.422 130.69 432.534 129.646C431.646 128.602 431.203 126.905 431.203 124.555C431.203 119.873 433.126 117.532 436.972 117.532C440.766 117.532 442.664 119.499 442.664 123.432L442.402 125.86H434.727ZM439.217 123.197C439.217 122.153 439.052 121.431 438.721 121.031C438.391 120.613 437.808 120.404 436.972 120.404C436.154 120.404 435.571 120.622 435.223 121.057C434.892 121.474 434.718 122.188 434.701 123.197H439.217ZM445.164 130.899V117.846H448.636V119.229C450.098 118.359 451.49 117.793 452.813 117.532V121.057C451.403 121.353 450.194 121.657 449.184 121.97L448.662 122.153V130.899H445.164ZM464.25 121.109C462.092 120.83 460.577 120.691 459.707 120.691C458.854 120.691 458.297 120.769 458.036 120.926C457.793 121.083 457.671 121.335 457.671 121.683C457.671 122.014 457.836 122.249 458.167 122.388C458.515 122.51 459.385 122.701 460.777 122.962C462.187 123.206 463.188 123.615 463.78 124.189C464.372 124.764 464.667 125.695 464.667 126.983C464.667 129.802 462.918 131.212 459.42 131.212C458.271 131.212 456.879 131.056 455.243 130.742L454.407 130.586L454.512 127.662C456.67 127.94 458.167 128.079 459.002 128.079C459.855 128.079 460.429 128.001 460.725 127.844C461.039 127.67 461.195 127.418 461.195 127.087C461.195 126.757 461.03 126.513 460.699 126.356C460.386 126.2 459.55 126.008 458.193 125.782C456.853 125.556 455.852 125.173 455.191 124.633C454.529 124.094 454.199 123.137 454.199 121.762C454.199 120.369 454.668 119.325 455.608 118.629C456.548 117.915 457.758 117.558 459.237 117.558C460.264 117.558 461.665 117.724 463.44 118.054L464.302 118.211L464.25 121.109Z" fill="#0D0D0D"/>
<path fill-rule="evenodd" clip-rule="evenodd" d="M279.273 71.9371C282.202 76.452 283.028 81.9199 283.028 87.3018V141.224C257.905 139.835 238 120.791 238 97.5014C238 96.4125 238.044 95.333 238.129 94.2642H238V50.4603C250.723 50.4603 262.925 55.0755 271.921 63.2902C274.783 65.9027 277.245 68.8113 279.273 71.9371Z" fill="#621E4B"/>
<path fill-rule="evenodd" clip-rule="evenodd" d="M289.727 71.9366C286.798 76.4515 285.972 81.9194 285.972 87.3013V141.224C311.095 139.834 331 120.79 331 97.5009C331 96.412 330.956 95.3325 330.871 94.2637H331V50.4598C318.277 50.4598 306.075 55.0749 297.079 63.2897C294.217 65.9022 291.755 68.8108 289.727 71.9366Z" fill="#892A69"/>
<path d="M253.131 116.419V103.363H257.604L260.753 114.115H260.945V103.363H263.595V116.419H259.236L255.972 105.667H255.78V116.419H253.131ZM273.874 116.419H266.443V103.363H269.093V114.077H273.874V116.419Z" fill="white"/>
<path fill-rule="evenodd" clip-rule="evenodd" d="M85.5526 650.342C87.6444 652.334 88.7835 655.071 89.5311 657.862L96.5792 684.166C85.1157 686.505 73.6691 679.535 70.6005 668.083C70.457 667.547 70.3343 667.011 70.2319 666.475L70.1739 666.491L64.4023 644.951C70.1151 643.42 76.202 644.222 81.3238 647.179C82.8665 648.07 84.2836 649.134 85.5526 650.342Z" fill="#621E4B"/>
<path fill-rule="evenodd" clip-rule="evenodd" d="M97.7326 650.339C95.6378 652.333 94.4979 655.073 93.7505 657.867L86.7686 683.968C98.6389 687.018 109.612 679.535 112.681 668.083C112.824 667.547 112.947 667.011 113.049 666.475L113.107 666.491L118.879 644.951C113.166 643.42 107.079 644.222 101.957 647.179C100.416 648.069 99.0006 649.132 97.7326 650.339Z" fill="#892A69"/>
<g filter="url(#filter1_b_0_1)">
<circle cx="105.635" cy="635.847" r="59.1608" fill="#F5F5F5" fill-opacity="0.66"/>
</g>
<path fill-rule="evenodd" clip-rule="evenodd" d="M102.585 606.375C104.294 609.009 104.776 612.199 104.776 615.339V646.799C90.1183 645.989 78.5054 634.878 78.5054 621.29C78.5054 620.655 78.5308 620.025 78.5807 619.401H78.5054V593.845C85.9283 593.845 93.0473 596.538 98.2961 601.33C99.9653 602.855 101.402 604.551 102.585 606.375Z" fill="#621E4B"/>
<path fill-rule="evenodd" clip-rule="evenodd" d="M108.684 606.375C106.975 609.009 106.494 612.199 106.494 615.339V646.799C121.151 645.988 132.764 634.877 132.764 621.29C132.764 620.655 132.739 620.025 132.689 619.401H132.764V593.845C125.341 593.845 118.222 596.537 112.973 601.33C111.304 602.854 109.868 604.551 108.684 606.375Z" fill="#892A69"/>
<path d="M81.4538 673.125V681.534H76.3641V656.454H86.101C92.0021 656.454 94.9527 659.208 94.9527 664.715C94.9527 667.986 93.7233 670.395 91.2645 671.944L94.8421 681.534H89.2728L86.3591 673.125H81.4538ZM86.1747 668.772C87.3796 668.772 88.277 668.404 88.8671 667.666C89.4573 666.928 89.7523 665.957 89.7523 664.752C89.7523 663.548 89.4327 662.589 88.7934 661.876C88.1787 661.162 87.2812 660.806 86.101 660.806H81.4538V668.772H86.1747ZM106.944 660.437C104.264 660.437 102.924 661.322 102.924 663.093C102.924 663.879 103.256 664.482 103.919 664.9C104.583 665.318 106.132 665.92 108.567 666.707C111.025 667.494 112.747 668.391 113.73 669.399C114.714 670.383 115.205 671.907 115.205 673.973C115.205 676.604 114.406 678.595 112.808 679.948C111.21 681.3 109.12 681.976 106.538 681.976C104.62 681.976 102.272 681.681 99.4935 681.091L98.1658 680.833L98.6821 676.887C101.977 677.329 104.497 677.55 106.243 677.55C108.849 677.55 110.153 676.469 110.153 674.305C110.153 673.518 109.845 672.903 109.23 672.461C108.64 672.018 107.448 671.539 105.653 671.022C102.801 670.211 100.784 669.252 99.6042 668.145C98.4485 667.014 97.8707 665.453 97.8707 663.461C97.8707 660.953 98.633 659.085 100.157 657.855C101.682 656.626 103.772 656.011 106.427 656.011C108.247 656.011 110.558 656.257 113.361 656.749L114.689 657.007L114.283 661.027C110.816 660.634 108.37 660.437 106.944 660.437ZM119.297 681.534V656.454H135.525V660.88H124.387V666.744H133.313V671.096H124.387V677.108H135.525V681.534H119.297Z" fill="black"/>
<path d="M88.1922 634.492V626.875H90.8022L92.6393 633.148H92.7514V626.875H94.2972V634.492H91.7544L89.8501 628.219H89.7381V634.492H88.1922ZM100.294 634.492H95.9591V626.875H97.505V633.125H100.294V634.492Z" fill="white"/>
<path fill-rule="evenodd" clip-rule="evenodd" d="M236.355 650.342C238.447 652.334 239.586 655.071 240.333 657.862L247.381 684.166C235.918 686.505 224.471 679.535 221.403 668.083C221.259 667.547 221.137 667.011 221.034 666.475L220.976 666.491L215.205 644.951C220.917 643.42 227.004 644.222 232.126 647.179C233.669 648.07 235.086 649.134 236.355 650.342Z" fill="#621E4B"/>
<path fill-rule="evenodd" clip-rule="evenodd" d="M248.535 650.339C246.44 652.333 245.301 655.073 244.553 657.867L237.571 683.968C249.442 687.018 260.415 679.535 263.483 668.083C263.627 667.547 263.75 667.011 263.852 666.475L263.91 666.491L269.682 644.951C263.969 643.42 257.882 644.222 252.76 647.179C251.219 648.069 249.803 649.132 248.535 650.339Z" fill="#892A69"/>
<g filter="url(#filter2_b_0_1)">
<circle cx="256.437" cy="635.847" r="59.1608" fill="white"/>
<circle cx="256.437" cy="635.847" r="60.1608" stroke="white" stroke-width="2"/>
</g>
<path fill-rule="evenodd" clip-rule="evenodd" d="M253.387 606.375C255.096 609.009 255.578 612.199 255.578 615.339V646.799C240.921 645.989 229.308 634.878 229.308 621.29C229.308 620.655 229.333 620.025 229.383 619.401H229.308V593.845C236.731 593.845 243.85 596.538 249.098 601.33C250.768 602.855 252.204 604.551 253.387 606.375Z" fill="#621E4B"/>
<path fill-rule="evenodd" clip-rule="evenodd" d="M259.487 606.375C257.778 609.009 257.296 612.199 257.296 615.339V646.799C271.954 645.988 283.566 634.877 283.566 621.29C283.566 620.655 283.541 620.025 283.491 619.401H283.566V593.845C276.143 593.845 269.025 596.537 263.776 601.33C262.106 602.854 260.67 604.551 259.487 606.375Z" fill="#892A69"/>
<path d="M232.256 673.125V681.534H227.166V656.454H236.903C242.804 656.454 245.755 659.208 245.755 664.715C245.755 667.986 244.526 670.395 242.067 671.944L245.644 681.534H240.075L237.161 673.125H232.256ZM236.977 668.772C238.182 668.772 239.079 668.404 239.669 667.666C240.259 666.928 240.555 665.957 240.555 664.752C240.555 663.548 240.235 662.589 239.596 661.876C238.981 661.162 238.083 660.806 236.903 660.806H232.256V668.772H236.977ZM257.746 660.437C255.066 660.437 253.726 661.322 253.726 663.093C253.726 663.879 254.058 664.482 254.722 664.9C255.386 665.318 256.935 665.92 259.369 666.707C261.828 667.494 263.549 668.391 264.532 669.399C265.516 670.383 266.008 671.907 266.008 673.973C266.008 676.604 265.209 678.595 263.61 679.948C262.012 681.3 259.922 681.976 257.34 681.976C255.422 681.976 253.074 681.681 250.296 681.091L248.968 680.833L249.484 676.887C252.779 677.329 255.299 677.55 257.045 677.55C259.652 677.55 260.955 676.469 260.955 674.305C260.955 673.518 260.647 672.903 260.033 672.461C259.443 672.018 258.25 671.539 256.455 671.022C253.603 670.211 251.587 669.252 250.406 668.145C249.251 667.014 248.673 665.453 248.673 663.461C248.673 660.953 249.435 659.085 250.96 657.855C252.484 656.626 254.574 656.011 257.23 656.011C259.049 656.011 261.36 656.257 264.164 656.749L265.491 657.007L265.086 661.027C261.619 660.634 259.172 660.437 257.746 660.437ZM270.1 681.534V656.454H286.328V660.88H275.189V666.744H284.115V671.096H275.189V677.108H286.328V681.534H270.1Z" fill="black"/>
<path d="M238.994 634.492V626.875H241.604L243.441 633.148H243.553V626.875H245.099V634.492H242.556L240.652 628.219H240.54V634.492H238.994ZM251.096 634.492H246.761V626.875H248.307V633.125H251.096V634.492Z" fill="white"/>
<path fill-rule="evenodd" clip-rule="evenodd" d="M395.944 650.342C398.036 652.334 399.175 655.071 399.923 657.862L406.971 684.166C395.507 686.505 384.061 679.535 380.992 668.083C380.849 667.547 380.726 667.011 380.623 666.475L380.566 666.491L374.794 644.951C380.507 643.42 386.594 644.222 391.715 647.179C393.258 648.07 394.675 649.134 395.944 650.342Z" fill="#621E4B"/>
<path fill-rule="evenodd" clip-rule="evenodd" d="M408.124 650.339C406.029 652.333 404.889 655.073 404.142 657.867L397.16 683.968C409.03 687.018 420.004 679.535 423.072 668.083C423.216 667.547 423.339 667.011 423.441 666.475L423.499 666.491L429.271 644.951C423.558 643.42 417.471 644.222 412.349 647.179C410.808 648.069 409.392 649.132 408.124 650.339Z" fill="#892A69"/>
<g filter="url(#filter3_b_0_1)">
<circle cx="416.026" cy="635.847" r="59.1608" fill="#111827"/>
</g>
<path fill-rule="evenodd" clip-rule="evenodd" d="M412.977 606.375C414.686 609.009 415.167 612.199 415.167 615.339V646.799C400.51 645.989 388.897 634.878 388.897 621.29C388.897 620.655 388.922 620.025 388.972 619.401H388.897V593.845C396.32 593.845 403.439 596.538 408.688 601.33C410.357 602.855 411.794 604.551 412.977 606.375Z" fill="#621E4B"/>
<path fill-rule="evenodd" clip-rule="evenodd" d="M419.076 606.375C417.367 609.009 416.885 612.199 416.885 615.339V646.799C431.543 645.988 443.156 634.877 443.156 621.29C443.156 620.655 443.13 620.025 443.08 619.401H443.156V593.845C435.733 593.845 428.614 596.537 423.365 601.33C421.696 602.854 420.259 604.551 419.076 606.375Z" fill="#892A69"/>
<path d="M391.845 673.125V681.534H386.756V656.454H396.493C402.394 656.454 405.344 659.208 405.344 664.715C405.344 667.986 404.115 670.395 401.656 671.944L405.234 681.534H399.664L396.751 673.125H391.845ZM396.566 668.772C397.771 668.772 398.669 668.404 399.259 667.666C399.849 666.928 400.144 665.957 400.144 664.752C400.144 663.548 399.824 662.589 399.185 661.876C398.57 661.162 397.673 660.806 396.493 660.806H391.845V668.772H396.566ZM417.335 660.437C414.655 660.437 413.315 661.322 413.315 663.093C413.315 663.879 413.647 664.482 414.311 664.9C414.975 665.318 416.524 665.92 418.958 666.707C421.417 667.494 423.138 668.391 424.122 669.399C425.105 670.383 425.597 671.907 425.597 673.973C425.597 676.604 424.798 678.595 423.2 679.948C421.601 681.3 419.511 681.976 416.93 681.976C415.012 681.976 412.664 681.681 409.885 681.091L408.557 680.833L409.074 676.887C412.369 677.329 414.889 677.55 416.635 677.55C419.241 677.55 420.544 676.469 420.544 674.305C420.544 673.518 420.237 672.903 419.622 672.461C419.032 672.018 417.839 671.539 416.044 671.022C413.192 670.211 411.176 669.252 409.996 668.145C408.84 667.014 408.262 665.453 408.262 663.461C408.262 660.953 409.025 659.085 410.549 657.855C412.073 656.626 414.163 656.011 416.819 656.011C418.639 656.011 420.95 656.257 423.753 656.749L425.081 657.007L424.675 661.027C421.208 660.634 418.761 660.437 417.335 660.437ZM429.689 681.534V656.454H445.917V660.88H434.779V666.744H443.704V671.096H434.779V677.108H445.917V681.534H429.689Z" fill="#F5F4F4"/>
<path d="M398.584 634.492V626.875H401.194L403.031 633.148H403.143V626.875H404.689V634.492H402.146L400.242 628.219H400.13V634.492H398.584ZM410.686 634.492H406.351V626.875H407.897V633.125H410.686V634.492Z" fill="white"/>
<path fill-rule="evenodd" clip-rule="evenodd" d="M602.78 650.342C604.871 652.334 606.011 655.071 606.758 657.862L613.806 684.166C602.343 686.505 590.896 679.535 587.828 668.083C587.684 667.547 587.561 667.011 587.459 666.475L587.401 666.491L581.629 644.951C587.342 643.42 593.429 644.222 598.551 647.179C600.094 648.07 601.511 649.134 602.78 650.342Z" fill="#621E4B"/>
<path fill-rule="evenodd" clip-rule="evenodd" d="M614.96 650.339C612.865 652.333 611.725 655.073 610.978 657.867L603.996 683.968C615.866 687.018 626.84 679.535 629.908 668.083C630.052 667.547 630.174 667.011 630.277 666.475L630.335 666.491L636.106 644.951C630.394 643.42 624.307 644.222 619.185 647.179C617.644 648.069 616.228 649.132 614.96 650.339Z" fill="#892A69"/>
<g filter="url(#filter4_b_0_1)">
<rect x="562.863" y="577.768" width="119.998" height="119.998" fill="#F5F5F5" fill-opacity="0.66"/>
</g>
<path fill-rule="evenodd" clip-rule="evenodd" d="M619.812 606.375C621.521 609.009 622.003 612.199 622.003 615.339V646.799C607.345 645.989 595.732 634.878 595.732 621.29C595.732 620.655 595.758 620.025 595.808 619.401H595.732V593.845C603.155 593.845 610.274 596.538 615.523 601.33C617.192 602.855 618.629 604.551 619.812 606.375Z" fill="#621E4B"/>
<path fill-rule="evenodd" clip-rule="evenodd" d="M625.911 606.375C624.203 609.009 623.721 612.199 623.721 615.339V646.799C638.378 645.988 649.991 634.877 649.991 621.29C649.991 620.655 649.966 620.025 649.916 619.401H649.991V593.845C642.568 593.845 635.449 596.537 630.201 601.33C628.531 602.854 627.095 604.551 625.911 606.375Z" fill="#892A69"/>
<path d="M598.681 673.125V681.534H593.591V656.454H603.328C609.229 656.454 612.18 659.208 612.18 664.715C612.18 667.986 610.95 670.395 608.492 671.944L612.069 681.534H606.5L603.586 673.125H598.681ZM603.402 668.772C604.607 668.772 605.504 668.404 606.094 667.666C606.684 666.928 606.979 665.957 606.979 664.752C606.979 663.548 606.66 662.589 606.02 661.876C605.406 661.162 604.508 660.806 603.328 660.806H598.681V668.772H603.402ZM624.171 660.437C621.491 660.437 620.151 661.322 620.151 663.093C620.151 663.879 620.483 664.482 621.146 664.9C621.81 665.318 623.359 665.92 625.794 666.707C628.252 667.494 629.974 668.391 630.957 669.399C631.941 670.383 632.432 671.907 632.432 673.973C632.432 676.604 631.633 678.595 630.035 679.948C628.437 681.3 626.347 681.976 623.765 681.976C621.847 681.976 619.499 681.681 616.721 681.091L615.393 680.833L615.909 676.887C619.204 677.329 621.724 677.55 623.47 677.55C626.076 677.55 627.38 676.469 627.38 674.305C627.38 673.518 627.072 672.903 626.458 672.461C625.867 672.018 624.675 671.539 622.88 671.022C620.028 670.211 618.011 669.252 616.831 668.145C615.676 667.014 615.098 665.453 615.098 663.461C615.098 660.953 615.86 659.085 617.384 657.855C618.909 656.626 620.999 656.011 623.654 656.011C625.474 656.011 627.785 656.257 630.588 656.749L631.916 657.007L631.51 661.027C628.043 660.634 625.597 660.437 624.171 660.437ZM636.524 681.534V656.454H652.753V660.88H641.614V666.744H650.54V671.096H641.614V677.108H652.753V681.534H636.524Z" fill="black"/>
<path d="M605.419 634.492V626.875H608.029L609.866 633.148H609.978V626.875H611.524V634.492H608.981L607.077 628.219H606.965V634.492H605.419ZM617.521 634.492H613.186V626.875H614.732V633.125H617.521V634.492Z" fill="white"/>
</g>
<defs>
<filter id="filter0_b_0_1" x="-63.2535" y="-64.2535" width="964.507" height="899.507" filterUnits="userSpaceOnUse" color-interpolation-filters="sRGB">
<feFlood flood-opacity="0" result="BackgroundImageFix"/>
<feGaussianBlur in="BackgroundImage" stdDeviation="31.6268"/>
<feComposite in2="SourceAlpha" operator="in" result="effect1_backgroundBlur_0_1"/>
<feBlend mode="normal" in="SourceGraphic" in2="effect1_backgroundBlur_0_1" result="shape"/>
</filter>
<filter id="filter1_b_0_1" x="2.47412" y="532.686" width="206.322" height="206.322" filterUnits="userSpaceOnUse" color-interpolation-filters="sRGB">
<feFlood flood-opacity="0" result="BackgroundImageFix"/>
<feGaussianBlur in="BackgroundImage" stdDeviation="22"/>
<feComposite in2="SourceAlpha" operator="in" result="effect1_backgroundBlur_0_1"/>
<feBlend mode="normal" in="SourceGraphic" in2="effect1_backgroundBlur_0_1" result="shape"/>
</filter>
<filter id="filter2_b_0_1" x="151.276" y="530.686" width="210.322" height="210.322" filterUnits="userSpaceOnUse" color-interpolation-filters="sRGB">
<feFlood flood-opacity="0" result="BackgroundImageFix"/>
<feGaussianBlur in="BackgroundImage" stdDeviation="22"/>
<feComposite in2="SourceAlpha" operator="in" result="effect1_backgroundBlur_0_1"/>
<feBlend mode="normal" in="SourceGraphic" in2="effect1_backgroundBlur_0_1" result="shape"/>
</filter>
<filter id="filter3_b_0_1" x="312.866" y="532.686" width="206.322" height="206.322" filterUnits="userSpaceOnUse" color-interpolation-filters="sRGB">
<feFlood flood-opacity="0" result="BackgroundImageFix"/>
<feGaussianBlur in="BackgroundImage" stdDeviation="22"/>
<feComposite in2="SourceAlpha" operator="in" result="effect1_backgroundBlur_0_1"/>
<feBlend mode="normal" in="SourceGraphic" in2="effect1_backgroundBlur_0_1" result="shape"/>
</filter>
<filter id="filter4_b_0_1" x="518.863" y="533.768" width="207.998" height="207.998" filterUnits="userSpaceOnUse" color-interpolation-filters="sRGB">
<feFlood flood-opacity="0" result="BackgroundImageFix"/>
<feGaussianBlur in="BackgroundImage" stdDeviation="22"/>
<feComposite in2="SourceAlpha" operator="in" result="effect1_backgroundBlur_0_1"/>
<feBlend mode="normal" in="SourceGraphic" in2="effect1_backgroundBlur_0_1" result="shape"/>
</filter>
<clipPath id="clip0_0_1">
<rect width="838" height="772" fill="white"/>
</clipPath>
</defs>
</svg>
