<?xml version="1.0" encoding="UTF-8" standalone="no"?>
<!-- Created with Inkscape (http://www.inkscape.org/) -->

<svg
   xmlns:dc="http://purl.org/dc/elements/1.1/"
   xmlns:cc="http://creativecommons.org/ns#"
   xmlns:rdf="http://www.w3.org/1999/02/22-rdf-syntax-ns#"
   xmlns:svg="http://www.w3.org/2000/svg"
   xmlns="http://www.w3.org/2000/svg"
   xmlns:sodipodi="http://sodipodi.sourceforge.net/DTD/sodipodi-0.dtd"
   xmlns:inkscape="http://www.inkscape.org/namespaces/inkscape"
   version="1.1"
   id="svg3713"
   xml:space="preserve"
   width="509.00003"
   height="142.328"
   viewBox="0 0 509.00003 142.32801"
   sodipodi:docname="logo.svg"
   inkscape:version="0.92.4 (5da689c313, 2019-01-14)"><metadata
     id="metadata3719"><rdf:RDF><cc:Work
         rdf:about=""><dc:format>image/svg+xml</dc:format><dc:type
           rdf:resource="http://purl.org/dc/dcmitype/StillImage" /><dc:title /></cc:Work></rdf:RDF></metadata><defs
     id="defs3717"><clipPath
       clipPathUnits="userSpaceOnUse"
       id="clipPath3731"><path
         d="M 0,199.376 H 566.829 V 0 H 0 Z"
         id="path3729"
         inkscape:connector-curvature="0" /></clipPath></defs><sodipodi:namedview
     pagecolor="#ffffff"
     bordercolor="#666666"
     borderopacity="1"
     objecttolerance="10"
     gridtolerance="10"
     guidetolerance="10"
     inkscape:pageopacity="0"
     inkscape:pageshadow="2"
     inkscape:window-width="2560"
     inkscape:window-height="1361"
     id="namedview3715"
     showgrid="false"
     inkscape:zoom="1.1643724"
     inkscape:cx="96.375893"
     inkscape:cy="21.295274"
     inkscape:window-x="1911"
     inkscape:window-y="-9"
     inkscape:window-maximized="1"
     inkscape:current-layer="text3875" /><g
     id="g3721"
     inkscape:groupmode="layer"
     inkscape:label="HealthRI_Primary_RGB"
     transform="matrix(1.3333333,0,0,-1.3333333,-4.3567949e-7,142.32802)"><g
       id="g4756"
       transform="translate(-28.915102,-29.006287)"><g
   id="g5225"
   transform="matrix(0.67348355,0,0,0.53540049,9.4412566,13.476313)"><g
     id="g3733"
     transform="matrix(1.1061464,0,0,1.4169143,183.80314,216.72421)"><path
       d="m 0,0 h 9.722 v -25.051 c 3.458,2.525 9.907,6.917 17.478,6.917 15.329,0 16.17,-10.095 16.17,-19.629 v -32.714 h -9.533 v 31.313 c 0,8.318 -1.309,12.524 -9.534,12.524 -5.515,0 -12.245,-4.018 -14.581,-5.327 v -38.51 H 0 Z"
       style="fill:#15467b;fill-opacity:1;fill-rule:nonzero;stroke:none"
       id="path3735"
       inkscape:connector-curvature="0" /></g><g
     id="g3737"
     transform="matrix(1.1061464,0,0,1.4169143,279.68889,159.378)"><path
       d="m 0,0 c 0.094,9.066 -3.271,15.235 -10.469,15.235 -7.01,0 -11.964,-5.234 -12.712,-15.235 z m -33.182,-5.328 c 0,20.657 10.283,27.667 23.835,27.667 13.647,0 19.535,-9.16 19.535,-25.704 v -3.458 h -33.555 c 0.186,-13.928 7.664,-16.171 17.572,-16.171 3.646,0 10.001,1.308 13.18,2.057 l 1.589,-7.758 c -2.804,-0.936 -9.254,-2.431 -17.012,-2.431 -15.329,0 -25.144,5.982 -25.144,25.798"
       style="fill:#15467b;fill-opacity:1;fill-rule:nonzero;stroke:none"
       id="path3739"
       inkscape:connector-curvature="0" /></g><g
     id="g3741"
     transform="matrix(1.1061464,0,0,1.4169143,332.28593,133.15389)"><path
       d="m 0,0 v 11.777 l -10.936,-0.466 c -7.01,-0.188 -11.03,-3.366 -11.03,-8.04 0,-5.794 3.365,-7.757 8.226,-7.757 5.422,0 11.777,3.645 13.74,4.486 m -31.499,2.431 c 0,12.618 11.403,15.329 20.282,15.423 L 0,18.04 v 5.702 c 0,7.104 -3.738,8.599 -11.964,8.599 -4.86,0 -10.469,-1.589 -13.46,-2.336 l -1.963,7.384 c 3.272,1.402 9.815,3.364 17.573,3.364 12.619,0 19.348,-3.925 19.348,-14.394 V -0.373 c 0,-3.179 2.243,-3.833 4.674,-4.02 l -0.469,-7.571 c -0.653,-0.094 -1.307,-0.094 -2.055,-0.094 -4.767,0 -10.095,1.683 -10.936,6.17 -2.805,-1.964 -8.039,-6.356 -16.825,-6.356 -9.721,0 -15.422,5.047 -15.422,14.675"
       style="fill:#15467b;fill-opacity:1;fill-rule:nonzero;stroke:none"
       id="path3743"
       inkscape:connector-curvature="0" /></g><path
     d="m 358.89948,216.72435 h 10.75285 v -99.85987 h -10.75285 z"
     style="fill:#15467b;fill-opacity:1;fill-rule:nonzero;stroke:none;stroke-width:1.2519244"
     id="path3745"
     inkscape:connector-curvature="0" /><g
     id="g3747"
     transform="matrix(1.1061464,0,0,1.4169143,386.65999,137.65798)"><path
       d="m 0,0 v 28.602 h -7.478 v 7.757 H 0 V 46.828 H 9.627 V 36.359 H 25.518 V 28.602 H 9.627 V 0.093 c 0,-6.356 1.87,-7.384 8.6,-7.384 2.991,0 8.039,1.028 8.879,1.309 l 1.309,-8.039 C 26.172,-14.675 21.778,-15.703 18.414,-15.703 8.786,-15.703 0,-15.609 0,0"
       style="fill:#15467b;fill-opacity:1;fill-rule:nonzero;stroke:none"
       id="path3749"
       inkscape:connector-curvature="0" /></g><g
     id="g3751"
     transform="matrix(1.1061464,0,0,1.4169143,426.6109,216.72421)"><path
       d="m 0,0 h 9.722 v -25.051 c 3.458,2.525 9.908,6.917 17.478,6.917 15.329,0 16.171,-10.095 16.171,-19.629 v -32.714 h -9.534 v 31.313 c 0,8.318 -1.309,12.524 -9.534,12.524 -5.515,0 -12.245,-4.018 -14.581,-5.327 v -38.51 H 0 Z"
       style="fill:#15467b;fill-opacity:1;fill-rule:nonzero;stroke:none"
       id="path3753"
       inkscape:connector-curvature="0" /></g></g><g
   id="g5212"
   transform="matrix(0.67348355,0,0,0.53540049,9.4412566,13.476313)"><g
     id="g3755"
     transform="matrix(1.1061464,0,0,1.4169143,527.26801,166.26746)"><path
       d="m 0,0 c 10.552,0 17.355,3.55 17.355,13.313 0,9.565 -4.832,13.115 -14.988,13.115 H -8.776 V 0 Z M 16.567,-23.667 5.128,-7.79 C 3.55,-8.086 1.282,-8.185 -0.592,-8.185 H -8.776 V -34.811 H -19.427 V 34.908 H 4.536 C 18.539,34.908 28.4,28.302 28.4,13.806 28.4,5.719 24.555,-1.479 15.778,-5.227 l 9.861,-13.213 c 4.437,-5.819 9.466,-7.988 14.299,-9.27 l -2.367,-8.185 c -6.706,0.295 -14.594,3.748 -21.004,12.228"
       style="fill:#f8af00;fill-opacity:1;fill-rule:nonzero;stroke:none"
       id="path3757"
       inkscape:connector-curvature="0" /></g><path
     d="m 580.87983,210.57919 h 11.06368 v -93.63536 h -11.06368 z"
     style="fill:#f8af00;fill-opacity:1;fill-rule:nonzero;stroke:none;stroke-width:1.2519244"
     id="path3759"
     inkscape:connector-curvature="0" /></g><g
   id="g5207"
   transform="matrix(0.67348355,0,0,0.53540049,9.4412566,13.476313)"><g
     id="g3761"
     transform="matrix(1.1061464,0,0,1.4169143,40.828299,220.75079)"><path
       d="m 0,0 c 0,-2.974 -2.411,-5.385 -5.385,-5.385 -2.974,0 -5.385,2.411 -5.385,5.385 0,2.975 2.411,5.386 5.385,5.386 C -2.411,5.386 0,2.975 0,0"
       style="fill:#f8af00;fill-opacity:1;fill-rule:nonzero;stroke:none"
       id="path3763"
       inkscape:connector-curvature="0" /></g><g
     id="g3765"
     transform="matrix(1.1061464,0,0,1.4169143,68.544567,220.75079)"><path
       d="m 0,0 c 0,-2.974 -2.411,-5.385 -5.385,-5.385 -2.974,0 -5.386,2.411 -5.386,5.385 0,2.975 2.412,5.386 5.386,5.386 C -2.411,5.386 0,2.975 0,0"
       style="fill:#f8af00;fill-opacity:1;fill-rule:nonzero;stroke:none"
       id="path3767"
       inkscape:connector-curvature="0" /></g><g
     id="g3769"
     transform="matrix(1.1061464,0,0,1.4169143,96.259839,220.75079)"><path
       d="m 0,0 c 0,-2.974 -2.41,-5.385 -5.385,-5.385 -2.973,0 -5.385,2.411 -5.385,5.385 0,2.975 2.412,5.386 5.385,5.386 C -2.41,5.386 0,2.975 0,0"
       style="fill:#f8af00;fill-opacity:1;fill-rule:nonzero;stroke:none"
       id="path3771"
       inkscape:connector-curvature="0" /></g><g
     id="g3773"
     transform="matrix(1.1061464,0,0,1.4169143,123.97611,220.75079)"><path
       d="m 0,0 c 0,-2.974 -2.41,-5.385 -5.385,-5.385 -2.973,0 -5.385,2.411 -5.385,5.385 0,2.975 2.412,5.386 5.385,5.386 C -2.41,5.386 0,2.975 0,0"
       style="fill:#f8af00;fill-opacity:1;fill-rule:nonzero;stroke:none"
       id="path3775"
       inkscape:connector-curvature="0" /></g><g
     id="g3777"
     transform="matrix(1.1061464,0,0,1.4169143,151.69249,220.75079)"><path
       d="m 0,0 c 0,-2.974 -2.411,-5.385 -5.385,-5.385 -2.973,0 -5.385,2.411 -5.385,5.385 0,2.975 2.412,5.386 5.385,5.386 C -2.411,5.386 0,2.975 0,0"
       style="fill:#f8af00;fill-opacity:1;fill-rule:nonzero;stroke:none"
       id="path3779"
       inkscape:connector-curvature="0" /></g><g
     id="g3781"
     transform="matrix(1.1061464,0,0,1.4169143,40.828299,183.92902)"><path
       d="m 0,0 c 0,-2.975 -2.411,-5.386 -5.385,-5.386 -2.974,0 -5.385,2.411 -5.385,5.386 0,2.974 2.411,5.385 5.385,5.385 C -2.411,5.385 0,2.974 0,0"
       style="fill:#f8af00;fill-opacity:1;fill-rule:nonzero;stroke:none"
       id="path3783"
       inkscape:connector-curvature="0" /></g><g
     id="g3785"
     transform="matrix(1.1061464,0,0,1.4169143,68.544567,183.92902)"><path
       d="m 0,0 c 0,-2.975 -2.411,-5.386 -5.385,-5.386 -2.974,0 -5.386,2.411 -5.386,5.386 0,2.974 2.412,5.385 5.386,5.385 C -2.411,5.385 0,2.974 0,0"
       style="fill:#f8af00;fill-opacity:1;fill-rule:nonzero;stroke:none"
       id="path3787"
       inkscape:connector-curvature="0" /></g><g
     id="g3789"
     transform="matrix(1.1061464,0,0,1.4169143,96.259839,183.92902)"><path
       d="m 0,0 c 0,-2.975 -2.41,-5.386 -5.385,-5.386 -2.973,0 -5.385,2.411 -5.385,5.386 0,2.974 2.412,5.385 5.385,5.385 C -2.41,5.385 0,2.974 0,0"
       style="fill:#f8af00;fill-opacity:1;fill-rule:nonzero;stroke:none"
       id="path3791"
       inkscape:connector-curvature="0" /></g><g
     id="g3793"
     transform="matrix(1.1061464,0,0,1.4169143,123.97611,183.92902)"><path
       d="m 0,0 c 0,-2.975 -2.41,-5.386 -5.385,-5.386 -2.973,0 -5.385,2.411 -5.385,5.386 0,2.974 2.412,5.385 5.385,5.385 C -2.41,5.385 0,2.974 0,0"
       style="fill:#f8af00;fill-opacity:1;fill-rule:nonzero;stroke:none"
       id="path3795"
       inkscape:connector-curvature="0" /></g><g
     id="g3797"
     transform="matrix(1.1061464,0,0,1.4169143,151.69249,183.92902)"><path
       d="m 0,0 c 0,-2.975 -2.411,-5.386 -5.385,-5.386 -2.973,0 -5.385,2.411 -5.385,5.386 0,2.974 2.412,5.385 5.385,5.385 C -2.411,5.385 0,2.974 0,0"
       style="fill:#f8af00;fill-opacity:1;fill-rule:nonzero;stroke:none"
       id="path3799"
       inkscape:connector-curvature="0" /></g><g
     id="g3801"
     transform="matrix(1.1061464,0,0,1.4169143,40.828299,147.10582)"><path
       d="m 0,0 c 0,-2.975 -2.411,-5.385 -5.385,-5.385 -2.974,0 -5.385,2.41 -5.385,5.385 0,2.974 2.411,5.385 5.385,5.385 C -2.411,5.385 0,2.974 0,0"
       style="fill:#f8af00;fill-opacity:1;fill-rule:nonzero;stroke:none"
       id="path3803"
       inkscape:connector-curvature="0" /></g><g
     id="g3805"
     transform="matrix(1.1061464,0,0,1.4169143,68.544567,147.10582)"><path
       d="m 0,0 c 0,-2.975 -2.411,-5.385 -5.385,-5.385 -2.974,0 -5.386,2.41 -5.386,5.385 0,2.974 2.412,5.385 5.386,5.385 C -2.411,5.385 0,2.974 0,0"
       style="fill:#f8af00;fill-opacity:1;fill-rule:nonzero;stroke:none"
       id="path3807"
       inkscape:connector-curvature="0" /></g><g
     id="g3809"
     transform="matrix(1.1061464,0,0,1.4169143,123.97611,147.10582)"><path
       d="m 0,0 c 0,-2.975 -2.41,-5.385 -5.385,-5.385 -2.973,0 -5.385,2.41 -5.385,5.385 0,2.974 2.412,5.385 5.385,5.385 C -2.41,5.385 0,2.974 0,0"
       style="fill:#f8af00;fill-opacity:1;fill-rule:nonzero;stroke:none"
       id="path3811"
       inkscape:connector-curvature="0" /></g><g
     id="g3813"
     transform="matrix(1.1061464,0,0,1.4169143,151.69249,147.10582)"><path
       d="m 0,0 c 0,-2.975 -2.411,-5.385 -5.385,-5.385 -2.973,0 -5.385,2.41 -5.385,5.385 0,2.974 2.412,5.385 5.385,5.385 C -2.411,5.385 0,2.974 0,0"
       style="fill:#f8af00;fill-opacity:1;fill-rule:nonzero;stroke:none"
       id="path3815"
       inkscape:connector-curvature="0" /></g><g
     id="g3817"
     transform="matrix(1.1061464,0,0,1.4169143,40.828299,110.28263)"><path
       d="m 0,0 c 0,-2.975 -2.411,-5.385 -5.385,-5.385 -2.974,0 -5.385,2.41 -5.385,5.385 0,2.974 2.411,5.385 5.385,5.385 C -2.411,5.385 0,2.974 0,0"
       style="fill:#f8af00;fill-opacity:1;fill-rule:nonzero;stroke:none"
       id="path3819"
       inkscape:connector-curvature="0" /></g><g
     id="g3821"
     transform="matrix(1.1061464,0,0,1.4169143,68.544567,110.28263)"><path
       d="m 0,0 c 0,-2.975 -2.411,-5.385 -5.385,-5.385 -2.974,0 -5.386,2.41 -5.386,5.385 0,2.974 2.412,5.385 5.386,5.385 C -2.411,5.385 0,2.974 0,0"
       style="fill:#f8af00;fill-opacity:1;fill-rule:nonzero;stroke:none"
       id="path3823"
       inkscape:connector-curvature="0" /></g><g
     id="g3825"
     transform="matrix(1.1061464,0,0,1.4169143,123.97611,110.28263)"><path
       d="m 0,0 c 0,-2.975 -2.41,-5.385 -5.385,-5.385 -2.973,0 -5.385,2.41 -5.385,5.385 0,2.974 2.412,5.385 5.385,5.385 C -2.41,5.385 0,2.974 0,0"
       style="fill:#f8af00;fill-opacity:1;fill-rule:nonzero;stroke:none"
       id="path3827"
       inkscape:connector-curvature="0" /></g><g
     id="g3829"
     transform="matrix(1.1061464,0,0,1.4169143,151.69249,110.28263)"><path
       d="m 0,0 c 0,-2.975 -2.411,-5.385 -5.385,-5.385 -2.973,0 -5.385,2.41 -5.385,5.385 0,2.974 2.412,5.385 5.385,5.385 C -2.411,5.385 0,2.974 0,0"
       style="fill:#f8af00;fill-opacity:1;fill-rule:nonzero;stroke:none"
       id="path3831"
       inkscape:connector-curvature="0" /></g><g
     id="g3833"
     transform="matrix(1.1061464,0,0,1.4169143,40.828299,73.459577)"><path
       d="m 0,0 c 0,-2.975 -2.411,-5.385 -5.385,-5.385 -2.974,0 -5.385,2.41 -5.385,5.385 0,2.974 2.411,5.385 5.385,5.385 C -2.411,5.385 0,2.974 0,0"
       style="fill:#f8af00;fill-opacity:1;fill-rule:nonzero;stroke:none"
       id="path3835"
       inkscape:connector-curvature="0" /></g><g
     id="g3837"
     transform="matrix(1.1061464,0,0,1.4169143,68.544567,73.459577)"><path
       d="m 0,0 c 0,-2.975 -2.411,-5.385 -5.385,-5.385 -2.974,0 -5.386,2.41 -5.386,5.385 0,2.974 2.412,5.385 5.386,5.385 C -2.411,5.385 0,2.974 0,0"
       style="fill:#f8af00;fill-opacity:1;fill-rule:nonzero;stroke:none"
       id="path3839"
       inkscape:connector-curvature="0" /></g><g
     id="g3841"
     transform="matrix(1.1061464,0,0,1.4169143,96.259839,73.459577)"><path
       d="m 0,0 c 0,-2.975 -2.41,-5.385 -5.385,-5.385 -2.973,0 -5.385,2.41 -5.385,5.385 0,2.974 2.412,5.385 5.385,5.385 C -2.41,5.385 0,2.974 0,0"
       style="fill:#f8af00;fill-opacity:1;fill-rule:nonzero;stroke:none"
       id="path3843"
       inkscape:connector-curvature="0" /></g><g
     id="g3845"
     transform="matrix(1.1061464,0,0,1.4169143,123.97611,73.459577)"><path
       d="m 0,0 c 0,-2.975 -2.41,-5.385 -5.385,-5.385 -2.973,0 -5.385,2.41 -5.385,5.385 0,2.974 2.412,5.385 5.385,5.385 C -2.41,5.385 0,2.974 0,0"
       style="fill:#f8af00;fill-opacity:1;fill-rule:nonzero;stroke:none"
       id="path3847"
       inkscape:connector-curvature="0" /></g><g
     id="g3849"
     transform="matrix(1.1061464,0,0,1.4169143,151.69249,73.459577)"><path
       d="m 0,0 c 0,-2.975 -2.411,-5.385 -5.385,-5.385 -2.973,0 -5.385,2.41 -5.385,5.385 0,2.974 2.412,5.385 5.385,5.385 C -2.411,5.385 0,2.974 0,0"
       style="fill:#f8af00;fill-opacity:1;fill-rule:nonzero;stroke:none"
       id="path3851"
       inkscape:connector-curvature="0" /></g><g
     id="g3853"
     transform="matrix(1.1061464,0,0,1.4169143,40.828299,36.636383)"><path
       d="m 0,0 c 0,-2.974 -2.411,-5.385 -5.385,-5.385 -2.974,0 -5.385,2.411 -5.385,5.385 0,2.974 2.411,5.385 5.385,5.385 C -2.411,5.385 0,2.974 0,0"
       style="fill:#f8af00;fill-opacity:1;fill-rule:nonzero;stroke:none"
       id="path3855"
       inkscape:connector-curvature="0" /></g><g
     id="g3857"
     transform="matrix(1.1061464,0,0,1.4169143,68.544567,36.636383)"><path
       d="m 0,0 c 0,-2.974 -2.411,-5.385 -5.385,-5.385 -2.974,0 -5.386,2.411 -5.386,5.385 0,2.974 2.412,5.385 5.386,5.385 C -2.411,5.385 0,2.974 0,0"
       style="fill:#f8af00;fill-opacity:1;fill-rule:nonzero;stroke:none"
       id="path3859"
       inkscape:connector-curvature="0" /></g><g
     id="g3861"
     transform="matrix(1.1061464,0,0,1.4169143,96.259839,36.636383)"><path
       d="m 0,0 c 0,-2.974 -2.41,-5.385 -5.385,-5.385 -2.973,0 -5.385,2.411 -5.385,5.385 0,2.974 2.412,5.385 5.385,5.385 C -2.41,5.385 0,2.974 0,0"
       style="fill:#f8af00;fill-opacity:1;fill-rule:nonzero;stroke:none"
       id="path3863"
       inkscape:connector-curvature="0" /></g><g
     id="g3865"
     transform="matrix(1.1061464,0,0,1.4169143,123.97611,36.636383)"><path
       d="m 0,0 c 0,-2.974 -2.41,-5.385 -5.385,-5.385 -2.973,0 -5.385,2.411 -5.385,5.385 0,2.974 2.412,5.385 5.385,5.385 C -2.41,5.385 0,2.974 0,0"
       style="fill:#f8af00;fill-opacity:1;fill-rule:nonzero;stroke:none"
       id="path3867"
       inkscape:connector-curvature="0" /></g><g
     id="g3869"
     transform="matrix(1.1061464,0,0,1.4169143,151.69249,36.636383)"><path
       d="m 0,0 c 0,-2.974 -2.411,-5.385 -5.385,-5.385 -2.973,0 -5.385,2.411 -5.385,5.385 0,2.974 2.412,5.385 5.385,5.385 C -2.411,5.385 0,2.974 0,0"
       style="fill:#f8af00;fill-opacity:1;fill-rule:nonzero;stroke:none"
       id="path3871"
       inkscape:connector-curvature="0" /></g></g><g
   aria-label="enabling data driven health"
   transform="scale(0.99096565,-1.0091167)"
   style="font-style:italic;font-variant:normal;font-weight:normal;font-stretch:normal;font-size:25.32253647px;font-family:Lato;-inkscape-font-specification:'Lato Italic';writing-mode:lr-tb;fill:#15467b;fill-opacity:1;fill-rule:nonzero;stroke:none;stroke-width:0.75176305"
   id="text3875"><path
     d="m 140.76788,-52.0172 q -1.0129,0 -1.83589,0.430483 -0.81032,0.417822 -1.44338,1.139514 -0.6204,0.721692 -1.05089,1.671288 -0.41782,0.936933 -0.6204,1.962496 1.60798,-0.177258 2.77282,-0.40516 1.16484,-0.240565 1.97516,-0.49379 0.81032,-0.265887 1.31677,-0.569757 0.50645,-0.30387 0.77234,-0.620402 0.27854,-0.329193 0.36717,-0.671047 0.10129,-0.341855 0.10129,-0.709031 0,-0.265887 -0.12661,-0.569757 -0.11395,-0.316532 -0.3925,-0.569757 -0.27855,-0.253226 -0.73435,-0.417822 -0.44315,-0.177258 -1.10153,-0.177258 z m 3.10201,9.546596 q -0.6204,0.658386 -1.21548,1.139514 -0.58242,0.468467 -1.19016,0.772338 -0.59508,0.30387 -1.24081,0.443144 -0.64572,0.151935 -1.38008,0.151935 -1.05088,0 -1.87386,-0.341854 -0.81032,-0.354515 -1.36742,-0.987579 -0.5571,-0.645725 -0.84831,-1.557336 -0.2912,-0.924272 -0.2912,-2.063787 0,-0.949595 0.18991,-1.911851 0.18992,-0.962256 0.5571,-1.848545 0.37984,-0.886289 0.92427,-1.658626 0.5571,-0.772338 1.26613,-1.342095 0.70903,-0.569757 1.57,-0.89895 0.86096,-0.329193 1.8612,-0.329193 0.92428,0 1.55734,0.265887 0.64572,0.253225 1.03822,0.645724 0.40516,0.379839 0.58242,0.835644 0.17726,0.443145 0.17726,0.835644 0,0.519112 -0.13927,0.987579 -0.13928,0.468467 -0.49379,0.886289 -0.35452,0.417821 -0.96226,0.784998 -0.60774,0.367177 -1.55734,0.683709 -0.93693,0.30387 -2.2537,0.557095 -1.31677,0.253226 -3.08935,0.443145 -0.0253,0.253225 -0.0506,0.519112 -0.0127,0.265887 -0.0127,0.519112 0,1.886529 0.84831,2.950075 0.86096,1.063547 2.5829,1.063547 0.67104,0 1.20282,-0.139274 0.54443,-0.151935 0.96225,-0.379838 0.43049,-0.227903 0.74702,-0.481128 0.32919,-0.253226 0.58242,-0.481128 0.25322,-0.227903 0.43048,-0.367177 0.18992,-0.151935 0.34185,-0.151935 0.15194,0 0.26589,0.126612 z"
     style="font-style:italic;font-variant:normal;font-weight:300;font-stretch:normal;font-family:Lato;-inkscape-font-specification:'Lato Light Italic';stroke-width:0.75176305"
     id="path890" /><path
     d="m 148.54192,-48.674625 q 0.50645,-1.00024 1.12685,-1.785239 0.63306,-0.79766 1.32943,-1.342095 0.69637,-0.544434 1.43073,-0.822982 0.73435,-0.291209 1.48136,-0.291209 0.81032,0 1.38008,0.316532 0.58242,0.316531 0.92427,0.924272 0.35452,0.607741 0.45581,1.49403 0.11395,0.873627 -0.0253,2.00048 l -0.9496,8.052567 h -1.19016 l 0.9496,-8.052567 q 0.21524,-1.7979 -0.24057,-2.760156 -0.4558,-0.962257 -1.70927,-0.962257 -0.70903,0 -1.43072,0.367177 -0.70903,0.354516 -1.39274,1.025563 -0.67105,0.658386 -1.26613,1.607981 -0.59508,0.936934 -1.05088,2.114432 l -0.77234,6.659827 h -1.19016 l 1.50669,-12.635946 h 0.54444 q 0.44314,0 0.44314,0.455806 z"
     style="font-style:italic;font-variant:normal;font-weight:300;font-stretch:normal;font-family:Lato;-inkscape-font-specification:'Lato Light Italic';stroke-width:0.75176305"
     id="path892" /><path
     d="m 168.45807,-51.738652 q -0.37984,-0.139274 -0.785,-0.189919 -0.40516,-0.06331 -0.82298,-0.06331 -1.26613,0 -2.41831,0.620403 -1.15217,0.620402 -2.0258,1.658626 -0.87363,1.038224 -1.39274,2.380318 -0.51911,1.342095 -0.51911,2.785479 0,1.69661 0.56976,2.646205 0.58242,0.936934 1.7979,0.936934 0.72169,0 1.41806,-0.40516 0.69637,-0.405161 1.32943,-1.139515 0.64573,-0.734353 1.20282,-1.759916 0.5571,-1.038224 1.00024,-2.291689 z m -0.82298,7.229584 q -0.48113,1.012901 -1.06355,1.861206 -0.56976,0.835644 -1.22814,1.430724 -0.65839,0.595079 -1.38008,0.924272 -0.72169,0.329193 -1.49403,0.329193 -0.785,0 -1.39274,-0.30387 -0.59508,-0.316532 -1.00024,-0.886289 -0.3925,-0.569757 -0.59508,-1.380078 -0.20258,-0.810321 -0.20258,-1.823223 0,-1.10153 0.27855,-2.152415 0.29121,-1.063547 0.79766,-2.013142 0.50645,-0.949595 1.21548,-1.747255 0.70903,-0.79766 1.57,-1.380078 0.86096,-0.582419 1.83588,-0.911612 0.97492,-0.329193 2.01314,-0.329193 0.74702,0 1.4054,0.139274 0.67105,0.126613 1.30411,0.455806 l -1.48137,12.167479 h -0.58241 q -0.25323,0 -0.34186,-0.139274 -0.0886,-0.139274 -0.0886,-0.316532 z"
     style="font-style:italic;font-variant:normal;font-weight:300;font-stretch:normal;font-family:Lato;-inkscape-font-specification:'Lato Light Italic';stroke-width:0.75176305"
     id="path894" /><path
     d="m 173.53524,-42.73649 q 0.27855,0.50645 0.6204,0.860966 0.35452,0.341854 0.74702,0.557096 0.3925,0.215241 0.81032,0.316531 0.43048,0.08863 0.87363,0.08863 0.79766,0 1.48136,-0.316532 0.69637,-0.329193 1.25347,-0.886288 0.56976,-0.557096 1.00024,-1.29145 0.44314,-0.747014 0.73435,-1.569997 0.30387,-0.822982 0.45581,-1.683949 0.1646,-0.873627 0.1646,-1.69661 0,-1.696609 -0.64573,-2.633543 -0.64572,-0.949595 -1.88653,-0.949595 -0.72169,0 -1.45604,0.40516 -0.7217,0.405161 -1.39274,1.139514 -0.67105,0.734354 -1.26613,1.772578 -0.59508,1.038224 -1.05089,2.304351 z m 0.70903,-5.735555 q 0.49379,-1.00024 1.08887,-1.810561 0.60774,-0.822983 1.27879,-1.405401 0.68371,-0.582418 1.41806,-0.89895 0.74701,-0.329193 1.50669,-0.329193 0.82298,0 1.44339,0.316532 0.6204,0.316531 1.03822,0.89895 0.41782,0.569757 0.63306,1.392739 0.21524,0.822983 0.21524,1.835884 0,0.974918 -0.20258,1.987819 -0.20258,1.00024 -0.58241,1.949835 -0.36718,0.936934 -0.91162,1.772578 -0.53177,0.835644 -1.21548,1.456046 -0.68371,0.620402 -1.50669,0.987579 -0.81032,0.354515 -1.72193,0.354515 -1.06355,0 -1.9625,-0.481128 -0.88629,-0.493789 -1.41806,-1.456046 l -0.24056,1.367417 q -0.0633,0.202581 -0.13928,0.303871 -0.076,0.10129 -0.30387,0.10129 h -0.59508 l 2.22839,-18.422145 h 1.17749 z"
     style="font-style:italic;font-variant:normal;font-weight:300;font-stretch:normal;font-family:Lato;-inkscape-font-specification:'Lato Light Italic';stroke-width:0.75176305"
     id="path896" /><path
     d="m 185.22159,-40.128269 2.22838,-18.422145 h 1.1775 l -2.24104,18.422145 z"
     style="font-style:italic;font-variant:normal;font-weight:300;font-stretch:normal;font-family:Lato;-inkscape-font-specification:'Lato Light Italic';stroke-width:0.75176305"
     id="path898" /><path
     d="m 193.24883,-52.726231 -1.53201,12.597962 h -1.1775 l 1.53201,-12.597962 z m 0.92427,-4.342815 q 0,0.227903 -0.10129,0.430483 -0.0886,0.189919 -0.24056,0.341854 -0.15194,0.151935 -0.35452,0.240564 -0.18992,0.08863 -0.3925,0.08863 -0.21524,0 -0.40516,-0.08863 -0.18992,-0.08863 -0.32919,-0.240564 -0.13927,-0.151935 -0.2279,-0.341854 -0.0886,-0.20258 -0.0886,-0.430483 0,-0.227903 0.0886,-0.430483 0.0886,-0.202581 0.2279,-0.354516 0.15193,-0.164596 0.34185,-0.253225 0.18992,-0.08863 0.40516,-0.08863 0.20258,0 0.3925,0.08863 0.20258,0.08863 0.35452,0.240564 0.15193,0.151935 0.24056,0.367177 0.0886,0.20258 0.0886,0.430483 z"
     style="font-style:italic;font-variant:normal;font-weight:300;font-stretch:normal;font-family:Lato;-inkscape-font-specification:'Lato Light Italic';stroke-width:0.75176305"
     id="path900" /><path
     d="m 197.89552,-48.674625 q 0.50645,-1.00024 1.12686,-1.785239 0.63306,-0.79766 1.32943,-1.342095 0.69637,-0.544434 1.43072,-0.822982 0.73436,-0.291209 1.48137,-0.291209 0.81032,0 1.38008,0.316532 0.58242,0.316531 0.92427,0.924272 0.35452,0.607741 0.45581,1.49403 0.11395,0.873627 -0.0253,2.00048 l -0.94959,8.052567 h -1.19016 l 0.9496,-8.052567 q 0.21524,-1.7979 -0.24057,-2.760156 -0.4558,-0.962257 -1.70927,-0.962257 -0.70903,0 -1.43072,0.367177 -0.70903,0.354516 -1.39274,1.025563 -0.67105,0.658386 -1.26613,1.607981 -0.59508,0.936934 -1.05088,2.114432 l -0.77234,6.659827 h -1.19016 l 1.50669,-12.635946 h 0.54443 q 0.44315,0 0.44315,0.455806 z"
     style="font-style:italic;font-variant:normal;font-weight:300;font-stretch:normal;font-family:Lato;-inkscape-font-specification:'Lato Light Italic';stroke-width:0.75176305"
     id="path902" /><path
     d="m 213.07636,-45.509308 q 0.81032,0 1.44339,-0.341854 0.64572,-0.341855 1.0762,-0.886289 0.44315,-0.557096 0.67105,-1.253466 0.24056,-0.709031 0.24056,-1.418062 0,-1.316772 -0.70903,-1.975158 -0.69637,-0.671047 -1.8612,-0.671047 -0.82299,0 -1.45605,0.329193 -0.63306,0.316532 -1.06355,0.848305 -0.43048,0.531773 -0.65838,1.228143 -0.2279,0.683709 -0.2279,1.405401 0,1.342094 0.6837,2.038464 0.68371,0.69637 1.86121,0.69637 z m 2.46895,4.203541 q -1.82322,-0.265887 -3.17798,-0.139274 -1.35476,0.126613 -2.25371,0.531773 -0.88628,0.405161 -1.32943,1.025563 -0.44314,0.620402 -0.4558,1.316772 0,0.544434 0.24056,0.962256 0.25322,0.430483 0.70903,0.709031 0.45581,0.291209 1.10153,0.443145 0.64573,0.151935 1.43072,0.151935 1.00024,0 1.81057,-0.265887 0.81032,-0.265886 1.38007,-0.709031 0.58242,-0.443144 0.89895,-1.012901 0.31654,-0.569757 0.31654,-1.177498 0.0127,-0.620402 -0.18992,-1.063547 -0.20258,-0.443144 -0.49379,-0.810321 z m 4.01362,-10.97732 -0.038,0.405161 q -0.0253,0.126613 -0.10129,0.227903 -0.076,0.08863 -0.25323,0.113951 l -2.05112,0.164597 q 0.2279,0.392499 0.35451,0.873627 0.12661,0.468467 0.12661,1.050885 -0.0127,0.69637 -0.18992,1.266127 -0.16459,0.569757 -0.41782,1.050885 -0.25322,0.468467 -0.55709,0.886289 -0.29121,0.405161 -0.54444,0.79766 -0.25322,0.392499 -0.41782,0.79766 -0.1646,0.405161 -0.1646,0.860966 -0.0127,0.354516 0.13928,0.658386 0.15193,0.303871 0.37984,0.607741 0.2279,0.303871 0.48112,0.607741 0.26589,0.30387 0.49379,0.658386 0.22791,0.354515 0.36718,0.772337 0.15194,0.417822 0.15194,0.936934 -0.0127,0.79766 -0.41783,1.532014 -0.3925,0.747014 -1.12685,1.316771 -0.73435,0.569758 -1.77258,0.911612 -1.02556,0.341854 -2.29169,0.341854 -1.00024,0 -1.83588,-0.20258 -0.82298,-0.202581 -1.43072,-0.59508 -0.59508,-0.379838 -0.92428,-0.936934 -0.32919,-0.557095 -0.32919,-1.266127 0.0127,-1.063546 0.64573,-1.848545 0.64572,-0.784998 1.70927,-1.253465 1.0762,-0.481128 2.46894,-0.620402 1.39274,-0.139274 2.9121,0.06331 -0.21525,-0.291209 -0.36718,-0.620402 -0.15194,-0.329193 -0.15194,-0.734354 0,-0.443144 0.15194,-0.89895 0.15193,-0.455805 0.58242,-1.10153 -0.50645,0.354515 -1.08887,0.544434 -0.58242,0.189919 -1.26613,0.189919 -0.72169,0 -1.34209,-0.227902 -0.6204,-0.227903 -1.06355,-0.671048 -0.44314,-0.455805 -0.69637,-1.10153 -0.25322,-0.658386 -0.25322,-1.519352 0,-0.873628 0.30387,-1.709271 0.31653,-0.848305 0.89895,-1.506691 0.59508,-0.658386 1.45604,-1.050886 0.86097,-0.40516 1.9625,-0.40516 1.30411,0 2.22838,0.633063 z"
     style="font-style:italic;font-variant:normal;font-weight:300;font-stretch:normal;font-family:Lato;-inkscape-font-specification:'Lato Light Italic';stroke-width:0.75176305"
     id="path904" /><path
     d="m 236.10724,-50.168655 q -0.27855,-0.493789 -0.63306,-0.835644 -0.34186,-0.354515 -0.73436,-0.557095 -0.3925,-0.215242 -0.82298,-0.303871 -0.43048,-0.10129 -0.86097,-0.10129 -0.79766,0 -1.49403,0.329193 -0.6837,0.316532 -1.25346,0.873627 -0.5571,0.557096 -1.00024,1.29145 -0.43049,0.734353 -0.73436,1.557336 -0.2912,0.822982 -0.4558,1.69661 -0.15194,0.873627 -0.15194,1.683948 0,1.69661 0.64573,2.646206 0.64572,0.949595 1.88653,0.949595 0.72169,0 1.44338,-0.405161 0.72169,-0.405161 1.39274,-1.139514 0.68371,-0.734354 1.26613,-1.759916 0.59508,-1.038224 1.05088,-2.29169 z m 2.20306,-8.381759 -2.25371,18.422145 h -0.58241 q -0.25323,0 -0.34186,-0.139274 -0.0886,-0.139274 -0.0886,-0.316532 l 0.41782,-3.962977 q -0.49379,1.025563 -1.11419,1.873868 -0.60774,0.835644 -1.29145,1.443384 -0.68371,0.607741 -1.43072,0.936934 -0.74701,0.329193 -1.51935,0.329193 -0.82298,0 -1.44339,-0.316531 -0.6204,-0.316532 -1.03822,-0.89895 -0.41782,-0.582419 -0.63306,-1.405401 -0.21525,-0.822983 -0.21525,-1.848545 0,-0.962257 0.20258,-1.962497 0.20258,-1.012901 0.56976,-1.949835 0.37984,-0.949595 0.91161,-1.772578 0.54444,-0.835644 1.22815,-1.456046 0.6837,-0.620402 1.49403,-0.974917 0.81032,-0.367177 1.73459,-0.367177 1.02556,0 1.88653,0.455806 0.87363,0.443144 1.41806,1.329433 l 0.92427,-7.419503 z"
     style="font-style:italic;font-variant:normal;font-weight:300;font-stretch:normal;font-family:Lato;-inkscape-font-specification:'Lato Light Italic';stroke-width:0.75176305"
     id="path906" /><path
     d="m 248.95843,-51.738652 q -0.37983,-0.139274 -0.78499,-0.189919 -0.40516,-0.06331 -0.82299,-0.06331 -1.26612,0 -2.4183,0.620403 -1.15217,0.620402 -2.0258,1.658626 -0.87363,1.038224 -1.39274,2.380318 -0.51911,1.342095 -0.51911,2.785479 0,1.69661 0.56975,2.646205 0.58242,0.936934 1.7979,0.936934 0.7217,0 1.41807,-0.40516 0.69637,-0.405161 1.32943,-1.139515 0.64572,-0.734353 1.20282,-1.759916 0.5571,-1.038224 1.00024,-2.291689 z m -0.82298,7.229584 q -0.48113,1.012901 -1.06354,1.861206 -0.56976,0.835644 -1.22815,1.430724 -0.65838,0.595079 -1.38008,0.924272 -0.72169,0.329193 -1.49403,0.329193 -0.78499,0 -1.39274,-0.30387 -0.59507,-0.316532 -1.00024,-0.886289 -0.39249,-0.569757 -0.59507,-1.380078 -0.20259,-0.810321 -0.20259,-1.823223 0,-1.10153 0.27855,-2.152415 0.29121,-1.063547 0.79766,-2.013142 0.50645,-0.949595 1.21548,-1.747255 0.70904,-0.79766 1.57,-1.380078 0.86097,-0.582419 1.83589,-0.911612 0.97491,-0.329193 2.01314,-0.329193 0.74701,0 1.4054,0.139274 0.67105,0.126613 1.30411,0.455806 l -1.48137,12.167479 h -0.58242 q -0.25322,0 -0.34185,-0.139274 -0.0886,-0.139274 -0.0886,-0.316532 z"
     style="font-style:italic;font-variant:normal;font-weight:300;font-stretch:normal;font-family:Lato;-inkscape-font-specification:'Lato Light Italic';stroke-width:0.75176305"
     id="path908" /><path
     d="m 253.47848,-42.242701 q 0,-0.07597 0,-0.189919 0.0127,-0.113951 0.0253,-0.341854 0.0253,-0.227903 0.0633,-0.582419 0.038,-0.367176 0.11395,-0.924272 l 0.86097,-7.153617 h -1.65863 q -0.12661,0 -0.20258,-0.07597 -0.076,-0.07597 -0.0507,-0.215242 l 0.0633,-0.468467 1.98782,-0.151935 0.83564,-4.507412 q 0.0253,-0.113951 0.11396,-0.20258 0.0886,-0.08863 0.21524,-0.08863 h 0.58242 l -0.59508,4.811282 h 3.64644 l -0.10129,0.89895 h -3.64644 l -0.87363,7.115633 q -0.0633,0.519112 -0.11395,0.848305 -0.038,0.329193 -0.0633,0.544435 -0.0127,0.20258 -0.0253,0.30387 0,0.10129 0,0.151935 0,0.822983 0.37984,1.190159 0.39249,0.367177 1.00024,0.367177 0.41782,0 0.73435,-0.126613 0.32919,-0.139273 0.56976,-0.291209 0.24056,-0.164596 0.3925,-0.291209 0.15193,-0.139274 0.2279,-0.139274 0.12661,0 0.18992,0.126613 l 0.2279,0.531773 q -0.50645,0.531773 -1.22814,0.860966 -0.72169,0.316532 -1.44339,0.316532 -1.03822,0 -1.6333,-0.569757 -0.58242,-0.569757 -0.59508,-1.747255 z"
     style="font-style:italic;font-variant:normal;font-weight:300;font-stretch:normal;font-family:Lato;-inkscape-font-specification:'Lato Light Italic';stroke-width:0.75176305"
     id="path910" /><path
     d="m 269.97615,-51.738652 q -0.37984,-0.139274 -0.785,-0.189919 -0.40516,-0.06331 -0.82298,-0.06331 -1.26613,0 -2.4183,0.620403 -1.15218,0.620402 -2.02581,1.658626 -0.87362,1.038224 -1.39274,2.380318 -0.51911,1.342095 -0.51911,2.785479 0,1.69661 0.56976,2.646205 0.58242,0.936934 1.7979,0.936934 0.72169,0 1.41806,-0.40516 0.69637,-0.405161 1.32943,-1.139515 0.64573,-0.734353 1.20282,-1.759916 0.5571,-1.038224 1.00025,-2.291689 z m -0.82298,7.229584 q -0.48113,1.012901 -1.06355,1.861206 -0.56976,0.835644 -1.22814,1.430724 -0.65839,0.595079 -1.38008,0.924272 -0.72169,0.329193 -1.49403,0.329193 -0.785,0 -1.39274,-0.30387 -0.59508,-0.316532 -1.00024,-0.886289 -0.3925,-0.569757 -0.59508,-1.380078 -0.20258,-0.810321 -0.20258,-1.823223 0,-1.10153 0.27855,-2.152415 0.29121,-1.063547 0.79766,-2.013142 0.50645,-0.949595 1.21548,-1.747255 0.70903,-0.79766 1.57,-1.380078 0.86096,-0.582419 1.83588,-0.911612 0.97492,-0.329193 2.01314,-0.329193 0.74702,0 1.4054,0.139274 0.67105,0.126613 1.30411,0.455806 l -1.48136,12.167479 h -0.58242 q -0.25323,0 -0.34186,-0.139274 -0.0886,-0.139274 -0.0886,-0.316532 z"
     style="font-style:italic;font-variant:normal;font-weight:300;font-stretch:normal;font-family:Lato;-inkscape-font-specification:'Lato Light Italic';stroke-width:0.75176305"
     id="path912" /><path
     d="m 289.18324,-50.168655 q -0.27854,-0.493789 -0.63306,-0.835644 -0.34185,-0.354515 -0.73435,-0.557095 -0.3925,-0.215242 -0.82299,-0.303871 -0.43048,-0.10129 -0.86096,-0.10129 -0.79766,0 -1.49403,0.329193 -0.68371,0.316532 -1.25347,0.873627 -0.55709,0.557096 -1.00024,1.29145 -0.43048,0.734353 -0.73435,1.557336 -0.29121,0.822982 -0.45581,1.69661 -0.15193,0.873627 -0.15193,1.683948 0,1.69661 0.64572,2.646206 0.64573,0.949595 1.88653,0.949595 0.72169,0 1.44339,-0.405161 0.72169,-0.405161 1.39274,-1.139514 0.6837,-0.734354 1.26612,-1.759916 0.59508,-1.038224 1.05089,-2.29169 z m 2.20306,-8.381759 -2.2537,18.422145 h -0.58242 q -0.25323,0 -0.34185,-0.139274 -0.0886,-0.139274 -0.0886,-0.316532 l 0.41782,-3.962977 q -0.49379,1.025563 -1.11419,1.873868 -0.60774,0.835644 -1.29145,1.443384 -0.68371,0.607741 -1.43073,0.936934 -0.74701,0.329193 -1.51935,0.329193 -0.82298,0 -1.44338,-0.316531 -0.6204,-0.316532 -1.03823,-0.89895 -0.41782,-0.582419 -0.63306,-1.405401 -0.21524,-0.822983 -0.21524,-1.848545 0,-0.962257 0.20258,-1.962497 0.20258,-1.012901 0.56976,-1.949835 0.37983,-0.949595 0.91161,-1.772578 0.54443,-0.835644 1.22814,-1.456046 0.68371,-0.620402 1.49403,-0.974917 0.81032,-0.367177 1.73459,-0.367177 1.02557,0 1.88653,0.455806 0.87363,0.443144 1.41806,1.329433 l 0.92428,-7.419503 z"
     style="font-style:italic;font-variant:normal;font-weight:300;font-stretch:normal;font-family:Lato;-inkscape-font-specification:'Lato Light Italic';stroke-width:0.75176305"
     id="path914" /><path
     d="m 295.17203,-48.573335 q 0.51911,-1.240804 1.12685,-2.152416 0.62041,-0.911611 1.30411,-1.443384 0.69637,-0.531774 1.44339,-0.658386 0.74701,-0.126613 1.51935,0.177258 l -0.21524,1.126852 q -0.86097,-0.329193 -1.6333,-0.151935 -0.77234,0.164597 -1.45605,0.810321 -0.67105,0.633064 -1.25347,1.721933 -0.56975,1.088869 -1.02556,2.582899 l -0.77234,6.431924 h -1.17749 l 1.51935,-12.635946 h 0.54443 q 0.44315,0 0.44315,0.455806 z"
     style="font-style:italic;font-variant:normal;font-weight:300;font-stretch:normal;font-family:Lato;-inkscape-font-specification:'Lato Light Italic';stroke-width:0.75176305"
     id="path916" /><path
     d="m 304.18685,-52.726231 -1.53202,12.597962 h -1.17749 l 1.53201,-12.597962 z m 0.92427,-4.342815 q 0,0.227903 -0.10129,0.430483 -0.0886,0.189919 -0.24056,0.341854 -0.15194,0.151935 -0.35452,0.240564 -0.18992,0.08863 -0.3925,0.08863 -0.21524,0 -0.40516,-0.08863 -0.18992,-0.08863 -0.32919,-0.240564 -0.13928,-0.151935 -0.2279,-0.341854 -0.0886,-0.20258 -0.0886,-0.430483 0,-0.227903 0.0886,-0.430483 0.0886,-0.202581 0.2279,-0.354516 0.15193,-0.164596 0.34185,-0.253225 0.18992,-0.08863 0.40516,-0.08863 0.20258,0 0.3925,0.08863 0.20258,0.08863 0.35452,0.240564 0.15193,0.151935 0.24056,0.367177 0.0886,0.20258 0.0886,0.430483 z"
     style="font-style:italic;font-variant:normal;font-weight:300;font-stretch:normal;font-family:Lato;-inkscape-font-specification:'Lato Light Italic';stroke-width:0.75176305"
     id="path918" /><path
     d="m 317.55717,-52.726231 -6.45725,12.597962 h -0.98757 l -3.38056,-12.597962 h 0.92427 q 0.17726,0 0.26589,0.10129 0.10129,0.08863 0.12661,0.20258 l 2.57024,9.939096 q 0.0506,0.291209 0.076,0.582418 0.038,0.278548 0.0633,0.569757 0.0886,-0.291209 0.18992,-0.569757 0.10129,-0.278548 0.24056,-0.582418 l 5.02653,-9.939096 q 0.0633,-0.139274 0.17725,-0.215241 0.11396,-0.08863 0.26589,-0.08863 z"
     style="font-style:italic;font-variant:normal;font-weight:300;font-stretch:normal;font-family:Lato;-inkscape-font-specification:'Lato Light Italic';stroke-width:0.75176305"
     id="path920" /><path
     d="m 324.40691,-52.0172 q -1.0129,0 -1.83588,0.430483 -0.81032,0.417822 -1.44338,1.139514 -0.62041,0.721692 -1.05089,1.671288 -0.41782,0.936933 -0.6204,1.962496 1.60798,-0.177258 2.77282,-0.40516 1.16483,-0.240565 1.97515,-0.49379 0.81033,-0.265887 1.31678,-0.569757 0.50645,-0.30387 0.77233,-0.620402 0.27855,-0.329193 0.36718,-0.671047 0.10129,-0.341855 0.10129,-0.709031 0,-0.265887 -0.12661,-0.569757 -0.11395,-0.316532 -0.3925,-0.569757 -0.27855,-0.253226 -0.73435,-0.417822 -0.44315,-0.177258 -1.10154,-0.177258 z m 3.10202,9.546596 q -0.62041,0.658386 -1.21549,1.139514 -0.58241,0.468467 -1.19016,0.772338 -0.59508,0.30387 -1.2408,0.443144 -0.64572,0.151935 -1.38008,0.151935 -1.05088,0 -1.87387,-0.341854 -0.81032,-0.354515 -1.36741,-0.987579 -0.5571,-0.645725 -0.84831,-1.557336 -0.29121,-0.924272 -0.29121,-2.063787 0,-0.949595 0.18992,-1.911851 0.18992,-0.962256 0.5571,-1.848545 0.37984,-0.886289 0.92427,-1.658626 0.5571,-0.772338 1.26613,-1.342095 0.70903,-0.569757 1.56999,-0.89895 0.86097,-0.329193 1.86121,-0.329193 0.92427,0 1.55734,0.265887 0.64572,0.253225 1.03822,0.645724 0.40516,0.379839 0.58242,0.835644 0.17726,0.443145 0.17726,0.835644 0,0.519112 -0.13928,0.987579 -0.13927,0.468467 -0.49379,0.886289 -0.35451,0.417821 -0.96225,0.784998 -0.60774,0.367177 -1.55734,0.683709 -0.93693,0.30387 -2.2537,0.557095 -1.31678,0.253226 -3.08935,0.443145 -0.0253,0.253225 -0.0506,0.519112 -0.0127,0.265887 -0.0127,0.519112 0,1.886529 0.8483,2.950075 0.86097,1.063547 2.5829,1.063547 0.67105,0 1.20282,-0.139274 0.54444,-0.151935 0.96226,-0.379838 0.43048,-0.227903 0.74702,-0.481128 0.32919,-0.253226 0.58241,-0.481128 0.25323,-0.227903 0.43049,-0.367177 0.18992,-0.151935 0.34185,-0.151935 0.15194,0 0.26589,0.126612 z"
     style="font-style:italic;font-variant:normal;font-weight:300;font-stretch:normal;font-family:Lato;-inkscape-font-specification:'Lato Light Italic';stroke-width:0.75176305"
     id="path922" /><path
     d="m 332.18094,-48.674625 q 0.50645,-1.00024 1.12685,-1.785239 0.63306,-0.79766 1.32943,-1.342095 0.69637,-0.544434 1.43073,-0.822982 0.73435,-0.291209 1.48137,-0.291209 0.81032,0 1.38007,0.316532 0.58242,0.316531 0.92428,0.924272 0.35451,0.607741 0.4558,1.49403 0.11395,0.873627 -0.0253,2.00048 l -0.94959,8.052567 h -1.19016 l 0.94959,-8.052567 q 0.21524,-1.7979 -0.24056,-2.760156 -0.45581,-0.962257 -1.70927,-0.962257 -0.70904,0 -1.43073,0.367177 -0.70903,0.354516 -1.39274,1.025563 -0.67104,0.658386 -1.26612,1.607981 -0.59508,0.936934 -1.05089,2.114432 l -0.77234,6.659827 h -1.19016 l 1.5067,-12.635946 h 0.54443 q 0.44314,0 0.44314,0.455806 z"
     style="font-style:italic;font-variant:normal;font-weight:300;font-stretch:normal;font-family:Lato;-inkscape-font-specification:'Lato Light Italic';stroke-width:0.75176305"
     id="path924" /><path
     d="m 351.72992,-48.940512 q 0.50645,-0.936934 1.11419,-1.671287 0.62041,-0.747015 1.29145,-1.253466 0.68371,-0.519112 1.39274,-0.784998 0.72169,-0.265887 1.43073,-0.265887 0.82298,0 1.4054,0.316532 0.58241,0.316531 0.92427,0.924272 0.34185,0.607741 0.44314,1.49403 0.11395,0.873627 -0.0253,2.00048 l -0.94959,8.052567 h -1.19016 l 0.94959,-8.052567 q 0.21524,-1.7979 -0.24056,-2.760156 -0.45581,-0.974918 -1.70927,-0.974918 -0.68371,0 -1.39274,0.354516 -0.70903,0.341854 -1.38008,0.987579 -0.65839,0.645724 -1.25347,1.569997 -0.59508,0.911611 -1.05088,2.051125 l -0.82298,6.824424 h -1.19016 l 2.22838,-18.422145 h 1.19016 z"
     style="font-style:italic;font-variant:normal;font-weight:300;font-stretch:normal;font-family:Lato;-inkscape-font-specification:'Lato Light Italic';stroke-width:0.75176305"
     id="path926" /><path
     d="m 368.74667,-52.0172 q -1.0129,0 -1.83589,0.430483 -0.81032,0.417822 -1.44338,1.139514 -0.6204,0.721692 -1.05089,1.671288 -0.41782,0.936933 -0.6204,1.962496 1.60798,-0.177258 2.77282,-0.40516 1.16484,-0.240565 1.97516,-0.49379 0.81032,-0.265887 1.31677,-0.569757 0.50645,-0.30387 0.77234,-0.620402 0.27854,-0.329193 0.36717,-0.671047 0.10129,-0.341855 0.10129,-0.709031 0,-0.265887 -0.12661,-0.569757 -0.11395,-0.316532 -0.3925,-0.569757 -0.27855,-0.253226 -0.73435,-0.417822 -0.44315,-0.177258 -1.10153,-0.177258 z m 3.10201,9.546596 q -0.6204,0.658386 -1.21548,1.139514 -0.58242,0.468467 -1.19016,0.772338 -0.59508,0.30387 -1.24081,0.443144 -0.64572,0.151935 -1.38008,0.151935 -1.05088,0 -1.87386,-0.341854 -0.81032,-0.354515 -1.36742,-0.987579 -0.5571,-0.645725 -0.84831,-1.557336 -0.2912,-0.924272 -0.2912,-2.063787 0,-0.949595 0.18991,-1.911851 0.18992,-0.962256 0.5571,-1.848545 0.37984,-0.886289 0.92427,-1.658626 0.5571,-0.772338 1.26613,-1.342095 0.70903,-0.569757 1.57,-0.89895 0.86096,-0.329193 1.8612,-0.329193 0.92428,0 1.55734,0.265887 0.64572,0.253225 1.03822,0.645724 0.40516,0.379839 0.58242,0.835644 0.17726,0.443145 0.17726,0.835644 0,0.519112 -0.13927,0.987579 -0.13928,0.468467 -0.49379,0.886289 -0.35452,0.417821 -0.96226,0.784998 -0.60774,0.367177 -1.55734,0.683709 -0.93693,0.30387 -2.2537,0.557095 -1.31677,0.253226 -3.08935,0.443145 -0.0253,0.253225 -0.0507,0.519112 -0.0127,0.265887 -0.0127,0.519112 0,1.886529 0.84831,2.950075 0.86096,1.063547 2.5829,1.063547 0.67104,0 1.20282,-0.139274 0.54443,-0.151935 0.96225,-0.379838 0.43049,-0.227903 0.74702,-0.481128 0.32919,-0.253226 0.58242,-0.481128 0.25322,-0.227903 0.43048,-0.367177 0.18992,-0.151935 0.34185,-0.151935 0.15194,0 0.26589,0.126612 z"
     style="font-style:italic;font-variant:normal;font-weight:300;font-stretch:normal;font-family:Lato;-inkscape-font-specification:'Lato Light Italic';stroke-width:0.75176305"
     id="path928" /><path
     d="m 383.37044,-51.738652 q -0.37984,-0.139274 -0.785,-0.189919 -0.40516,-0.06331 -0.82298,-0.06331 -1.26613,0 -2.41831,0.620403 -1.15217,0.620402 -2.0258,1.658626 -0.87363,1.038224 -1.39274,2.380318 -0.51911,1.342095 -0.51911,2.785479 0,1.69661 0.56976,2.646205 0.58241,0.936934 1.7979,0.936934 0.72169,0 1.41806,-0.40516 0.69637,-0.405161 1.32943,-1.139515 0.64573,-0.734353 1.20282,-1.759916 0.5571,-1.038224 1.00024,-2.291689 z m -0.82299,7.229584 q -0.48112,1.012901 -1.06354,1.861206 -0.56976,0.835644 -1.22815,1.430724 -0.65838,0.595079 -1.38007,0.924272 -0.7217,0.329193 -1.49403,0.329193 -0.785,0 -1.39274,-0.30387 -0.59508,-0.316532 -1.00024,-0.886289 -0.3925,-0.569757 -0.59508,-1.380078 -0.20258,-0.810321 -0.20258,-1.823223 0,-1.10153 0.27855,-2.152415 0.2912,-1.063547 0.79766,-2.013142 0.50645,-0.949595 1.21548,-1.747255 0.70903,-0.79766 1.56999,-1.380078 0.86097,-0.582419 1.83589,-0.911612 0.97492,-0.329193 2.01314,-0.329193 0.74701,0 1.4054,0.139274 0.67105,0.126613 1.30411,0.455806 l -1.48137,12.167479 h -0.58242 q -0.25322,0 -0.34185,-0.139274 -0.0886,-0.139274 -0.0886,-0.316532 z"
     style="font-style:italic;font-variant:normal;font-weight:300;font-stretch:normal;font-family:Lato;-inkscape-font-specification:'Lato Light Italic';stroke-width:0.75176305"
     id="path930" /><path
     d="m 387.09285,-40.128269 2.22839,-18.422145 h 1.17749 l -2.24104,18.422145 z"
     style="font-style:italic;font-variant:normal;font-weight:300;font-stretch:normal;font-family:Lato;-inkscape-font-specification:'Lato Light Italic';stroke-width:0.75176305"
     id="path932" /><path
     d="m 393.18293,-42.242701 q 0,-0.07597 0,-0.189919 0.0127,-0.113951 0.0253,-0.341854 0.0253,-0.227903 0.0633,-0.582419 0.038,-0.367176 0.11395,-0.924272 l 0.86097,-7.153617 h -1.65863 q -0.12661,0 -0.20258,-0.07597 -0.076,-0.07597 -0.0506,-0.215242 l 0.0633,-0.468467 1.98782,-0.151935 0.83565,-4.507412 q 0.0253,-0.113951 0.11395,-0.20258 0.0886,-0.08863 0.21524,-0.08863 h 0.58242 l -0.59508,4.811282 h 3.64644 l -0.10129,0.89895 h -3.64644 l -0.87363,7.115633 q -0.0633,0.519112 -0.11395,0.848305 -0.038,0.329193 -0.0633,0.544435 -0.0127,0.20258 -0.0253,0.30387 0,0.10129 0,0.151935 0,0.822983 0.37984,1.190159 0.3925,0.367177 1.00024,0.367177 0.41782,0 0.73435,-0.126613 0.32919,-0.139273 0.56976,-0.291209 0.24056,-0.164596 0.3925,-0.291209 0.15193,-0.139274 0.2279,-0.139274 0.12661,0 0.18992,0.126613 l 0.2279,0.531773 q -0.50645,0.531773 -1.22814,0.860966 -0.72169,0.316532 -1.44338,0.316532 -1.03823,0 -1.63331,-0.569757 -0.58242,-0.569757 -0.59508,-1.747255 z"
     style="font-style:italic;font-variant:normal;font-weight:300;font-stretch:normal;font-family:Lato;-inkscape-font-specification:'Lato Light Italic';stroke-width:0.75176305"
     id="path934" /><path
     d="m 403.16001,-48.940512 q 0.50645,-0.936934 1.11419,-1.671287 0.6204,-0.747015 1.29145,-1.253466 0.68371,-0.519112 1.39274,-0.784998 0.72169,-0.265887 1.43072,-0.265887 0.82298,0 1.4054,0.316532 0.58242,0.316531 0.92427,0.924272 0.34186,0.607741 0.44315,1.49403 0.11395,0.873627 -0.0253,2.00048 l -0.94959,8.052567 h -1.19016 l 0.9496,-8.052567 q 0.21524,-1.7979 -0.24057,-2.760156 -0.4558,-0.974918 -1.70927,-0.974918 -0.68371,0 -1.39274,0.354516 -0.70903,0.341854 -1.38008,0.987579 -0.65838,0.645724 -1.25346,1.569997 -0.59508,0.911611 -1.05089,2.051125 l -0.82298,6.824424 h -1.19016 l 2.22838,-18.422145 h 1.19016 z"
     style="font-style:italic;font-variant:normal;font-weight:300;font-stretch:normal;font-family:Lato;-inkscape-font-specification:'Lato Light Italic';stroke-width:0.75176305"
     id="path936" /></g>
</g></g></svg>