<svg version="1.1" id="Laag_1" xmlns="http://www.w3.org/2000/svg" x="0" y="0" width="286.3" height="65.2" viewBox="0 0 286.3 65.2" xml:space="preserve"><style>.st0{fill:#231e44}</style><path class="st0" d="M18.3 37.2c-3.3 4.1-2.7 10.1 1.4 13.5 4.1 3.3 10.1 2.7 13.5-1.4s2.7-10.1-1.4-13.5c-4.1-3.4-10.1-2.8-13.5 1.4m3-14.9c7.1-1.6 15.2 1.1 19.7 6.1 6.1 6.8 4.7 11.5 8.5 12 10.2 1.3 8.9-3.9 15.4-4.4 2.1-.2 7.6 1.3 7.6 7.2 0 5.4-6.1 9.1-10.6 6.6-3.1-1.7-5.4-4.9-12.2-3.4-4.5 1-2.2 6-8.8 12.6-3.1 3.2-8.4 6.2-14.8 6.3-6.2.1-10.1-1.9-12.8-3.8-5.8-4-11.2-12.3-8.8-23 2.3-10.3 9.7-14.6 16.8-16.2"/><path d="M12.3 35.5c.5 5.3 5.1 9.2 10.4 8.7 5.3-.5 9.2-5.1 8.7-10.4-.5-5.3-5.1-9.2-10.4-8.7-5.3.5-9.2 5.2-8.7 10.4M4.1 22.7c4-6.1 11.7-9.8 18.4-9.3 9.1.7 11.4 5.1 14.5 2.7 8.3-6.1 3.7-9 8-13.9 1.4-1.6 6.3-4.3 10.5-.1 3.8 3.9 2 10.8-3.1 12.1-3.4.9-7.3.2-11.2 6-2.6 3.8 2.5 5.8 2.5 15.2 0 4.4-1.7 10.3-6.2 14.8-4.4 4.4-8.6 5.6-11.9 6.2-6.9 1.2-16.5-1-22.2-10.3-5.7-9-3.3-17.2.7-23.4" fill="#bbc801"/><path class="st0" d="M90.7 32h-5.5V20.7h2.3V30h3.4l-.2 2zm6.2 0l-.2-.8c-.2.2-.4.3-.6.5-.2.1-.4.2-.7.3-.3.1-.6.1-1 .1-.3 0-.5 0-.8-.1s-.5-.2-.8-.4c-.2-.2-.4-.5-.6-.8-.1-.4-.2-.8-.2-1.4s.1-1 .3-1.4c.2-.4.5-.6.8-.8.3-.2.7-.3 1-.4.4-.1.7-.1 1-.1h1.5v-.6c0-.4-.1-.7-.3-.8-.2-.1-.5-.2-.9-.2-.3 0-.6 0-.9.1-.3 0-.6.1-.9.2-.3.1-.6.1-.9.2v-1.8c.3-.1.7-.2.9-.3.3-.1.6-.1 1-.2s.8-.1 1.2-.1c.4 0 .8 0 1.2.1.4.1.7.2 1 .4.3.2.5.5.7.8.2.4.2.8.2 1.4V32h-2zm-.2-4.1h-.6c-.3 0-.6 0-.8.1-.2 0-.4.1-.5.2-.1.1-.2.3-.3.4-.1.2-.1.4-.1.7 0 .5.1.8.3.9.2.2.4.2.7.2.3 0 .5 0 .7-.1.2-.1.4-.1.5-.2.1-.1.2-.1.2-.1v-2.1zm9.5 4.1v-6c0-.3-.1-.5-.2-.6-.1-.1-.4-.2-.8-.2-.2 0-.5 0-.7.1-.2.1-.4.1-.6.2l-.6.3V32H101v-8.5h1.9l.3.9c.3-.2.6-.4.8-.5.3-.1.6-.3.9-.4.3-.1.7-.2 1.1-.2.4 0 .7 0 1 .1.3.1.5.2.7.4s.4.5.5.8c.1.3.2.7.2 1.2V32h-2.2zm9.8 0l-.3-.7c-.2.2-.4.3-.6.4-.2.1-.4.2-.7.3-.3.1-.6.1-.9.1-.3 0-.7 0-1.1-.1-.4-.1-.7-.3-1-.6-.3-.3-.6-.8-.8-1.3-.2-.6-.3-1.4-.3-2.3 0-1 .1-1.8.4-2.4.3-.6.6-1 1-1.3.4-.3.8-.5 1.2-.6.4-.1.7-.1 1-.1.4 0 .7.1 1 .2s.5.2.6.3l.2.2v-3.6h2.3V32h-2zm-.4-6.6s-.1 0-.2-.1-.3-.1-.5-.2-.4-.1-.6-.1c-.2 0-.5 0-.7.1-.2 0-.4.2-.6.3-.2.2-.3.5-.4.8-.1.4-.1.9-.1 1.5s0 1.1.1 1.5c.1.4.2.6.3.8.1.2.3.3.5.3s.4.1.6.1c.2 0 .5 0 .7-.1s.4-.2.5-.3c.1-.1.2-.1.2-.1v-4.5zm11.1 3.1h-4.8c0 .4.1.8.2 1 .1.3.3.4.4.6.2.1.3.2.5.3.2 0 .4.1.6.1.3 0 .6 0 .9-.1.3 0 .6-.1.8-.2.3-.1.5-.1.9-.2v1.8c-.3.1-.5.2-.8.2-.2.1-.5.1-.8.2-.3 0-.6.1-1 .1s-.9 0-1.4-.1c-.5-.1-.9-.3-1.3-.6s-.7-.8-.9-1.3c-.2-.6-.4-1.4-.4-2.4 0-.9.1-1.6.3-2.2.2-.6.5-1 .8-1.4.3-.3.7-.6 1.2-.7.4-.1.9-.2 1.3-.2s.8.1 1.2.2.8.3 1.1.7c.3.3.6.8.8 1.4.2.6.3 1.3.3 2.2l.1.6zm-2.2-1.5c0-.5 0-.8-.1-1.1-.1-.3-.1-.5-.2-.7-.1-.2-.2-.3-.4-.4-.2-.1-.3-.1-.5-.1-.5 0-.8.2-1 .5-.2.3-.3.9-.3 1.8h2.5zm4 5V20.4h2.3V32h-2.3zm6.9-11c0 .2 0 .4-.1.5-.1.2-.2.3-.3.4-.1.1-.3.2-.4.3-.2.1-.3.1-.5.1s-.4 0-.5-.1c-.2-.1-.3-.2-.4-.3-.1-.1-.2-.3-.3-.4-.1-.2-.1-.3-.1-.5s0-.4.1-.5c.1-.2.2-.3.3-.4.1-.1.3-.2.4-.3.2-.1.3-.1.5-.1s.4 0 .5.1c.2.1.3.2.4.3.1.1.2.3.3.4.1.1.1.3.1.5zm-2.5 11v-8.5h2.3V32h-2.3zm6.8.5c0 .6-.1 1.1-.2 1.4-.1.4-.3.6-.6.8-.2.2-.5.3-.8.4-.3.1-.6.1-1 .1h-.7c-.2 0-.4-.1-.6-.1-.2 0-.4-.1-.7-.2v-1.8c.2.1.4.1.6.1.2 0 .3.1.5.1h.4c.2 0 .4-.1.6-.2.1-.1.2-.3.2-.7v-9.1h2.3v9.2zm.2-11.5c0 .2 0 .4-.1.5-.1.2-.2.3-.3.4-.1.1-.3.2-.4.3-.2.1-.3.1-.5.1s-.4 0-.5-.1c-.2-.1-.3-.2-.4-.3-.1-.1-.2-.3-.3-.4-.1-.2-.1-.3-.1-.5s0-.4.1-.5c.1-.2.2-.3.3-.4.1-.1.3-.2.4-.3.2-.1.3-.1.5-.1s.4 0 .5.1c.2.1.3.2.4.3.1.1.2.3.3.4 0 .1.1.3.1.5zm2 11V20.4h2.3V32h-2.3zm4.7.1l-2.3-5 1.9-3.7h2.6l-2.2 3.6 2.6 4.9-2.6.2z"/><path d="M161.1 31.7s-.1 0-.3.1c-.2.1-.4.1-.8.2s-.8.1-1.2.1c-.5 0-.9-.1-1.4-.2-.5-.1-.9-.4-1.3-.8s-.7-1-.9-1.7c-.2-.8-.4-1.8-.4-3.1 0-.9.1-1.6.2-2.2.1-.6.3-1.1.5-1.6.2-.4.5-.8.8-1s.6-.5.9-.6l.9-.3c.3 0 .6-.1.8-.1.4 0 .8 0 1.1.1.3.1.6.1.7.2.1.1.2.1.3.1v1.8c-.2-.1-.5-.1-.7-.2-.2 0-.4-.1-.6-.1-.2 0-.5-.1-.7-.1-.3 0-.5.1-.8.2-.2.1-.5.3-.7.6-.2.3-.3.7-.5 1.2-.1.5-.2 1.2-.2 2 0 .7 0 1.4.1 1.9s.2.9.4 1.2c.2.3.4.5.6.7.2.1.5.2.8.2.3 0 .5 0 .8-.1.3 0 .5-.1.7-.1.2 0 .4-.1.7-.2v1.8zm8.8-4c0 1-.1 1.7-.4 2.3-.2.6-.6 1-.9 1.3-.4.3-.8.5-1.3.6-.5.1-.9.1-1.3.1s-.9-.1-1.3-.2c-.5-.1-.9-.3-1.3-.6s-.7-.8-.9-1.3c-.2-.6-.4-1.3-.4-2.3 0-.9.1-1.7.4-2.3.2-.6.5-1 .9-1.3.4-.3.8-.5 1.3-.7.5-.1.9-.2 1.4-.2.4 0 .9.1 1.4.2.5.1.9.3 1.3.6s.7.8.9 1.3c.1.8.2 1.6.2 2.5zm-2.2 0c0-.7 0-1.2-.1-1.5-.1-.4-.2-.7-.4-.9-.2-.2-.3-.3-.5-.4-.2 0-.4-.1-.6-.1-.2 0-.4 0-.6.1s-.4.2-.5.4-.3.5-.4.9c-.1.4-.1.9-.1 1.5s.1 1.1.2 1.5c.1.4.2.6.4.8.2.2.3.3.5.4.2.1.4.1.6.1.2 0 .4 0 .6-.1.2-.1.4-.2.5-.4.2-.2.3-.5.4-.8-.1-.3 0-.8 0-1.5zm11.3 0c0 1-.1 1.7-.4 2.3-.2.6-.6 1-.9 1.3-.4.3-.8.5-1.3.6-.5.1-.9.1-1.3.1s-.9-.1-1.3-.2c-.5-.1-.9-.3-1.3-.6s-.7-.8-.9-1.3c-.2-.6-.4-1.3-.4-2.3 0-.9.1-1.7.4-2.3.2-.6.5-1 .9-1.3.4-.3.8-.5 1.3-.7.5-.1.9-.2 1.4-.2.4 0 .9.1 1.4.2.5.1.9.3 1.3.6s.7.8.9 1.3c.1.8.2 1.6.2 2.5zm-4.6-6.7c0 .4-.1.7-.4.9-.2.3-.5.4-.9.4s-.7-.1-.9-.4c-.2-.3-.4-.6-.4-.9 0-.4.1-.7.4-.9.2-.3.5-.4.9-.4s.7.1.9.4c.2.3.4.6.4.9zm2.3 6.7c0-.7 0-1.2-.1-1.5-.1-.4-.2-.7-.4-.9s-.3-.3-.5-.4c-.2 0-.4-.1-.6-.1-.2 0-.4 0-.6.1s-.4.2-.5.4c-.2.2-.3.5-.4.9s-.1.9-.1 1.5.1 1.1.2 1.5c.1.4.2.6.4.8.2.2.3.3.5.4.2.1.4.1.6.1.2 0 .4 0 .6-.1.2-.1.4-.2.5-.4.2-.2.3-.5.4-.8v-1.5zm1.7-6.7c0 .4-.1.7-.4.9-.2.3-.5.4-.9.4s-.7-.1-.9-.4c-.2-.3-.4-.6-.4-.9 0-.4.1-.7.4-.9.2-.3.5-.4.9-.4s.7.1.9.4c.2.3.4.6.4.9zm6.9 4.6h-.2c-.1 0-.3-.1-.5-.1h-.5c-.2 0-.3 0-.5.1s-.3.1-.4.1c-.1 0-.2.1-.2.1V32h-2.3v-8.5h1.8l.3.9c.1-.2.3-.4.4-.5.1-.1.3-.2.5-.3.2-.1.4-.2.7-.2.3 0 .6 0 .9.1v2.1zm6.8 6.4l-.3-.7c-.2.2-.4.3-.6.4-.2.1-.4.2-.7.3-.3.1-.6.1-.9.1-.3 0-.7 0-1.1-.1-.4-.1-.7-.3-1-.6-.3-.3-.6-.8-.8-1.3-.2-.6-.3-1.4-.3-2.3 0-1 .1-1.8.4-2.4.3-.6.6-1 1-1.3.4-.3.8-.5 1.2-.6.4-.1.7-.1 1-.1.4 0 .7.1 1 .2s.5.2.6.3l.2.2v-3.6h2.3V32h-2zm-.5-6.6s-.1 0-.2-.1-.3-.1-.5-.2-.4-.1-.6-.1c-.2 0-.5 0-.7.1-.2 0-.4.2-.6.3-.2.2-.3.5-.4.8-.1.4-.1.9-.1 1.5s0 1.1.1 1.5c.1.4.2.6.3.8.1.2.3.3.5.3s.4.1.6.1c.2 0 .5 0 .7-.1s.4-.2.5-.3c.1-.1.2-.1.2-.1v-4.5zm7-4.4c0 .2 0 .4-.1.5-.1.2-.2.3-.3.4-.1.1-.3.2-.4.3-.2.1-.3.1-.5.1s-.4 0-.5-.1c-.2-.1-.3-.2-.4-.3-.1-.1-.2-.3-.3-.4-.1-.2-.1-.3-.1-.5s0-.4.1-.5c.1-.2.2-.3.3-.4.1-.1.3-.2.4-.3.2-.1.3-.1.5-.1s.4 0 .5.1c.2.1.3.2.4.3.1.1.2.3.3.4 0 .1.1.3.1.5zm-2.5 11v-8.5h2.3V32h-2.3zm9.7 0v-6c0-.3-.1-.5-.2-.6-.1-.1-.4-.2-.8-.2-.2 0-.5 0-.7.1-.2.1-.4.1-.6.2l-.6.3V32h-2.3v-8.5h1.9l.3.9c.3-.2.6-.4.8-.5.3-.1.6-.3.9-.4.3-.1.7-.2 1.1-.2.4 0 .7 0 1 .1.3.1.5.2.7.4.2.2.4.5.5.8.1.3.2.7.2 1.2V32h-2.2zm8.8 0l-.2-.8c-.2.2-.4.3-.6.5-.2.1-.4.2-.7.3-.3.1-.6.1-1 .1-.3 0-.5 0-.8-.1s-.5-.2-.8-.4c-.2-.2-.4-.5-.6-.8-.2-.4-.2-.8-.2-1.4s.1-1 .3-1.4c.2-.4.5-.6.8-.8.3-.2.7-.3 1-.4.4-.1.7-.1 1-.1h1.5v-.6c0-.4-.1-.7-.3-.8-.2-.1-.5-.2-.9-.2-.3 0-.6 0-.9.1-.3 0-.6.1-.9.2-.3.1-.6.1-.9.2v-1.8c.3-.1.7-.2.9-.3.3-.1.6-.1 1-.2s.8-.1 1.2-.1c.4 0 .8 0 1.2.1.4.1.7.2 1 .4s.5.5.7.8c.2.4.2.8.2 1.4V32h-2zm-.3-4.1h-.6c-.3 0-.6 0-.8.1-.2 0-.4.1-.5.2-.1.1-.2.3-.3.4-.1.2-.1.4-.1.7 0 .5.1.8.3.9.2.2.4.2.7.2.3 0 .5 0 .7-.1.2-.1.4-.1.5-.2.1-.1.2-.1.2-.1v-2.1zm9.4 3.9c-.2.1-.4.1-.6.2-.2 0-.4.1-.6.1-.2 0-.5.1-.8.1-.3 0-.6 0-.9-.1-.3-.1-.5-.2-.7-.3-.2-.2-.4-.4-.5-.7-.1-.3-.2-.7-.2-1.2V25H218v-1.5h1.4l.2-1.9 2.1-.7v2.6h1.9l-.2 1.5h-1.7v4.8c0 .2.1.4.2.5.1.1.2.1.4.1h.4c.2 0 .3-.1.5-.1s.4-.1.6-.1v1.6zm3.8-10.8c0 .2 0 .4-.1.5-.1.2-.2.3-.3.4-.1.1-.3.2-.4.3-.2.1-.3.1-.5.1s-.4 0-.5-.1c-.2-.1-.3-.2-.4-.3-.1-.1-.2-.3-.3-.4-.1-.2-.1-.3-.1-.5s0-.4.1-.5c.1-.2.2-.3.3-.4.1-.1.3-.2.4-.3.2-.1.3-.1.5-.1s.4 0 .5.1c.2.1.3.2.4.3.1.1.2.3.3.4 0 .1.1.3.1.5zM225 32v-8.5h2.3V32H225zm11.1-3.5h-4.8c0 .4.1.8.2 1 .1.3.3.4.4.6.2.1.3.2.5.3.2 0 .4.1.6.1.3 0 .6 0 .9-.1.3 0 .6-.1.8-.2.3-.1.5-.1.9-.2v1.8c-.3.1-.5.2-.8.2-.2.1-.5.1-.8.2-.3 0-.6.1-1 .1s-.9 0-1.4-.1c-.5-.1-.9-.3-1.3-.6s-.7-.8-.9-1.3c-.2-.6-.4-1.4-.4-2.4 0-.9.1-1.6.3-2.2.2-.6.5-1 .8-1.4.3-.3.7-.6 1.2-.7.4-.1.9-.2 1.3-.2s.8.1 1.2.2.8.3 1.1.7c.3.3.6.8.8 1.4.2.6.3 1.3.3 2.2l.1.6zm-2.2-1.5c0-.5 0-.8-.1-1.1-.1-.3-.1-.5-.2-.7-.1-.2-.2-.3-.4-.4-.2-.1-.3-.1-.5-.1-.5 0-.8.2-1 .5-.2.3-.3.9-.3 1.8h2.5zm11.4.7c0 .7-.1 1.3-.2 1.8s-.3.9-.5 1.2c-.2.3-.4.6-.7.8-.3.2-.5.3-.8.5-.3.1-.6.2-.8.2h-.7c-.2 0-.5 0-.7-.1s-.4-.1-.5-.1c-.1 0-.2-.1-.2-.1V35h-2.3V23.5h1.7l.4.7c.2-.2.4-.3.5-.4l.6-.3c.2-.1.5-.1.8-.1.4 0 .7 0 1.1.1.4.1.7.3 1.1.6.3.3.6.7.8 1.3.3.5.4 1.3.4 2.3zm-2.3 0c0-.7 0-1.2-.1-1.5-.1-.4-.2-.6-.3-.8-.1-.2-.3-.3-.5-.3h-.6c-.2 0-.3 0-.5.1-.2 0-.3.1-.4.2-.1.1-.3.1-.5.2v4.9s.1 0 .2.1c.1 0 .3.1.5.1s.4.1.6.1c.2 0 .4 0 .6-.1.2 0 .4-.2.5-.4s.3-.5.4-.9c.1-.5.1-1.1.1-1.7zm9.3 4.3l-.3-.9c-.3.2-.5.4-.7.5-.2.1-.5.2-.8.4-.3.1-.6.2-1 .2-.3 0-.7 0-1-.1-.3-.1-.5-.2-.8-.4-.2-.2-.4-.4-.5-.8-.1-.3-.2-.7-.2-1.2v-6.2h2.3v6c0 .2 0 .3.1.5 0 .1.1.2.2.3.1.1.2.1.3.1h.3c.3 0 .5-.1.8-.2.3-.1.5-.2.7-.3.2-.1.3-.1.3-.1v-6.3h2.3V32h-2zm9.2 0v-6c0-.3-.1-.5-.2-.6-.1-.1-.4-.2-.8-.2-.2 0-.5 0-.7.1-.2.1-.4.1-.6.2l-.6.3V32h-2.3v-8.5h1.9l.3.9c.3-.2.6-.4.8-.5.3-.1.6-.3.9-.4.3-.1.7-.2 1.1-.2.4 0 .7 0 1 .1.3.1.5.2.7.4.2.2.4.5.5.8.1.3.2.7.2 1.2V32h-2.2zm9.4-.2c-.2.1-.4.1-.6.2-.2 0-.4.1-.6.1-.2 0-.5.1-.8.1-.3 0-.6 0-.9-.1-.3-.1-.5-.2-.7-.3-.2-.2-.4-.4-.5-.7-.1-.3-.2-.7-.2-1.2V25h-1.4v-1.5h1.4l.2-1.9 2.1-.7v2.6h1.9l-.2 1.5h-1.7v4.8c0 .2.1.4.2.5.1.1.2.1.4.1h.4c.2 0 .3-.1.5-.1s.4-.1.6-.1v1.6z" fill="#bbc802"/><path class="st0" d="M90.1 49.1l-.7-2.6c-.1-.5-.3-.9-.5-1.3s-.3-.6-.5-.8l-.9.1V49h-2.3V37.8h3.1c.6 0 1.2 0 1.7.1s.9.2 1.3.5c.4.2.7.6.9 1 .2.4.3.9.3 1.6 0 .9-.2 1.6-.6 2-.4.5-.9.8-1.5 1 .2.1.4.4.6.7.2.3.4.7.5 1.1l1.1 3.2h-2.5zm.1-8c0-.5-.2-.9-.5-1.1s-.8-.3-1.5-.3h-.7V43c.4 0 .7-.1 1.1-.1s.6-.1.9-.3c.2-.1.4-.3.6-.5.1-.3.1-.6.1-1zm10.5 4.5h-4.8c0 .4.1.8.2 1 .1.3.3.4.4.6.2.1.3.2.5.3.2 0 .4.1.6.1.3 0 .6 0 .9-.1.3 0 .6-.1.8-.2.3-.1.5-.1.9-.2v1.8c-.3.1-.5.2-.8.2-.2.1-.5.1-.8.2-.3 0-.6.1-1 .1s-.9 0-1.4-.1c-.5-.1-.9-.3-1.3-.6s-.7-.8-.9-1.3c-.2-.6-.4-1.4-.4-2.4 0-.9.1-1.6.3-2.2.2-.6.5-1 .8-1.4.3-.3.7-.6 1.2-.7.4-.1.9-.2 1.3-.2s.8.1 1.2.2.8.3 1.1.7c.3.3.6.8.8 1.4.2.6.3 1.3.3 2.2l.1.6zm-2.1-1.5c0-.5 0-.8-.1-1.1-.1-.3-.1-.5-.2-.7-.2-.2-.3-.3-.5-.3-.2-.1-.3-.1-.5-.1-.5 0-.8.2-1 .5s-.3.9-.3 1.8h2.6zm9.2 2.4c0 .6-.1 1.1-.3 1.5-.2.4-.5.6-.8.8-.3.2-.7.3-1.1.4-.4.1-.8.1-1.2.1-.3 0-.5 0-.8-.1-.3 0-.5-.1-.8-.1-.2 0-.5-.1-.8-.2V47c.3.1.6.2.9.2.2.1.5.1.7.2.3 0 .5.1.6.1.4 0 .7-.1.9-.2.2-.1.4-.3.4-.6s-.1-.5-.3-.6c-.2-.1-.5-.2-.8-.4l-.7-.2c-.2-.1-.4-.2-.7-.3-.2-.1-.4-.3-.6-.5-.2-.2-.3-.4-.4-.7-.1-.3-.2-.6-.2-1 0-.5.1-1 .3-1.3s.4-.6.7-.8c.3-.2.7-.3 1.1-.4.4-.1.8-.1 1.2-.1.4 0 .8 0 1.1.1.3.1.6.1.8.2.2.1.3.1.3.1v1.8c-.3-.1-.6-.1-.8-.2-.2 0-.4-.1-.7-.1-.2 0-.4-.1-.6-.1-.4 0-.8.1-.9.2-.2.1-.3.3-.3.6s.1.4.4.6c.2.1.5.2.8.4l.8.3.6.3c.2.1.4.3.5.5.2.2.3.4.4.7.3 0 .3.3.3.7zm8.3-.9h-4.8c0 .4.1.8.2 1 .1.3.3.4.4.6.2.1.3.2.5.3.2 0 .4.1.6.1.3 0 .6 0 .9-.1.3 0 .6-.1.8-.2.3-.1.5-.1.9-.2v1.8c-.3.1-.5.2-.8.2-.2.1-.5.1-.8.2-.3 0-.6.1-1 .1s-.9 0-1.4-.1c-.5-.1-.9-.3-1.3-.6s-.7-.8-.9-1.3c-.2-.6-.4-1.4-.4-2.4 0-.9.1-1.6.3-2.2.2-.6.5-1 .8-1.4.3-.3.7-.6 1.2-.7.4-.1.9-.2 1.3-.2s.8.1 1.2.2.8.3 1.1.7c.3.3.6.8.8 1.4.2.6.3 1.3.3 2.2l.1.6zm-2.2-1.5c0-.5 0-.8-.1-1.1-.1-.3-.1-.5-.2-.7-.1-.2-.2-.3-.4-.4-.2-.1-.3-.1-.5-.1-.5 0-.8.2-1 .5s-.3.9-.3 1.8h2.5zm8.5 5l-.2-.8c-.2.2-.4.3-.6.5-.2.1-.4.2-.7.3-.3.1-.6.1-1 .1-.3 0-.5 0-.8-.1-.3-.1-.5-.2-.8-.4-.2-.2-.4-.5-.6-.8-.2-.4-.2-.8-.2-1.4 0-.6.1-1 .3-1.4.2-.4.5-.6.8-.8.3-.2.7-.3 1-.4.4-.1.7-.1 1-.1h1.5v-.6c0-.4-.1-.7-.3-.8-.2-.1-.5-.2-.9-.2-.3 0-.6 0-.9.1-.3 0-.6.1-.9.2-.3.1-.6.1-.9.2v-1.8c.3-.1.7-.2.9-.3.3-.1.6-.1 1-.2s.8-.1 1.2-.1c.4 0 .8 0 1.2.1.4.1.7.2 1 .4s.5.5.7.8c.2.4.2.8.2 1.4v5.9h-2zm-.3-4.1h-.6c-.3 0-.6 0-.8.1-.2 0-.4.1-.5.2-.1.1-.2.3-.3.4-.1.2-.1.4-.1.7 0 .5.1.8.3.9.2.2.4.2.7.2.3 0 .5 0 .7-.1.2-.1.4-.1.5-.2.1-.1.2-.1.2-.1V45zm9.1-2.4h-.2c-.1 0-.3-.1-.5-.1h-.5c-.2 0-.3 0-.5.1s-.3.1-.4.1c-.1 0-.2.1-.2.1v6.3h-2.3v-8.5h1.8l.3.9c.1-.2.3-.4.4-.5.1-.1.3-.2.5-.3.2-.1.4-.2.7-.2.3 0 .6 0 .9.1v2zm6.7 6.3s-.1 0-.3.1c-.2.1-.4.1-.8.2-.3.1-.7.1-1 .1-.4 0-.8 0-1.3-.1-.4-.1-.8-.3-1.2-.6-.4-.3-.7-.7-.9-1.3-.2-.6-.4-1.4-.4-2.4s.1-1.8.4-2.4c.3-.6.6-1 1-1.4.4-.3.8-.5 1.3-.6.5-.1.9-.1 1.2-.1.3 0 .7 0 .9.1.3.1.5.1.6.2.1.1.2.1.2.1v1.7c-.3-.1-.5-.1-.7-.2-.2 0-.4-.1-.6-.1-.2 0-.4-.1-.5-.1-.2 0-.4 0-.7.1-.2.1-.4.2-.6.4-.2.2-.3.5-.4.8-.1.4-.2.9-.2 1.5s0 1 .1 1.4.2.6.3.8c.1.2.3.3.5.4.2.1.4.1.7.1.2 0 .4 0 .6-.1.2 0 .4-.1.6-.1.2 0 .4-.1.7-.2v1.7zm6.8.2v-6c0-.3-.1-.5-.2-.6-.1-.1-.4-.2-.8-.2-.2 0-.4 0-.6.1-.2.1-.4.1-.6.2-.2.1-.4.2-.7.3v6.2h-2.3V37.5h2.3v3.9c.3-.2.6-.4.8-.5.3-.1.6-.3.9-.4.3-.1.7-.2 1.1-.2.4 0 .7 0 1 .1.3.1.5.2.7.4.2.2.4.5.5.8.1.3.2.7.2 1.2v6.1h-2.3zm17.1-5.7c0 1.2-.1 2.2-.4 2.9-.2.7-.6 1.3-1 1.7-.4.4-1 .7-1.6.8-.6.1-1.3.2-2.1.2h-2.4V37.8h2.4c.8 0 1.5.1 2.1.2.6.1 1.2.4 1.6.8.4.4.8 1 1 1.7.3.7.4 1.7.4 2.9zm-2.3 0c0-.8-.1-1.5-.2-2s-.3-.9-.5-1.2c-.2-.3-.4-.5-.7-.6-.3-.1-.6-.1-1-.1h-.7v7.8h.6c.4 0 .7 0 1-.1.3-.1.6-.3.8-.5.2-.3.4-.7.5-1.2.2-.5.2-1.2.2-2.1zm8.5 5.7l-.2-.8c-.2.2-.4.3-.6.5-.2.1-.4.2-.7.3-.3.1-.6.1-1 .1-.3 0-.5 0-.8-.1s-.5-.2-.8-.4c-.2-.2-.4-.5-.6-.8-.2-.4-.2-.8-.2-1.4 0-.6.1-1 .3-1.4.2-.4.5-.6.8-.8.3-.2.7-.3 1-.4.4-.1.7-.1 1-.1h1.5v-.6c0-.4-.1-.7-.3-.8-.2-.1-.5-.2-.9-.2-.3 0-.6 0-.9.1-.3 0-.6.1-.9.2-.3.1-.6.1-.9.2v-1.8c.3-.1.7-.2.9-.3.3-.1.6-.1 1-.2s.8-.1 1.2-.1c.4 0 .8 0 1.2.1.4.1.7.2 1 .4s.5.5.7.8c.2.4.2.8.2 1.4v5.9h-2zm-.3-4.1h-.6c-.3 0-.6 0-.8.1-.2 0-.4.1-.5.2-.1.1-.2.3-.3.4-.1.2-.1.4-.1.7 0 .5.1.8.3.9.2.2.4.2.7.2.3 0 .5 0 .7-.1.2-.1.4-.1.5-.2.1-.1.2-.1.2-.1V45zm9.3 3.9c-.2.1-.4.1-.6.2-.2 0-.4.1-.6.1-.2 0-.5.1-.8.1-.3 0-.6 0-.9-.1-.3-.1-.5-.2-.7-.3-.2-.2-.4-.4-.5-.7-.1-.3-.2-.7-.2-1.2v-4.9h-1.4v-1.5h1.4l.2-1.9 2.1-.7v2.6h1.9l-.2 1.5H175v4.8c0 .2.1.4.2.5.1.1.2.1.4.1h.4c.2 0 .3-.1.5-.1s.4-.1.6-.1v1.6zm6.1.2l-.2-.8c-.2.2-.4.3-.6.5-.2.1-.4.2-.7.3-.3.1-.6.1-1 .1-.3 0-.5 0-.8-.1s-.5-.2-.8-.4c-.2-.2-.4-.5-.6-.8-.2-.4-.2-.8-.2-1.4 0-.6.1-1 .3-1.4.2-.4.5-.6.8-.8.3-.2.7-.3 1-.4.4-.1.7-.1 1-.1h1.5v-.6c0-.4-.1-.7-.3-.8-.2-.1-.5-.2-.9-.2-.3 0-.6 0-.9.1-.3 0-.6.1-.9.2-.3.1-.6.1-.9.2v-1.8c.3-.1.7-.2.9-.3.3-.1.6-.1 1-.2s.8-.1 1.2-.1c.4 0 .8 0 1.2.1.4.1.7.2 1 .4.3.2.5.5.7.8.2.4.2.8.2 1.4v5.9h-2zm-.3-4.1h-.6c-.3 0-.6 0-.8.1-.2 0-.4.1-.5.2-.1.1-.2.3-.3.4-.1.2-.1.4-.1.7 0 .5.1.8.3.9.2.2.4.2.7.2.3 0 .5 0 .7-.1.2-.1.4-.1.5-.2.1-.1.2-.1.2-.1V45zm17.4 4.1l-.1-4.3v-1.2c0-.4 0-.8.1-1.1 0-.3 0-.7.1-1.1-.1.3-.3.6-.4.9s-.3.5-.4.9c-.2.3-.3.6-.5.9l-1.6 2.8-1.6-2.8c-.2-.3-.4-.6-.5-1-.2-.3-.3-.6-.4-.9-.1-.3-.2-.5-.4-.9 0 .4.1.7.1 1 0 .3 0 .7.1 1.1s0 .8 0 1.3l-.1 4.3h-2.2l.4-11.3h1.8l2.9 5.7 3-5.7h1.7l.4 11.3h-2.4zm8.8 0l-.2-.8c-.2.2-.4.3-.6.5-.2.1-.4.2-.7.3-.3.1-.6.1-1 .1-.3 0-.5 0-.8-.1s-.5-.2-.8-.4c-.2-.2-.4-.5-.6-.8-.2-.4-.2-.8-.2-1.4 0-.6.1-1 .3-1.4.2-.4.5-.6.8-.8.3-.2.7-.3 1-.4.4-.1.7-.1 1-.1h1.5v-.6c0-.4-.1-.7-.3-.8-.2-.1-.5-.2-.9-.2-.3 0-.6 0-.9.1-.3 0-.6.1-.9.2-.3.1-.6.1-.9.2v-1.8c.3-.1.7-.2.9-.3.3-.1.6-.1 1-.2s.8-.1 1.2-.1c.4 0 .8 0 1.2.1.4.1.7.2 1 .4s.5.5.7.8c.2.4.2.8.2 1.4v5.9h-2zm-.3-4.1h-.6c-.3 0-.6 0-.8.1-.2 0-.4.1-.5.2-.1.1-.2.3-.3.4-.1.2-.1.4-.1.7 0 .5.1.8.3.9.2.2.4.2.7.2.3 0 .5 0 .7-.1.2-.1.4-.1.5-.2.1-.1.2-.1.2-.1V45zm9.6 4.1v-6c0-.3-.1-.5-.2-.6-.1-.1-.4-.2-.8-.2-.2 0-.5 0-.7.1-.2.1-.4.1-.6.2l-.6.3v6.2h-2.3v-8.5h1.9l.3.9c.3-.2.6-.4.8-.5.3-.1.6-.3.9-.4.3-.1.7-.2 1.1-.2.4 0 .7 0 1 .1.3.1.5.2.7.4.2.2.4.5.5.8.1.3.2.7.2 1.2V49h-2.2zm8.8 0l-.2-.8c-.2.2-.4.3-.6.5-.2.1-.4.2-.7.3-.3.1-.6.1-1 .1-.3 0-.5 0-.8-.1s-.5-.2-.8-.4c-.2-.2-.4-.5-.6-.8-.2-.4-.2-.8-.2-1.4 0-.6.1-1 .3-1.4.2-.4.5-.6.8-.8.3-.2.7-.3 1-.4.4-.1.7-.1 1-.1h1.5v-.6c0-.4-.1-.7-.3-.8-.2-.1-.5-.2-.9-.2-.3 0-.6 0-.9.1-.3 0-.6.1-.9.2-.3.1-.6.1-.9.2v-1.8c.3-.1.7-.2.9-.3.3-.1.6-.1 1-.2s.8-.1 1.2-.1c.4 0 .8 0 1.2.1.4.1.7.2 1 .4s.5.5.7.8c.2.4.2.8.2 1.4v5.9h-2zm-.3-4.1h-.6c-.3 0-.6 0-.8.1-.2 0-.4.1-.5.2-.1.1-.2.3-.3.4-.1.2-.1.4-.1.7 0 .5.1.8.3.9.2.2.4.2.7.2.3 0 .5 0 .7-.1.2-.1.4-.1.5-.2.1-.1.2-.1.2-.1V45zm10.7-2.9l.1.1c.1.1.2.2.3.4.1.2.1.5.1.7 0 .5-.1 1-.3 1.4-.2.4-.4.7-.7.9-.3.2-.7.4-1.1.5s-.9.1-1.4.1h-.7c-.2 0-.4-.1-.6-.1l-.3.3c-.1.1-.1.2-.1.3 0 .2.1.3.2.3s.3.1.6.1l2.5.1c.4 0 .8.1 1.1.1.3.1.6.2.8.4.2.2.4.4.5.7.1.3.2.7.2 1.1 0 .5-.1 1-.3 1.3-.2.3-.5.6-.8.8s-.8.4-1.4.4c-.5.1-1.2.1-1.9.1-1.1 0-2-.2-2.6-.5-.6-.3-.9-.9-.9-1.7 0-.2 0-.4.1-.6.1-.2.2-.3.3-.5l.3-.3.2-.2c-.2-.1-.3-.3-.5-.5-.1-.2-.2-.5-.2-.7 0-.4.1-.7.3-1 .2-.2.5-.5.7-.6-.3-.2-.6-.5-.8-.9-.2-.4-.3-.8-.3-1.4s.1-1 .3-1.4c.2-.4.4-.7.7-.9.3-.2.7-.4 1.1-.5.4-.1.9-.2 1.4-.2h.5c.1 0 .3 0 .4.1.1 0 .2 0 .3.1h3.2V42h-1.3zm-.8 7.6c0-.2 0-.3-.1-.4 0-.1-.1-.2-.2-.2s-.2-.1-.4-.1-.4 0-.7-.1l-2.2-.1c-.1.1-.1.3-.2.4 0 .1-.1.3-.1.5 0 .4.1.7.4.8.3.2.6.2 1.2.2.8 0 1.4-.1 1.7-.2.4-.1.6-.4.6-.8zm-.8-6.4c0-.6-.1-1-.4-1.2-.2-.2-.6-.4-1-.4s-.8.1-1 .4c-.2.3-.3.6-.3 1.2s.1 1 .3 1.2c.2.2.6.4 1 .4.5 0 .8-.1 1-.4.3-.2.4-.6.4-1.2zm11 2.3h-4.8c0 .4.1.8.2 1 .1.3.3.4.4.6.2.1.3.2.5.3.2 0 .4.1.6.1.3 0 .6 0 .9-.1.3 0 .6-.1.8-.2.3-.1.5-.1.9-.2v1.8c-.3.1-.5.2-.8.2-.2.1-.5.1-.8.2-.3 0-.6.1-1 .1s-.9 0-1.4-.1c-.5-.1-.9-.3-1.3-.6s-.7-.8-.9-1.3c-.2-.6-.4-1.4-.4-2.4 0-.9.1-1.6.3-2.2.2-.6.5-1 .8-1.4.3-.3.7-.6 1.2-.7.4-.1.9-.2 1.3-.2s.8.1 1.2.2.8.3 1.1.7c.3.3.6.8.8 1.4.2.6.3 1.3.3 2.2l.1.6zm-2.2-1.5c0-.5 0-.8-.1-1.1-.1-.3-.1-.5-.2-.7-.1-.2-.2-.3-.4-.4-.2-.1-.3-.1-.5-.1-.5 0-.8.2-1 .5s-.3.9-.3 1.8h2.5zm13.3 5V43c0-.3-.1-.5-.2-.6-.2-.1-.4-.1-.7-.1-.2 0-.5 0-.7.1-.2.1-.4.2-.6.2-.1.1-.2.1-.2.1V49h-2.3v-6c0-.3-.1-.5-.2-.6-.2-.1-.4-.1-.7-.1-.2 0-.5 0-.7.1-.2.1-.4.2-.6.2-.1.1-.2.1-.2.1V49h-2.3v-8.5h1.9l.3.8c.2-.2.5-.4.7-.5.2-.1.5-.2.8-.3.3-.1.6-.2 1-.2 1.1 0 1.7.4 2 1.2.4-.3.7-.6 1.2-.8.4-.2.9-.3 1.5-.3.3 0 .6 0 .9.1.3.1.5.2.7.4.2.2.4.5.5.8.1.3.2.7.2 1.2V49H258zm11.1-3.5h-4.8c0 .4.1.8.2 1 .1.3.3.4.4.6.2.1.3.2.5.3.2 0 .4.1.6.1.3 0 .6 0 .9-.1.3 0 .6-.1.8-.2.3-.1.5-.1.9-.2v1.8c-.3.1-.5.2-.8.2-.2.1-.5.1-.8.2-.3 0-.6.1-1 .1s-.9 0-1.4-.1c-.5-.1-.9-.3-1.3-.6s-.7-.8-.9-1.3c-.2-.6-.4-1.4-.4-2.4 0-.9.1-1.6.3-2.2.2-.6.5-1 .8-1.4.3-.3.7-.6 1.2-.7.4-.1.9-.2 1.3-.2s.8.1 1.2.2c.4.1.8.3 1.1.7.3.3.6.8.8 1.4.2.6.3 1.3.3 2.2l.1.6zm-2.2-1.5c0-.5 0-.8-.1-1.1-.1-.3-.1-.5-.2-.7-.1-.2-.2-.3-.4-.4-.2-.1-.3-.1-.5-.1-.5 0-.8.2-1 .5-.2.3-.3.9-.3 1.8h2.5zm9.1 5v-6c0-.3-.1-.5-.2-.6-.1-.1-.4-.2-.8-.2-.2 0-.5 0-.7.1-.2.1-.4.1-.6.2l-.6.3v6.2h-2.3v-8.5h1.9l.3.9c.3-.2.6-.4.8-.5.3-.1.6-.3.9-.4.3-.1.7-.2 1.1-.2.4 0 .7 0 1 .1.3.1.5.2.7.4.2.2.4.5.5.8.1.3.2.7.2 1.2V49H276zm9.4-.2c-.2.1-.4.1-.6.2-.2 0-.4.1-.6.1-.2 0-.5.1-.8.1-.3 0-.6 0-.9-.1-.3-.1-.5-.2-.7-.3s-.4-.4-.5-.7c-.1-.3-.2-.7-.2-1.2v-4.9h-1.4v-1.5h1.4l.2-1.9 2.1-.7v2.6h1.9l-.2 1.5h-1.7v4.8c0 .2.1.4.2.5.1.1.2.1.4.1h.4c.2 0 .3-.1.5-.1s.4-.1.6-.1v1.6z"/></svg>